<ttFont>
    <TTGlyph name="A" xMin="-53" yMin="-3" xMax="1299" yMax="1380">
      <contour>
        <pt x="621" y="596" on="1"/>
        <pt x="789" y="596" on="1"/>
        <pt x="797" y="597" on="1"/>
        <pt x="864" y="599" on="1"/>
        <pt x="872" y="600" on="0"/>
        <pt x="880" y="600" on="1"/>
        <pt x="955" y="600" on="0"/>
        <pt x="955" y="637" on="1"/>
        <pt x="955" y="645" on="1"/>
        <pt x="954" y="653" on="1"/>
        <pt x="951" y="691" on="1"/>
        <pt x="948" y="714" on="1"/>
        <pt x="946" y="730" on="0"/>
        <pt x="946" y="738" on="1"/>
        <pt x="943" y="762" on="1"/>
        <pt x="940" y="786" on="0"/>
        <pt x="940" y="794" on="1"/>
        <pt x="940" y="1021" on="0"/>
        <pt x="887" y="1138" on="1"/>
        <pt x="879" y="1156" on="0"/>
        <pt x="877" y="1156" on="1"/>
        <pt x="874" y="1156" on="1"/>
        <pt x="864" y="1156" on="0"/>
        <pt x="813" y="1061" on="0"/>
        <pt x="777" y="1005" on="1"/>
        <pt x="545" y="644" on="0"/>
        <pt x="545" y="615" on="1"/>
        <pt x="545" y="609" on="1"/>
        <pt x="545" y="596" on="0"/>
      </contour>
      <contour>
        <pt x="284" y="180" on="0"/>
        <pt x="284" y="121" on="0"/>
        <pt x="327" y="51" on="0"/>
        <pt x="327" y="49" on="1"/>
        <pt x="327" y="15" on="0"/>
        <pt x="294" y="7" on="1"/>
        <pt x="250" y="-3" on="0"/>
        <pt x="137" y="-3" on="1"/>
        <pt x="15" y="-3" on="1"/>
        <pt x="-53" y="-3" on="0"/>
        <pt x="-53" y="35" on="1"/>
        <pt x="-53" y="64" on="0"/>
        <pt x="85" y="124" on="0"/>
        <pt x="162" y="224" on="0"/>
        <pt x="404" y="612" on="0"/>
        <pt x="512" y="777" on="0"/>
        <pt x="702" y="1102" on="0"/>
        <pt x="834" y="1284" on="1"/>
        <pt x="904" y="1380" on="0"/>
        <pt x="962" y="1380" on="1"/>
        <pt x="997" y="1380" on="0"/>
        <pt x="1018" y="1351" on="1"/>
        <pt x="1074" y="1274" on="0"/>
        <pt x="1088" y="1181" on="1"/>
        <pt x="1092" y="1156" on="0"/>
        <pt x="1098" y="983" on="0"/>
        <pt x="1101" y="944" on="1"/>
        <pt x="1125" y="700" on="1"/>
        <pt x="1171" y="224" on="0"/>
        <pt x="1190" y="132" on="0"/>
        <pt x="1299" y="58" on="0"/>
        <pt x="1299" y="39" on="1"/>
        <pt x="1299" y="0" on="0"/>
        <pt x="858" y="0" on="0"/>
        <pt x="858" y="50" on="0"/>
        <pt x="886" y="73" on="1"/>
        <pt x="905" y="87" on="1"/>
        <pt x="924" y="99" on="1"/>
        <pt x="949" y="117" on="0"/>
        <pt x="972" y="157" on="0"/>
        <pt x="972" y="236" on="1"/>
        <pt x="972" y="455" on="0"/>
        <pt x="935" y="487" on="1"/>
        <pt x="915" y="504" on="0"/>
        <pt x="491" y="504" on="0"/>
        <pt x="440" y="453" on="1"/>
        <pt x="410" y="423" on="0"/>
      </contour>
    </TTGlyph>
    <TTGlyph name="AE" xMin="-20" yMin="1" xMax="1883" yMax="1408">
      <contour>
        <pt x="1090" y="1210" on="1"/>
        <pt x="1090" y="1224" on="1"/>
        <pt x="1090" y="1231" on="0"/>
        <pt x="1072" y="1231" on="0"/>
        <pt x="650" y="682" on="0"/>
        <pt x="650" y="663" on="1"/>
        <pt x="650" y="650" on="0"/>
        <pt x="770" y="650" on="1"/>
        <pt x="804" y="650" on="1"/>
        <pt x="812" y="651" on="1"/>
        <pt x="968" y="651" on="0"/>
        <pt x="995" y="687" on="0"/>
        <pt x="1045" y="974" on="0"/>
        <pt x="1090" y="1164" on="0"/>
      </contour>
      <contour>
        <pt x="1216" y="1000" on="0"/>
        <pt x="1216" y="853" on="0"/>
        <pt x="1309" y="787" on="0"/>
        <pt x="1407" y="787" on="0"/>
        <pt x="1460" y="806" on="1"/>
        <pt x="1498" y="823" on="1"/>
        <pt x="1558" y="850" on="0"/>
        <pt x="1568" y="850" on="1"/>
        <pt x="1637" y="850" on="0"/>
        <pt x="1637" y="642" on="0"/>
        <pt x="1581" y="578" on="1"/>
        <pt x="1551" y="556" on="1"/>
        <pt x="1527" y="556" on="0"/>
        <pt x="1415" y="664" on="0"/>
        <pt x="1347" y="664" on="1"/>
        <pt x="1224" y="664" on="0"/>
        <pt x="1170" y="605" on="1"/>
        <pt x="1146" y="579" on="0"/>
        <pt x="1081" y="362" on="0"/>
        <pt x="1081" y="162" on="0"/>
        <pt x="1148" y="93" on="0"/>
        <pt x="1247" y="93" on="1"/>
        <pt x="1427" y="93" on="0"/>
        <pt x="1602" y="150" on="0"/>
        <pt x="1687" y="214" on="1"/>
        <pt x="1747" y="259" on="0"/>
        <pt x="1764" y="259" on="1"/>
        <pt x="1764" y="259" on="0"/>
        <pt x="1765" y="259" on="1"/>
        <pt x="1772" y="259" on="0"/>
        <pt x="1772" y="252" on="1"/>
        <pt x="1772" y="227" on="0"/>
        <pt x="1718" y="88" on="0"/>
        <pt x="1615" y="1" on="0"/>
        <pt x="1427" y="1" on="1"/>
        <pt x="1371" y="2" on="1"/>
        <pt x="1258" y="2" on="1"/>
        <pt x="925" y="2" on="0"/>
        <pt x="779" y="39" on="0"/>
        <pt x="779" y="76" on="1"/>
        <pt x="779" y="82" on="0"/>
        <pt x="880" y="239" on="0"/>
        <pt x="924" y="375" on="0"/>
        <pt x="924" y="486" on="1"/>
        <pt x="924" y="516" on="0"/>
        <pt x="840" y="557" on="0"/>
        <pt x="752" y="557" on="1"/>
        <pt x="602" y="557" on="0"/>
        <pt x="508" y="469" on="1"/>
        <pt x="450" y="414" on="0"/>
        <pt x="342" y="249" on="1"/>
        <pt x="299" y="183" on="0"/>
        <pt x="299" y="132" on="1"/>
        <pt x="314" y="102" on="1"/>
        <pt x="338" y="74" on="1"/>
        <pt x="356" y="48" on="1"/>
        <pt x="356" y="18" on="0"/>
        <pt x="313" y="9" on="1"/>
        <pt x="289" y="4" on="0"/>
        <pt x="-20" y="4" on="0"/>
        <pt x="-20" y="31" on="1"/>
        <pt x="-20" y="63" on="0"/>
        <pt x="141" y="165" on="0"/>
        <pt x="268" y="316" on="0"/>
        <pt x="864" y="1093" on="1"/>
        <pt x="921" y="1167" on="0"/>
        <pt x="956" y="1290" on="0"/>
        <pt x="972" y="1357" on="0"/>
        <pt x="975" y="1362" on="1"/>
        <pt x="1004" y="1408" on="0"/>
        <pt x="1141" y="1408" on="1"/>
        <pt x="1196" y="1408" on="1"/>
        <pt x="1248" y="1406" on="1"/>
        <pt x="1326" y="1403" on="0"/>
        <pt x="1353" y="1403" on="1"/>
        <pt x="1523" y="1404" on="1"/>
        <pt x="1790" y="1404" on="0"/>
        <pt x="1883" y="1349" on="0"/>
        <pt x="1883" y="1274" on="1"/>
        <pt x="1883" y="1229" on="1"/>
        <pt x="1883" y="1166" on="0"/>
        <pt x="1850" y="1166" on="1"/>
        <pt x="1848" y="1166" on="0"/>
        <pt x="1779" y="1239" on="0"/>
        <pt x="1727" y="1261" on="1"/>
        <pt x="1601" y="1313" on="0"/>
        <pt x="1371" y="1313" on="0"/>
        <pt x="1318" y="1250" on="1"/>
        <pt x="1288" y="1214" on="0"/>
      </contour>
    </TTGlyph>
    <TTGlyph name="Aacute" xMin="-62" yMin="0" xMax="1282" yMax="1843">
      <contour>
        <pt x="635" y="616" on="1"/>
        <pt x="788" y="616" on="1"/>
        <pt x="954" y="616" on="0"/>
        <pt x="954" y="659" on="1"/>
        <pt x="954" y="675" on="1"/>
        <pt x="951" y="706" on="1"/>
        <pt x="948" y="744" on="1"/>
        <pt x="939" y="816" on="0"/>
        <pt x="939" y="842" on="1"/>
        <pt x="933" y="893" on="1"/>
        <pt x="925" y="961" on="0"/>
        <pt x="923" y="973" on="1"/>
        <pt x="920" y="1000" on="1"/>
        <pt x="915" y="1045" on="0"/>
        <pt x="915" y="1052" on="1"/>
        <pt x="915" y="1182" on="0"/>
        <pt x="883" y="1182" on="1"/>
        <pt x="880" y="1182" on="1"/>
        <pt x="786" y="1036" on="1"/>
        <pt x="545" y="661" on="0"/>
        <pt x="545" y="631" on="1"/>
        <pt x="545" y="616" on="0"/>
      </contour>
      <contour>
        <pt x="0" y="0" on="1"/>
      </contour>
      <contour>
        <pt x="988" y="1800" on="1"/>
        <pt x="1012" y="1843" on="0"/>
        <pt x="1070" y="1843" on="1"/>
        <pt x="1080" y="1843" on="1"/>
        <pt x="1157" y="1843" on="0"/>
        <pt x="1157" y="1795" on="1"/>
        <pt x="1157" y="1791" on="1"/>
        <pt x="1156" y="1786" on="1"/>
        <pt x="1156" y="1760" on="0"/>
        <pt x="846" y="1519" on="0"/>
        <pt x="795" y="1519" on="1"/>
        <pt x="785" y="1519" on="1"/>
        <pt x="762" y="1519" on="0"/>
        <pt x="762" y="1539" on="1"/>
        <pt x="762" y="1548" on="1"/>
        <pt x="762" y="1552" on="0"/>
        <pt x="913" y="1725" on="0"/>
        <pt x="981" y="1793" on="1"/>
      </contour>
      <contour>
        <pt x="917" y="527" on="0"/>
        <pt x="497" y="527" on="0"/>
        <pt x="407" y="450" on="0"/>
        <pt x="271" y="213" on="0"/>
        <pt x="271" y="146" on="0"/>
        <pt x="309" y="63" on="0"/>
        <pt x="309" y="38" on="1"/>
        <pt x="309" y="6" on="0"/>
        <pt x="84" y="6" on="1"/>
        <pt x="54" y="5" on="1"/>
        <pt x="-62" y="5" on="0"/>
        <pt x="-62" y="34" on="1"/>
        <pt x="-62" y="51" on="1"/>
        <pt x="-62" y="74" on="0"/>
        <pt x="78" y="128" on="0"/>
        <pt x="112" y="171" on="1"/>
        <pt x="116" y="176" on="0"/>
        <pt x="318" y="485" on="0"/>
        <pt x="369" y="566" on="0"/>
        <pt x="386" y="592" on="1"/>
        <pt x="403" y="618" on="1"/>
        <pt x="421" y="644" on="0"/>
        <pt x="468" y="719" on="0"/>
        <pt x="506" y="774" on="0"/>
        <pt x="536" y="823" on="0"/>
        <pt x="585" y="895" on="0"/>
        <pt x="637" y="979" on="0"/>
        <pt x="848" y="1302" on="0"/>
        <pt x="858" y="1315" on="1"/>
        <pt x="925" y="1404" on="0"/>
        <pt x="986" y="1404" on="1"/>
        <pt x="1005" y="1404" on="0"/>
        <pt x="1022" y="1382" on="1"/>
        <pt x="1061" y="1332" on="0"/>
        <pt x="1088" y="1153" on="0"/>
        <pt x="1147" y="236" on="0"/>
        <pt x="1174" y="132" on="0"/>
        <pt x="1206" y="114" on="1"/>
        <pt x="1282" y="72" on="0"/>
        <pt x="1282" y="56" on="1"/>
        <pt x="1282" y="9" on="0"/>
        <pt x="1225" y="9" on="1"/>
        <pt x="1038" y="9" on="1"/>
        <pt x="838" y="9" on="0"/>
        <pt x="838" y="29" on="1"/>
        <pt x="838" y="64" on="0"/>
        <pt x="973" y="149" on="0"/>
        <pt x="973" y="214" on="1"/>
        <pt x="973" y="460" on="0"/>
        <pt x="937" y="503" on="1"/>
      </contour>
    </TTGlyph>
    <TTGlyph name="Acircumflex" xMin="-65" yMin="0" xMax="1279" yMax="1838">
      <contour>
        <pt x="616" y="611" on="1"/>
        <pt x="803" y="611" on="1"/>
        <pt x="811" y="612" on="1"/>
        <pt x="878" y="615" on="1"/>
        <pt x="886" y="616" on="0"/>
        <pt x="894" y="616" on="1"/>
        <pt x="951" y="616" on="0"/>
        <pt x="951" y="647" on="1"/>
        <pt x="951" y="670" on="1"/>
        <pt x="950" y="677" on="1"/>
        <pt x="948" y="708" on="1"/>
        <pt x="945" y="732" on="0"/>
        <pt x="942" y="771" on="0"/>
        <pt x="939" y="803" on="0"/>
        <pt x="935" y="844" on="0"/>
        <pt x="935" y="854" on="1"/>
        <pt x="910" y="1072" on="1"/>
        <pt x="910" y="1176" on="0"/>
        <pt x="881" y="1176" on="1"/>
        <pt x="877" y="1176" on="1"/>
        <pt x="788" y="1038" on="1"/>
        <pt x="542" y="655" on="0"/>
        <pt x="542" y="626" on="1"/>
        <pt x="542" y="611" on="0"/>
      </contour>
      <contour>
        <pt x="1042" y="1838" on="1"/>
        <pt x="1063" y="1838" on="1"/>
        <pt x="1093" y="1838" on="0"/>
        <pt x="1132" y="1765" on="1"/>
        <pt x="1155" y="1723" on="0"/>
        <pt x="1255" y="1560" on="0"/>
        <pt x="1255" y="1554" on="1"/>
        <pt x="1255" y="1522" on="0"/>
        <pt x="1192" y="1522" on="0"/>
        <pt x="1037" y="1691" on="0"/>
        <pt x="1013" y="1691" on="1"/>
        <pt x="1007" y="1691" on="0"/>
        <pt x="765" y="1524" on="0"/>
        <pt x="718" y="1524" on="0"/>
        <pt x="718" y="1545" on="1"/>
        <pt x="718" y="1548" on="0"/>
        <pt x="1008" y="1838" on="0"/>
      </contour>
      <contour>
        <pt x="269" y="151" on="1"/>
        <pt x="269" y="138" on="0"/>
        <pt x="307" y="60" on="0"/>
        <pt x="307" y="33" on="1"/>
        <pt x="307" y="1" on="0"/>
        <pt x="113" y="1" on="1"/>
        <pt x="51" y="0" on="1"/>
        <pt x="-65" y="0" on="0"/>
        <pt x="-65" y="45" on="1"/>
        <pt x="-65" y="68" on="0"/>
        <pt x="77" y="124" on="0"/>
        <pt x="101" y="156" on="1"/>
        <pt x="163" y="237" on="0"/>
        <pt x="380" y="581" on="0"/>
        <pt x="494" y="754" on="0"/>
        <pt x="594" y="910" on="0"/>
        <pt x="638" y="980" on="0"/>
        <pt x="829" y="1273" on="0"/>
        <pt x="838" y="1285" on="1"/>
        <pt x="918" y="1399" on="0"/>
        <pt x="984" y="1399" on="1"/>
        <pt x="1002" y="1399" on="0"/>
        <pt x="1030" y="1363" on="1"/>
        <pt x="1071" y="1310" on="0"/>
        <pt x="1085" y="1106" on="1"/>
        <pt x="1089" y="1047" on="1"/>
        <pt x="1092" y="989" on="0"/>
        <pt x="1095" y="958" on="0"/>
        <pt x="1102" y="867" on="1"/>
        <pt x="1114" y="715" on="1"/>
        <pt x="1158" y="176" on="0"/>
        <pt x="1170" y="129" on="0"/>
        <pt x="1279" y="64" on="0"/>
        <pt x="1279" y="51" on="1"/>
        <pt x="1279" y="32" on="1"/>
        <pt x="1279" y="4" on="0"/>
        <pt x="836" y="4" on="0"/>
        <pt x="836" y="42" on="1"/>
        <pt x="836" y="60" on="0"/>
        <pt x="971" y="142" on="0"/>
        <pt x="971" y="209" on="1"/>
        <pt x="971" y="455" on="0"/>
        <pt x="934" y="497" on="1"/>
        <pt x="912" y="522" on="0"/>
        <pt x="496" y="522" on="0"/>
        <pt x="444" y="477" on="1"/>
        <pt x="407" y="445" on="0"/>
        <pt x="269" y="212" on="0"/>
      </contour>
    </TTGlyph>
    <TTGlyph name="Adieresis" xMin="-11" yMin="61" xMax="1283" yMax="1771">
      <contour>
        <pt x="937" y="647" on="1"/>
        <pt x="937" y="670" on="1"/>
        <pt x="936" y="678" on="1"/>
        <pt x="934" y="709" on="1"/>
        <pt x="932" y="723" on="0"/>
        <pt x="930" y="748" on="0"/>
        <pt x="927" y="780" on="0"/>
        <pt x="924" y="812" on="0"/>
        <pt x="924" y="821" on="1"/>
        <pt x="919" y="871" on="1"/>
        <pt x="919" y="876" on="0"/>
        <pt x="914" y="906" on="1"/>
        <pt x="907" y="969" on="1"/>
        <pt x="900" y="1011" on="0"/>
        <pt x="900" y="1030" on="1"/>
        <pt x="894" y="1089" on="1"/>
        <pt x="894" y="1177" on="0"/>
        <pt x="866" y="1177" on="1"/>
        <pt x="863" y="1177" on="1"/>
        <pt x="858" y="1177" on="0"/>
        <pt x="774" y="1038" on="0"/>
        <pt x="765" y="1024" on="1"/>
        <pt x="528" y="655" on="0"/>
        <pt x="528" y="627" on="1"/>
        <pt x="528" y="611" on="0"/>
        <pt x="643" y="611" on="1"/>
        <pt x="755" y="611" on="1"/>
        <pt x="763" y="612" on="1"/>
        <pt x="839" y="614" on="1"/>
        <pt x="872" y="616" on="1"/>
        <pt x="937" y="616" on="0"/>
      </contour>
      <contour>
        <pt x="821" y="1771" on="1"/>
        <pt x="852" y="1771" on="0"/>
        <pt x="904" y="1719" on="0"/>
        <pt x="904" y="1690" on="1"/>
        <pt x="904" y="1668" on="1"/>
        <pt x="899" y="1643" on="1"/>
        <pt x="899" y="1628" on="0"/>
        <pt x="842" y="1571" on="0"/>
        <pt x="815" y="1571" on="1"/>
        <pt x="787" y="1571" on="1"/>
        <pt x="768" y="1575" on="1"/>
        <pt x="712" y="1575" on="0"/>
        <pt x="712" y="1639" on="1"/>
        <pt x="710" y="1645" on="0"/>
        <pt x="710" y="1648" on="1"/>
        <pt x="709" y="1661" on="1"/>
        <pt x="709" y="1667" on="1"/>
        <pt x="713" y="1692" on="1"/>
        <pt x="713" y="1718" on="0"/>
        <pt x="778" y="1769" on="0"/>
        <pt x="796" y="1769" on="1"/>
        <pt x="808" y="1771" on="1"/>
      </contour>
      <contour>
        <pt x="1182" y="1528" on="1"/>
        <pt x="1170" y="1528" on="1"/>
        <pt x="1161" y="1531" on="0"/>
        <pt x="1158" y="1531" on="1"/>
        <pt x="1149" y="1534" on="1"/>
        <pt x="1136" y="1534" on="1"/>
        <pt x="1131" y="1535" on="1"/>
        <pt x="1122" y="1535" on="1"/>
        <pt x="1114" y="1536" on="1"/>
        <pt x="1105" y="1536" on="1"/>
        <pt x="1046" y="1536" on="0"/>
        <pt x="1046" y="1552" on="1"/>
        <pt x="1023" y="1581" on="1"/>
        <pt x="1006" y="1602" on="0"/>
        <pt x="1006" y="1618" on="1"/>
        <pt x="1006" y="1659" on="0"/>
        <pt x="1135" y="1751" on="0"/>
        <pt x="1187" y="1751" on="1"/>
        <pt x="1202" y="1751" on="1"/>
        <pt x="1246" y="1751" on="0"/>
        <pt x="1246" y="1690" on="1"/>
        <pt x="1248" y="1682" on="0"/>
        <pt x="1248" y="1678" on="1"/>
        <pt x="1250" y="1661" on="1"/>
        <pt x="1250" y="1640" on="1"/>
        <pt x="1246" y="1596" on="1"/>
        <pt x="1246" y="1579" on="0"/>
        <pt x="1185" y="1528" on="0"/>
      </contour>
      <contour>
        <pt x="921" y="559" on="0"/>
        <pt x="515" y="559" on="0"/>
        <pt x="430" y="488" on="0"/>
        <pt x="300" y="256" on="0"/>
        <pt x="300" y="187" on="0"/>
        <pt x="339" y="114" on="0"/>
        <pt x="339" y="93" on="1"/>
        <pt x="339" y="61" on="0"/>
        <pt x="187" y="61" on="1"/>
        <pt x="98" y="61" on="1"/>
        <pt x="-11" y="61" on="0"/>
        <pt x="-11" y="90" on="1"/>
        <pt x="-11" y="106" on="1"/>
        <pt x="-11" y="125" on="0"/>
        <pt x="120" y="183" on="0"/>
        <pt x="162" y="227" on="0"/>
        <pt x="403" y="618" on="0"/>
        <pt x="538" y="829" on="0"/>
        <pt x="761" y="1189" on="0"/>
        <pt x="913" y="1417" on="0"/>
        <pt x="980" y="1417" on="1"/>
        <pt x="1033" y="1417" on="0"/>
        <pt x="1063" y="1244" on="1"/>
        <pt x="1080" y="1146" on="0"/>
        <pt x="1151" y="293" on="0"/>
        <pt x="1170" y="222" on="1"/>
        <pt x="1180" y="183" on="0"/>
        <pt x="1283" y="130" on="0"/>
        <pt x="1283" y="93" on="1"/>
        <pt x="1283" y="64" on="0"/>
        <pt x="1109" y="64" on="1"/>
        <pt x="1022" y="64" on="1"/>
        <pt x="994" y="65" on="0"/>
        <pt x="860" y="65" on="0"/>
        <pt x="860" y="99" on="1"/>
        <pt x="860" y="116" on="0"/>
        <pt x="984" y="197" on="0"/>
        <pt x="984" y="261" on="1"/>
        <pt x="984" y="490" on="0"/>
        <pt x="942" y="536" on="1"/>
      </contour>
    </TTGlyph>
    <TTGlyph name="Agrave" xMin="-62" yMin="5" xMax="1282" yMax="1844">
      <contour>
        <pt x="635" y="616" on="1"/>
        <pt x="788" y="616" on="1"/>
        <pt x="954" y="616" on="0"/>
        <pt x="954" y="659" on="1"/>
        <pt x="954" y="675" on="1"/>
        <pt x="951" y="706" on="1"/>
        <pt x="948" y="744" on="1"/>
        <pt x="939" y="816" on="0"/>
        <pt x="939" y="842" on="1"/>
        <pt x="933" y="893" on="1"/>
        <pt x="925" y="961" on="0"/>
        <pt x="923" y="973" on="1"/>
        <pt x="920" y="1000" on="1"/>
        <pt x="915" y="1045" on="0"/>
        <pt x="915" y="1052" on="1"/>
        <pt x="915" y="1182" on="0"/>
        <pt x="883" y="1182" on="1"/>
        <pt x="880" y="1182" on="1"/>
        <pt x="786" y="1036" on="1"/>
        <pt x="545" y="661" on="0"/>
        <pt x="545" y="631" on="1"/>
        <pt x="545" y="616" on="0"/>
      </contour>
      <contour>
        <pt x="708" y="1776" on="1"/>
        <pt x="708" y="1794" on="1"/>
        <pt x="708" y="1844" on="0"/>
        <pt x="786" y="1844" on="1"/>
        <pt x="806" y="1844" on="1"/>
        <pt x="833" y="1844" on="0"/>
        <pt x="1061" y="1584" on="0"/>
        <pt x="1061" y="1552" on="1"/>
        <pt x="1061" y="1547" on="1"/>
        <pt x="1060" y="1542" on="1"/>
        <pt x="1060" y="1520" on="0"/>
        <pt x="1039" y="1520" on="1"/>
        <pt x="1029" y="1520" on="1"/>
        <pt x="993" y="1520" on="0"/>
        <pt x="876" y="1623" on="0"/>
        <pt x="815" y="1663" on="1"/>
        <pt x="708" y="1734" on="0"/>
      </contour>
      <contour>
        <pt x="917" y="527" on="0"/>
        <pt x="497" y="527" on="0"/>
        <pt x="407" y="450" on="0"/>
        <pt x="271" y="213" on="0"/>
        <pt x="271" y="146" on="0"/>
        <pt x="309" y="63" on="0"/>
        <pt x="309" y="38" on="1"/>
        <pt x="309" y="6" on="0"/>
        <pt x="84" y="6" on="1"/>
        <pt x="54" y="5" on="1"/>
        <pt x="-62" y="5" on="0"/>
        <pt x="-62" y="34" on="1"/>
        <pt x="-62" y="51" on="1"/>
        <pt x="-62" y="74" on="0"/>
        <pt x="78" y="128" on="0"/>
        <pt x="112" y="171" on="1"/>
        <pt x="116" y="176" on="0"/>
        <pt x="318" y="485" on="0"/>
        <pt x="369" y="566" on="0"/>
        <pt x="386" y="592" on="1"/>
        <pt x="403" y="618" on="1"/>
        <pt x="421" y="644" on="0"/>
        <pt x="468" y="719" on="0"/>
        <pt x="506" y="774" on="0"/>
        <pt x="536" y="823" on="0"/>
        <pt x="585" y="895" on="0"/>
        <pt x="637" y="979" on="0"/>
        <pt x="848" y="1302" on="0"/>
        <pt x="858" y="1315" on="1"/>
        <pt x="925" y="1404" on="0"/>
        <pt x="986" y="1404" on="1"/>
        <pt x="1005" y="1404" on="0"/>
        <pt x="1022" y="1382" on="1"/>
        <pt x="1061" y="1332" on="0"/>
        <pt x="1088" y="1153" on="0"/>
        <pt x="1147" y="236" on="0"/>
        <pt x="1174" y="132" on="0"/>
        <pt x="1206" y="114" on="1"/>
        <pt x="1282" y="72" on="0"/>
        <pt x="1282" y="56" on="1"/>
        <pt x="1282" y="9" on="0"/>
        <pt x="1225" y="9" on="1"/>
        <pt x="1038" y="9" on="1"/>
        <pt x="838" y="9" on="0"/>
        <pt x="838" y="29" on="1"/>
        <pt x="838" y="64" on="0"/>
        <pt x="973" y="149" on="0"/>
        <pt x="973" y="214" on="1"/>
        <pt x="973" y="460" on="0"/>
        <pt x="937" y="503" on="1"/>
      </contour>
    </TTGlyph>
    <TTGlyph name="Aring" xMin="-48" yMin="5" xMax="1296" yMax="1868">
      <contour>
        <pt x="1010" y="1572" on="1"/>
        <pt x="1028" y="1572" on="1"/>
        <pt x="1062" y="1572" on="0"/>
        <pt x="1130" y="1640" on="0"/>
        <pt x="1130" y="1683" on="1"/>
        <pt x="1130" y="1708" on="1"/>
        <pt x="1130" y="1742" on="0"/>
        <pt x="1072" y="1800" on="0"/>
        <pt x="1039" y="1800" on="1"/>
        <pt x="1025" y="1800" on="1"/>
        <pt x="988" y="1800" on="0"/>
        <pt x="922" y="1734" on="0"/>
        <pt x="922" y="1706" on="1"/>
        <pt x="920" y="1700" on="1"/>
        <pt x="920" y="1693" on="1"/>
        <pt x="919" y="1686" on="1"/>
        <pt x="919" y="1675" on="1"/>
        <pt x="920" y="1671" on="1"/>
        <pt x="920" y="1627" on="0"/>
        <pt x="975" y="1572" on="0"/>
      </contour>
      <contour>
        <pt x="675" y="621" on="1"/>
        <pt x="794" y="621" on="1"/>
        <pt x="977" y="621" on="0"/>
        <pt x="977" y="664" on="1"/>
        <pt x="977" y="680" on="1"/>
        <pt x="976" y="688" on="1"/>
        <pt x="973" y="733" on="1"/>
        <pt x="970" y="757" on="0"/>
        <pt x="968" y="788" on="0"/>
        <pt x="966" y="804" on="1"/>
        <pt x="962" y="852" on="0"/>
        <pt x="962" y="862" on="1"/>
        <pt x="953" y="941" on="1"/>
        <pt x="940" y="1019" on="0"/>
        <pt x="940" y="1055" on="1"/>
        <pt x="940" y="1182" on="0"/>
        <pt x="906" y="1182" on="1"/>
        <pt x="903" y="1182" on="1"/>
        <pt x="895" y="1182" on="0"/>
        <pt x="809" y="1039" on="1"/>
        <pt x="568" y="637" on="1"/>
        <pt x="568" y="621" on="0"/>
      </contour>
      <contour>
        <pt x="840" y="1660" on="1"/>
        <pt x="840" y="1678" on="1"/>
        <pt x="840" y="1744" on="0"/>
        <pt x="950" y="1868" on="0"/>
        <pt x="1025" y="1868" on="1"/>
        <pt x="1055" y="1868" on="1"/>
        <pt x="1067" y="1866" on="0"/>
        <pt x="1073" y="1866" on="1"/>
        <pt x="1121" y="1866" on="0"/>
        <pt x="1210" y="1766" on="0"/>
        <pt x="1210" y="1712" on="1"/>
        <pt x="1210" y="1694" on="1"/>
        <pt x="1210" y="1607" on="0"/>
        <pt x="1077" y="1504" on="0"/>
        <pt x="1018" y="1504" on="1"/>
        <pt x="1000" y="1504" on="1"/>
        <pt x="940" y="1504" on="0"/>
        <pt x="840" y="1592" on="0"/>
      </contour>
      <contour>
        <pt x="287" y="158" on="1"/>
        <pt x="287" y="146" on="0"/>
        <pt x="323" y="67" on="0"/>
        <pt x="323" y="5" on="0"/>
        <pt x="165" y="5" on="1"/>
        <pt x="42" y="5" on="1"/>
        <pt x="-48" y="5" on="0"/>
        <pt x="-48" y="48" on="1"/>
        <pt x="-48" y="73" on="0"/>
        <pt x="93" y="129" on="0"/>
        <pt x="169" y="224" on="0"/>
        <pt x="353" y="513" on="0"/>
        <pt x="490" y="719" on="1"/>
        <pt x="524" y="771" on="1"/>
        <pt x="541" y="797" on="0"/>
        <pt x="614" y="908" on="0"/>
        <pt x="753" y="1130" on="0"/>
        <pt x="863" y="1287" on="1"/>
        <pt x="944" y="1402" on="0"/>
        <pt x="1008" y="1402" on="1"/>
        <pt x="1025" y="1402" on="0"/>
        <pt x="1044" y="1380" on="1"/>
        <pt x="1086" y="1333" on="0"/>
        <pt x="1101" y="1232" on="1"/>
        <pt x="1105" y="1204" on="0"/>
        <pt x="1171" y="205" on="0"/>
        <pt x="1191" y="135" on="0"/>
        <pt x="1224" y="115" on="1"/>
        <pt x="1296" y="71" on="0"/>
        <pt x="1296" y="53" on="1"/>
        <pt x="1296" y="9" on="0"/>
        <pt x="1113" y="9" on="1"/>
        <pt x="1021" y="9" on="1"/>
        <pt x="991" y="10" on="0"/>
        <pt x="965" y="10" on="1"/>
        <pt x="857" y="10" on="0"/>
        <pt x="857" y="30" on="1"/>
        <pt x="857" y="61" on="0"/>
        <pt x="935" y="112" on="1"/>
        <pt x="992" y="150" on="0"/>
        <pt x="992" y="221" on="1"/>
        <pt x="992" y="467" on="0"/>
        <pt x="956" y="508" on="1"/>
        <pt x="933" y="534" on="0"/>
        <pt x="520" y="534" on="0"/>
        <pt x="424" y="452" on="0"/>
        <pt x="287" y="213" on="0"/>
      </contour>
    </TTGlyph>
    <TTGlyph name="Atilde" xMin="-67" yMin="2" xMax="1316" yMax="1769">
      <contour>
        <pt x="949" y="679" on="1"/>
        <pt x="933" y="807" on="0"/>
        <pt x="933" y="855" on="1"/>
        <pt x="926" y="916" on="1"/>
        <pt x="923" y="934" on="1"/>
        <pt x="920" y="961" on="1"/>
        <pt x="908" y="1069" on="0"/>
        <pt x="908" y="1073" on="1"/>
        <pt x="908" y="1178" on="0"/>
        <pt x="879" y="1178" on="1"/>
        <pt x="875" y="1178" on="1"/>
        <pt x="869" y="1178" on="0"/>
        <pt x="541" y="631" on="0"/>
        <pt x="541" y="628" on="1"/>
        <pt x="541" y="623" on="1"/>
        <pt x="541" y="612" on="0"/>
        <pt x="647" y="612" on="1"/>
        <pt x="767" y="612" on="1"/>
        <pt x="949" y="612" on="0"/>
        <pt x="949" y="648" on="1"/>
      </contour>
      <contour>
        <pt x="882" y="1769" on="1"/>
        <pt x="905" y="1769" on="1"/>
        <pt x="950" y="1769" on="0"/>
        <pt x="1095" y="1682" on="0"/>
        <pt x="1194" y="1682" on="0"/>
        <pt x="1286" y="1766" on="0"/>
        <pt x="1292" y="1766" on="1"/>
        <pt x="1316" y="1766" on="0"/>
        <pt x="1316" y="1741" on="1"/>
        <pt x="1316" y="1689" on="0"/>
        <pt x="1180" y="1564" on="0"/>
        <pt x="1119" y="1564" on="1"/>
        <pt x="1089" y="1564" on="1"/>
        <pt x="1040" y="1564" on="0"/>
        <pt x="894" y="1652" on="0"/>
        <pt x="798" y="1652" on="0"/>
        <pt x="700" y="1570" on="0"/>
        <pt x="699" y="1570" on="1"/>
        <pt x="675" y="1570" on="0"/>
        <pt x="675" y="1588" on="1"/>
        <pt x="675" y="1602" on="1"/>
        <pt x="675" y="1655" on="0"/>
        <pt x="766" y="1725" on="1"/>
        <pt x="823" y="1769" on="0"/>
      </contour>
      <contour>
        <pt x="267" y="153" on="1"/>
        <pt x="267" y="139" on="0"/>
        <pt x="305" y="61" on="0"/>
        <pt x="305" y="34" on="1"/>
        <pt x="305" y="2" on="0"/>
        <pt x="80" y="2" on="1"/>
        <pt x="19" y="2" on="1"/>
        <pt x="-67" y="2" on="0"/>
        <pt x="-67" y="47" on="1"/>
        <pt x="-67" y="69" on="0"/>
        <pt x="74" y="125" on="0"/>
        <pt x="107" y="168" on="1"/>
        <pt x="110" y="171" on="0"/>
        <pt x="518" y="796" on="0"/>
        <pt x="552" y="849" on="1"/>
        <pt x="569" y="875" on="1"/>
        <pt x="587" y="902" on="0"/>
        <pt x="649" y="1002" on="0"/>
        <pt x="827" y="1275" on="0"/>
        <pt x="836" y="1287" on="1"/>
        <pt x="916" y="1401" on="0"/>
        <pt x="982" y="1401" on="1"/>
        <pt x="1001" y="1401" on="0"/>
        <pt x="1018" y="1379" on="1"/>
        <pt x="1056" y="1330" on="0"/>
        <pt x="1071" y="1228" on="1"/>
        <pt x="1071" y="1227" on="0"/>
        <pt x="1091" y="985" on="0"/>
        <pt x="1095" y="930" on="1"/>
        <pt x="1105" y="808" on="1"/>
        <pt x="1107" y="778" on="1"/>
        <pt x="1107" y="773" on="0"/>
        <pt x="1156" y="179" on="0"/>
        <pt x="1159" y="167" on="1"/>
        <pt x="1168" y="130" on="0"/>
        <pt x="1202" y="111" on="1"/>
        <pt x="1277" y="68" on="0"/>
        <pt x="1277" y="52" on="1"/>
        <pt x="1277" y="34" on="1"/>
        <pt x="1277" y="5" on="0"/>
        <pt x="834" y="5" on="0"/>
        <pt x="834" y="44" on="1"/>
        <pt x="834" y="61" on="0"/>
        <pt x="969" y="145" on="0"/>
        <pt x="969" y="211" on="1"/>
        <pt x="969" y="456" on="0"/>
        <pt x="932" y="499" on="1"/>
        <pt x="911" y="523" on="0"/>
        <pt x="493" y="523" on="0"/>
        <pt x="442" y="479" on="1"/>
        <pt x="406" y="448" on="0"/>
        <pt x="267" y="213" on="0"/>
      </contour>
    </TTGlyph>
    <TTGlyph name="B" xMin="16" yMin="-7" xMax="1210" yMax="1390">
      <contour>
        <pt x="551" y="764" on="1"/>
        <pt x="630" y="764" on="1"/>
        <pt x="818" y="764" on="0"/>
        <pt x="906" y="833" on="1"/>
        <pt x="1025" y="927" on="0"/>
        <pt x="1025" y="1062" on="1"/>
        <pt x="1025" y="1090" on="1"/>
        <pt x="1025" y="1190" on="0"/>
        <pt x="876" y="1304" on="0"/>
        <pt x="753" y="1304" on="1"/>
        <pt x="734" y="1304" on="1"/>
        <pt x="622" y="1304" on="0"/>
        <pt x="582" y="1220" on="0"/>
        <pt x="550" y="1038" on="0"/>
        <pt x="547" y="1024" on="1"/>
        <pt x="539" y="983" on="1"/>
        <pt x="535" y="965" on="1"/>
        <pt x="529" y="929" on="1"/>
        <pt x="525" y="911" on="1"/>
        <pt x="522" y="894" on="1"/>
        <pt x="516" y="867" on="1"/>
        <pt x="513" y="848" on="0"/>
        <pt x="505" y="815" on="0"/>
        <pt x="505" y="806" on="1"/>
        <pt x="505" y="782" on="1"/>
        <pt x="505" y="764" on="0"/>
      </contour>
      <contour>
        <pt x="632" y="684" on="1"/>
        <pt x="580" y="684" on="1"/>
        <pt x="491" y="684" on="0"/>
        <pt x="450" y="591" on="0"/>
        <pt x="419" y="384" on="0"/>
        <pt x="374" y="159" on="0"/>
        <pt x="374" y="146" on="1"/>
        <pt x="374" y="127" on="1"/>
        <pt x="374" y="80" on="0"/>
        <pt x="500" y="80" on="1"/>
        <pt x="585" y="80" on="1"/>
        <pt x="607" y="82" on="0"/>
        <pt x="617" y="82" on="1"/>
        <pt x="757" y="82" on="0"/>
        <pt x="865" y="176" on="1"/>
        <pt x="909" y="215" on="0"/>
        <pt x="967" y="344" on="0"/>
        <pt x="967" y="410" on="1"/>
        <pt x="967" y="431" on="1"/>
        <pt x="967" y="545" on="0"/>
        <pt x="794" y="684" on="0"/>
      </contour>
      <contour>
        <pt x="391" y="1248" on="1"/>
        <pt x="391" y="1283" on="0"/>
        <pt x="351" y="1302" on="1"/>
        <pt x="279" y="1337" on="0"/>
        <pt x="279" y="1345" on="1"/>
        <pt x="279" y="1376" on="0"/>
        <pt x="390" y="1390" on="0"/>
        <pt x="608" y="1390" on="1"/>
        <pt x="764" y="1390" on="1"/>
        <pt x="1080" y="1390" on="0"/>
        <pt x="1174" y="1233" on="1"/>
        <pt x="1210" y="1173" on="0"/>
        <pt x="1210" y="1078" on="1"/>
        <pt x="1210" y="910" on="0"/>
        <pt x="1024" y="786" on="1"/>
        <pt x="942" y="731" on="0"/>
        <pt x="941" y="729" on="1"/>
        <pt x="941" y="722" on="0"/>
        <pt x="959" y="711" on="1"/>
        <pt x="977" y="700" on="1"/>
        <pt x="1070" y="645" on="0"/>
        <pt x="1158" y="516" on="0"/>
        <pt x="1158" y="414" on="1"/>
        <pt x="1158" y="207" on="0"/>
        <pt x="972" y="88" on="1"/>
        <pt x="895" y="38" on="0"/>
        <pt x="689" y="-7" on="0"/>
        <pt x="522" y="-7" on="1"/>
        <pt x="469" y="-7" on="1"/>
        <pt x="443" y="-6" on="1"/>
        <pt x="313" y="-6" on="1"/>
        <pt x="16" y="-6" on="0"/>
        <pt x="16" y="23" on="1"/>
        <pt x="16" y="46" on="0"/>
        <pt x="167" y="108" on="0"/>
        <pt x="189" y="174" on="1"/>
        <pt x="202" y="212" on="0"/>
        <pt x="306" y="743" on="0"/>
        <pt x="314" y="782" on="1"/>
        <pt x="391" y="1146" on="0"/>
      </contour>
    </TTGlyph>
    <TTGlyph name="C" xMin="132" yMin="-18" xMax="1351" yMax="1402">
      <contour>
        <pt x="932" y="1402" on="1"/>
        <pt x="996" y="1402" on="0"/>
        <pt x="1200" y="1356" on="0"/>
        <pt x="1309" y="1338" on="0"/>
        <pt x="1320" y="1332" on="1"/>
        <pt x="1351" y="1316" on="0"/>
        <pt x="1351" y="1231" on="1"/>
        <pt x="1351" y="1081" on="0"/>
        <pt x="1310" y="1036" on="1"/>
        <pt x="1294" y="1026" on="1"/>
        <pt x="1263" y="1026" on="0"/>
        <pt x="1224" y="1112" on="1"/>
        <pt x="1135" y="1308" on="0"/>
        <pt x="907" y="1308" on="1"/>
        <pt x="787" y="1308" on="0"/>
        <pt x="659" y="1227" on="1"/>
        <pt x="575" y="1174" on="0"/>
        <pt x="418" y="966" on="0"/>
        <pt x="332" y="691" on="0"/>
        <pt x="332" y="570" on="1"/>
        <pt x="332" y="339" on="0"/>
        <pt x="543" y="93" on="0"/>
        <pt x="728" y="93" on="1"/>
        <pt x="886" y="93" on="0"/>
        <pt x="1071" y="248" on="1"/>
        <pt x="1151" y="315" on="0"/>
        <pt x="1162" y="315" on="1"/>
        <pt x="1197" y="315" on="0"/>
        <pt x="1197" y="240" on="0"/>
        <pt x="1099" y="74" on="0"/>
        <pt x="1025" y="36" on="0"/>
        <pt x="761" y="-18" on="0"/>
        <pt x="704" y="-18" on="1"/>
        <pt x="670" y="-18" on="1"/>
        <pt x="435" y="-18" on="0"/>
        <pt x="132" y="298" on="0"/>
        <pt x="132" y="535" on="1"/>
        <pt x="132" y="891" on="0"/>
        <pt x="368" y="1153" on="1"/>
        <pt x="474" y="1270" on="0"/>
        <pt x="771" y="1402" on="0"/>
      </contour>
    </TTGlyph>
    <TTGlyph name="Ccedilla" xMin="92" yMin="-419" xMax="1401" yMax="1413">
      <contour>
        <pt x="92" y="561" on="1"/>
        <pt x="92" y="597" on="1"/>
        <pt x="92" y="750" on="0"/>
        <pt x="159" y="912" on="1"/>
        <pt x="292" y="1233" on="0"/>
        <pt x="603" y="1355" on="1"/>
        <pt x="751" y="1413" on="0"/>
        <pt x="906" y="1413" on="1"/>
        <pt x="940" y="1413" on="1"/>
        <pt x="1047" y="1413" on="0"/>
        <pt x="1319" y="1330" on="0"/>
        <pt x="1341" y="1316" on="0"/>
        <pt x="1401" y="1160" on="0"/>
        <pt x="1401" y="1138" on="1"/>
        <pt x="1401" y="1046" on="0"/>
        <pt x="1350" y="1046" on="1"/>
        <pt x="1345" y="1046" on="0"/>
        <pt x="1275" y="1141" on="1"/>
        <pt x="1241" y="1187" on="0"/>
        <pt x="1035" y="1311" on="0"/>
        <pt x="900" y="1311" on="1"/>
        <pt x="625" y="1311" on="0"/>
        <pt x="283" y="892" on="0"/>
        <pt x="283" y="575" on="1"/>
        <pt x="283" y="340" on="0"/>
        <pt x="424" y="195" on="1"/>
        <pt x="546" y="69" on="0"/>
        <pt x="754" y="69" on="1"/>
        <pt x="864" y="69" on="0"/>
        <pt x="967" y="113" on="1"/>
        <pt x="1018" y="135" on="0"/>
        <pt x="1103" y="208" on="1"/>
        <pt x="1152" y="247" on="1"/>
        <pt x="1174" y="268" on="1"/>
        <pt x="1213" y="306" on="0"/>
        <pt x="1220" y="309" on="1"/>
        <pt x="1254" y="323" on="0"/>
        <pt x="1254" y="255" on="0"/>
        <pt x="1147" y="65" on="0"/>
        <pt x="1113" y="47" on="1"/>
        <pt x="950" y="-37" on="0"/>
        <pt x="737" y="-37" on="1"/>
        <pt x="668" y="-37" on="1"/>
        <pt x="666" y="-37" on="0"/>
        <pt x="663" y="-37" on="1"/>
        <pt x="553" y="-37" on="0"/>
        <pt x="448" y="8" on="1"/>
        <pt x="222" y="103" on="0"/>
        <pt x="136" y="320" on="1"/>
        <pt x="92" y="433" on="0"/>
      </contour>
      <contour>
        <pt x="786" y="-211" on="1"/>
        <pt x="786" y="-229" on="1"/>
        <pt x="786" y="-297" on="0"/>
        <pt x="649" y="-419" on="0"/>
        <pt x="554" y="-419" on="1"/>
        <pt x="537" y="-419" on="1"/>
        <pt x="504" y="-419" on="0"/>
        <pt x="504" y="-407" on="1"/>
        <pt x="504" y="-398" on="1"/>
        <pt x="504" y="-381" on="0"/>
        <pt x="588" y="-334" on="1"/>
        <pt x="650" y="-300" on="0"/>
        <pt x="650" y="-237" on="1"/>
        <pt x="650" y="-218" on="0"/>
        <pt x="626" y="-190" on="1"/>
        <pt x="592" y="-150" on="1"/>
        <pt x="592" y="-129" on="0"/>
        <pt x="647" y="-50" on="0"/>
        <pt x="661" y="-50" on="1"/>
        <pt x="671" y="-48" on="1"/>
        <pt x="687" y="-48" on="1"/>
        <pt x="703" y="-48" on="0"/>
        <pt x="703" y="-77" on="1"/>
        <pt x="703" y="-87" on="0"/>
        <pt x="786" y="-170" on="0"/>
      </contour>
    </TTGlyph>
    <TTGlyph name="D" xMin="49" yMin="-4" xMax="1440" yMax="1394">
      <contour>
        <pt x="804" y="1305" on="1"/>
        <pt x="769" y="1305" on="1"/>
        <pt x="632" y="1305" on="0"/>
        <pt x="608" y="1235" on="1"/>
        <pt x="607" y="1233" on="0"/>
        <pt x="392" y="187" on="0"/>
        <pt x="392" y="105" on="0"/>
        <pt x="445" y="85" on="0"/>
        <pt x="520" y="85" on="1"/>
        <pt x="590" y="85" on="1"/>
        <pt x="867" y="85" on="0"/>
        <pt x="1055" y="297" on="1"/>
        <pt x="1147" y="401" on="0"/>
        <pt x="1241" y="683" on="0"/>
        <pt x="1241" y="810" on="1"/>
        <pt x="1241" y="828" on="1"/>
        <pt x="1239" y="862" on="0"/>
        <pt x="1239" y="880" on="1"/>
        <pt x="1238" y="966" on="0"/>
        <pt x="1204" y="1050" on="1"/>
        <pt x="1139" y="1210" on="0"/>
        <pt x="992" y="1269" on="1"/>
        <pt x="903" y="1305" on="0"/>
      </contour>
      <contour>
        <pt x="279" y="1324" on="1"/>
        <pt x="279" y="1394" on="0"/>
        <pt x="1264" y="1394" on="0"/>
        <pt x="1395" y="1066" on="1"/>
        <pt x="1440" y="955" on="0"/>
        <pt x="1440" y="838" on="1"/>
        <pt x="1440" y="812" on="1"/>
        <pt x="1440" y="643" on="0"/>
        <pt x="1294" y="308" on="0"/>
        <pt x="1025" y="80" on="0"/>
        <pt x="709" y="-4" on="0"/>
        <pt x="477" y="-4" on="1"/>
        <pt x="450" y="-4" on="1"/>
        <pt x="424" y="-3" on="1"/>
        <pt x="322" y="-3" on="1"/>
        <pt x="218" y="-1" on="1"/>
        <pt x="192" y="0" on="1"/>
        <pt x="168" y="2" on="1"/>
        <pt x="103" y="2" on="1"/>
        <pt x="49" y="2" on="0"/>
        <pt x="49" y="25" on="1"/>
        <pt x="49" y="55" on="0"/>
        <pt x="158" y="106" on="0"/>
        <pt x="205" y="157" on="0"/>
        <pt x="271" y="405" on="0"/>
        <pt x="350" y="846" on="1"/>
        <pt x="383" y="1029" on="0"/>
        <pt x="383" y="1228" on="1"/>
        <pt x="383" y="1268" on="0"/>
        <pt x="343" y="1285" on="1"/>
        <pt x="279" y="1312" on="0"/>
      </contour>
    </TTGlyph>
    <TTGlyph name="E" xMin="41" yMin="-1" xMax="1261" yMax="1394">
      <contour>
        <pt x="1261" y="1269" on="1"/>
        <pt x="1261" y="1229" on="1"/>
        <pt x="1261" y="1133" on="0"/>
        <pt x="1221" y="1133" on="1"/>
        <pt x="1214" y="1133" on="0"/>
        <pt x="1151" y="1234" on="0"/>
        <pt x="994" y="1295" on="0"/>
        <pt x="807" y="1295" on="1"/>
        <pt x="701" y="1295" on="0"/>
        <pt x="649" y="1222" on="1"/>
        <pt x="624" y="1186" on="0"/>
        <pt x="545" y="938" on="0"/>
        <pt x="545" y="917" on="1"/>
        <pt x="545" y="852" on="0"/>
        <pt x="567" y="827" on="1"/>
        <pt x="612" y="776" on="0"/>
        <pt x="769" y="776" on="0"/>
        <pt x="821" y="806" on="1"/>
        <pt x="917" y="862" on="0"/>
        <pt x="937" y="862" on="1"/>
        <pt x="989" y="862" on="0"/>
        <pt x="989" y="648" on="0"/>
        <pt x="932" y="545" on="0"/>
        <pt x="874" y="545" on="0"/>
        <pt x="857" y="567" on="1"/>
        <pt x="801" y="640" on="0"/>
        <pt x="795" y="643" on="1"/>
        <pt x="752" y="668" on="0"/>
        <pt x="668" y="668" on="1"/>
        <pt x="528" y="668" on="0"/>
        <pt x="485" y="583" on="1"/>
        <pt x="468" y="548" on="0"/>
        <pt x="422" y="306" on="0"/>
        <pt x="422" y="131" on="0"/>
        <pt x="476" y="110" on="1"/>
        <pt x="514" y="95" on="0"/>
        <pt x="821" y="95" on="0"/>
        <pt x="933" y="140" on="1"/>
        <pt x="991" y="163" on="0"/>
        <pt x="1128" y="280" on="0"/>
        <pt x="1147" y="280" on="0"/>
        <pt x="1147" y="222" on="0"/>
        <pt x="1088" y="75" on="0"/>
        <pt x="1015" y="-1" on="0"/>
        <pt x="914" y="-1" on="1"/>
        <pt x="871" y="0" on="1"/>
        <pt x="513" y="1" on="1"/>
        <pt x="94" y="1" on="0"/>
        <pt x="80" y="4" on="1"/>
        <pt x="41" y="13" on="0"/>
        <pt x="41" y="38" on="1"/>
        <pt x="41" y="56" on="0"/>
        <pt x="147" y="96" on="0"/>
        <pt x="156" y="104" on="1"/>
        <pt x="186" y="129" on="0"/>
        <pt x="210" y="209" on="1"/>
        <pt x="222" y="252" on="1"/>
        <pt x="229" y="278" on="0"/>
        <pt x="250" y="382" on="1"/>
        <pt x="285" y="555" on="1"/>
        <pt x="315" y="710" on="0"/>
        <pt x="407" y="1147" on="0"/>
        <pt x="407" y="1233" on="1"/>
        <pt x="407" y="1265" on="0"/>
        <pt x="309" y="1329" on="0"/>
        <pt x="309" y="1389" on="0"/>
        <pt x="650" y="1389" on="1"/>
        <pt x="1008" y="1392" on="1"/>
        <pt x="1097" y="1393" on="1"/>
        <pt x="1140" y="1394" on="1"/>
        <pt x="1214" y="1394" on="0"/>
        <pt x="1261" y="1331" on="0"/>
      </contour>
    </TTGlyph>
    <TTGlyph name="Eacute" xMin="28" yMin="2" xMax="1247" yMax="1843">
      <contour>
        <pt x="762" y="1539" on="1"/>
        <pt x="762" y="1548" on="1"/>
        <pt x="762" y="1550" on="0"/>
        <pt x="1019" y="1843" on="0"/>
        <pt x="1070" y="1843" on="1"/>
        <pt x="1080" y="1843" on="1"/>
        <pt x="1157" y="1843" on="0"/>
        <pt x="1157" y="1795" on="1"/>
        <pt x="1157" y="1791" on="1"/>
        <pt x="1156" y="1786" on="1"/>
        <pt x="1156" y="1760" on="0"/>
        <pt x="846" y="1519" on="0"/>
        <pt x="795" y="1519" on="1"/>
        <pt x="785" y="1519" on="1"/>
        <pt x="762" y="1519" on="0"/>
      </contour>
      <contour>
        <pt x="1247" y="1285" on="1"/>
        <pt x="1247" y="1145" on="0"/>
        <pt x="1203" y="1145" on="1"/>
        <pt x="1190" y="1145" on="0"/>
        <pt x="1125" y="1254" on="0"/>
        <pt x="977" y="1320" on="0"/>
        <pt x="778" y="1320" on="1"/>
        <pt x="671" y="1320" on="0"/>
        <pt x="620" y="1240" on="1"/>
        <pt x="597" y="1204" on="0"/>
        <pt x="526" y="951" on="0"/>
        <pt x="526" y="865" on="0"/>
        <pt x="595" y="783" on="0"/>
        <pt x="749" y="783" on="0"/>
        <pt x="897" y="869" on="0"/>
        <pt x="922" y="869" on="1"/>
        <pt x="972" y="869" on="0"/>
        <pt x="972" y="621" on="0"/>
        <pt x="919" y="568" on="1"/>
        <pt x="894" y="552" on="1"/>
        <pt x="880" y="552" on="0"/>
        <pt x="806" y="628" on="1"/>
        <pt x="756" y="679" on="0"/>
        <pt x="670" y="679" on="1"/>
        <pt x="510" y="679" on="0"/>
        <pt x="466" y="599" on="1"/>
        <pt x="447" y="565" on="0"/>
        <pt x="389" y="282" on="0"/>
        <pt x="389" y="149" on="0"/>
        <pt x="410" y="127" on="1"/>
        <pt x="445" y="91" on="0"/>
        <pt x="763" y="91" on="0"/>
        <pt x="960" y="156" on="0"/>
        <pt x="1053" y="249" on="1"/>
        <pt x="1096" y="292" on="0"/>
        <pt x="1125" y="292" on="0"/>
        <pt x="1125" y="268" on="1"/>
        <pt x="1125" y="146" on="0"/>
        <pt x="1042" y="49" on="1"/>
        <pt x="1002" y="2" on="0"/>
        <pt x="902" y="2" on="1"/>
        <pt x="859" y="3" on="1"/>
        <pt x="500" y="4" on="1"/>
        <pt x="81" y="4" on="0"/>
        <pt x="68" y="7" on="1"/>
        <pt x="28" y="16" on="0"/>
        <pt x="28" y="42" on="1"/>
        <pt x="28" y="55" on="0"/>
        <pt x="112" y="89" on="1"/>
        <pt x="159" y="108" on="0"/>
        <pt x="201" y="215" on="0"/>
        <pt x="412" y="1224" on="0"/>
        <pt x="412" y="1243" on="1"/>
        <pt x="412" y="1280" on="0"/>
        <pt x="300" y="1343" on="0"/>
        <pt x="300" y="1406" on="0"/>
        <pt x="680" y="1406" on="1"/>
        <pt x="1127" y="1411" on="1"/>
        <pt x="1203" y="1411" on="0"/>
        <pt x="1247" y="1351" on="0"/>
      </contour>
    </TTGlyph>
    <TTGlyph name="Ecircumflex" xMin="29" yMin="0" xMax="1247" yMax="1842">
      <contour>
        <pt x="924" y="1841" on="1"/>
        <pt x="948" y="1841" on="0"/>
        <pt x="997" y="1762" on="1"/>
        <pt x="1116" y="1569" on="0"/>
        <pt x="1116" y="1557" on="1"/>
        <pt x="1116" y="1551" on="1"/>
        <pt x="1116" y="1525" on="0"/>
        <pt x="1054" y="1525" on="0"/>
        <pt x="899" y="1694" on="0"/>
        <pt x="874" y="1694" on="1"/>
        <pt x="867" y="1694" on="0"/>
        <pt x="830" y="1666" on="0"/>
        <pt x="820" y="1660" on="1"/>
        <pt x="755" y="1616" on="1"/>
        <pt x="750" y="1612" on="0"/>
        <pt x="618" y="1527" on="0"/>
        <pt x="579" y="1527" on="0"/>
        <pt x="579" y="1564" on="0"/>
        <pt x="885" y="1842" on="0"/>
        <pt x="910" y="1842" on="1"/>
        <pt x="917" y="1841" on="1"/>
      </contour>
      <contour>
        <pt x="527" y="953" on="0"/>
        <pt x="527" y="862" on="0"/>
        <pt x="593" y="781" on="0"/>
        <pt x="748" y="781" on="0"/>
        <pt x="899" y="867" on="0"/>
        <pt x="923" y="867" on="1"/>
        <pt x="973" y="867" on="0"/>
        <pt x="973" y="655" on="0"/>
        <pt x="916" y="550" on="0"/>
        <pt x="859" y="550" on="0"/>
        <pt x="843" y="570" on="1"/>
        <pt x="827" y="599" on="1"/>
        <pt x="806" y="632" on="0"/>
        <pt x="738" y="676" on="0"/>
        <pt x="670" y="676" on="1"/>
        <pt x="511" y="676" on="0"/>
        <pt x="466" y="597" on="1"/>
        <pt x="451" y="572" on="0"/>
        <pt x="389" y="282" on="0"/>
        <pt x="389" y="129" on="0"/>
        <pt x="480" y="89" on="0"/>
        <pt x="793" y="89" on="0"/>
        <pt x="962" y="164" on="0"/>
        <pt x="1104" y="289" on="0"/>
        <pt x="1109" y="289" on="1"/>
        <pt x="1126" y="289" on="0"/>
        <pt x="1126" y="265" on="1"/>
        <pt x="1126" y="144" on="0"/>
        <pt x="1043" y="47" on="1"/>
        <pt x="1003" y="0" on="0"/>
        <pt x="903" y="0" on="1"/>
        <pt x="772" y="0" on="1"/>
        <pt x="727" y="1" on="1"/>
        <pt x="593" y="0" on="1"/>
        <pt x="547" y="1" on="1"/>
        <pt x="107" y="1" on="1"/>
        <pt x="29" y="1" on="0"/>
        <pt x="29" y="40" on="1"/>
        <pt x="29" y="51" on="0"/>
        <pt x="112" y="86" on="1"/>
        <pt x="160" y="106" on="0"/>
        <pt x="200" y="210" on="0"/>
        <pt x="412" y="1212" on="0"/>
        <pt x="412" y="1278" on="0"/>
        <pt x="300" y="1341" on="0"/>
        <pt x="300" y="1403" on="0"/>
        <pt x="680" y="1403" on="1"/>
        <pt x="904" y="1406" on="1"/>
        <pt x="950" y="1407" on="1"/>
        <pt x="1084" y="1408" on="1"/>
        <pt x="1128" y="1409" on="1"/>
        <pt x="1203" y="1409" on="0"/>
        <pt x="1247" y="1350" on="0"/>
        <pt x="1247" y="1282" on="1"/>
        <pt x="1247" y="1142" on="0"/>
        <pt x="1203" y="1142" on="1"/>
        <pt x="1193" y="1142" on="0"/>
        <pt x="1127" y="1249" on="0"/>
        <pt x="980" y="1317" on="0"/>
        <pt x="778" y="1317" on="1"/>
        <pt x="671" y="1317" on="0"/>
        <pt x="620" y="1238" on="1"/>
        <pt x="598" y="1205" on="0"/>
      </contour>
    </TTGlyph>
    <TTGlyph name="Edieresis" xMin="24" yMin="0" xMax="1243" yMax="1774">
      <contour>
        <pt x="581" y="1675" on="1"/>
        <pt x="581" y="1710" on="0"/>
        <pt x="644" y="1773" on="0"/>
        <pt x="680" y="1773" on="1"/>
        <pt x="689" y="1773" on="1"/>
        <pt x="718" y="1773" on="0"/>
        <pt x="773" y="1729" on="0"/>
        <pt x="773" y="1704" on="1"/>
        <pt x="776" y="1685" on="1"/>
        <pt x="776" y="1672" on="1"/>
        <pt x="776" y="1635" on="0"/>
        <pt x="717" y="1576" on="0"/>
        <pt x="698" y="1576" on="1"/>
        <pt x="692" y="1574" on="0"/>
        <pt x="689" y="1574" on="1"/>
        <pt x="674" y="1572" on="1"/>
        <pt x="668" y="1572" on="1"/>
        <pt x="643" y="1576" on="1"/>
        <pt x="585" y="1576" on="0"/>
        <pt x="585" y="1635" on="1"/>
        <pt x="583" y="1641" on="0"/>
        <pt x="583" y="1644" on="1"/>
        <pt x="581" y="1656" on="1"/>
      </contour>
      <contour>
        <pt x="1141" y="1671" on="1"/>
        <pt x="1141" y="1630" on="0"/>
        <pt x="1070" y="1573" on="0"/>
        <pt x="1048" y="1573" on="1"/>
        <pt x="1026" y="1573" on="1"/>
        <pt x="1003" y="1573" on="0"/>
        <pt x="945" y="1620" on="0"/>
        <pt x="945" y="1654" on="1"/>
        <pt x="945" y="1676" on="1"/>
        <pt x="945" y="1712" on="0"/>
        <pt x="1005" y="1772" on="0"/>
        <pt x="1031" y="1772" on="1"/>
        <pt x="1047" y="1774" on="1"/>
        <pt x="1056" y="1774" on="1"/>
        <pt x="1065" y="1771" on="0"/>
        <pt x="1086" y="1771" on="0"/>
        <pt x="1138" y="1729" on="0"/>
        <pt x="1138" y="1705" on="1"/>
        <pt x="1141" y="1690" on="1"/>
      </contour>
      <contour>
        <pt x="1243" y="1283" on="1"/>
        <pt x="1243" y="1143" on="0"/>
        <pt x="1199" y="1143" on="1"/>
        <pt x="1186" y="1143" on="0"/>
        <pt x="1121" y="1252" on="0"/>
        <pt x="973" y="1318" on="0"/>
        <pt x="774" y="1318" on="1"/>
        <pt x="667" y="1318" on="0"/>
        <pt x="616" y="1238" on="1"/>
        <pt x="593" y="1202" on="0"/>
        <pt x="522" y="949" on="0"/>
        <pt x="522" y="863" on="0"/>
        <pt x="591" y="781" on="0"/>
        <pt x="744" y="781" on="0"/>
        <pt x="895" y="867" on="0"/>
        <pt x="918" y="867" on="1"/>
        <pt x="968" y="867" on="0"/>
        <pt x="968" y="619" on="0"/>
        <pt x="915" y="566" on="1"/>
        <pt x="890" y="550" on="1"/>
        <pt x="876" y="550" on="0"/>
        <pt x="802" y="626" on="1"/>
        <pt x="752" y="677" on="0"/>
        <pt x="666" y="677" on="1"/>
        <pt x="505" y="677" on="0"/>
        <pt x="461" y="597" on="1"/>
        <pt x="444" y="566" on="0"/>
        <pt x="385" y="279" on="0"/>
        <pt x="385" y="147" on="0"/>
        <pt x="406" y="125" on="1"/>
        <pt x="441" y="89" on="0"/>
        <pt x="759" y="89" on="0"/>
        <pt x="956" y="154" on="0"/>
        <pt x="1049" y="247" on="1"/>
        <pt x="1092" y="290" on="0"/>
        <pt x="1121" y="290" on="0"/>
        <pt x="1121" y="266" on="1"/>
        <pt x="1121" y="144" on="0"/>
        <pt x="1038" y="47" on="1"/>
        <pt x="998" y="0" on="0"/>
        <pt x="898" y="0" on="1"/>
        <pt x="855" y="1" on="1"/>
        <pt x="496" y="2" on="1"/>
        <pt x="77" y="2" on="0"/>
        <pt x="64" y="5" on="1"/>
        <pt x="24" y="14" on="0"/>
        <pt x="24" y="40" on="1"/>
        <pt x="24" y="53" on="0"/>
        <pt x="108" y="87" on="1"/>
        <pt x="155" y="106" on="0"/>
        <pt x="197" y="213" on="0"/>
        <pt x="408" y="1222" on="0"/>
        <pt x="408" y="1240" on="1"/>
        <pt x="408" y="1278" on="0"/>
        <pt x="296" y="1341" on="0"/>
        <pt x="296" y="1404" on="0"/>
        <pt x="676" y="1404" on="1"/>
        <pt x="1123" y="1409" on="1"/>
        <pt x="1199" y="1409" on="0"/>
        <pt x="1243" y="1349" on="0"/>
      </contour>
    </TTGlyph>
    <TTGlyph name="Egrave" xMin="29" yMin="3" xMax="1247" yMax="1845">
      <contour>
        <pt x="579" y="1781" on="1"/>
        <pt x="579" y="1790" on="1"/>
        <pt x="579" y="1845" on="0"/>
        <pt x="663" y="1845" on="1"/>
        <pt x="673" y="1845" on="1"/>
        <pt x="717" y="1845" on="0"/>
        <pt x="795" y="1741" on="1"/>
        <pt x="932" y="1558" on="0"/>
        <pt x="932" y="1557" on="1"/>
        <pt x="932" y="1543" on="1"/>
        <pt x="932" y="1520" on="0"/>
        <pt x="910" y="1520" on="1"/>
        <pt x="906" y="1520" on="1"/>
        <pt x="850" y="1520" on="0"/>
        <pt x="579" y="1758" on="0"/>
      </contour>
      <contour>
        <pt x="527" y="956" on="0"/>
        <pt x="527" y="865" on="0"/>
        <pt x="593" y="784" on="0"/>
        <pt x="732" y="784" on="0"/>
        <pt x="796" y="809" on="0"/>
        <pt x="888" y="870" on="0"/>
        <pt x="898" y="870" on="1"/>
        <pt x="947" y="870" on="0"/>
        <pt x="973" y="818" on="0"/>
        <pt x="973" y="657" on="0"/>
        <pt x="916" y="553" on="0"/>
        <pt x="866" y="553" on="1"/>
        <pt x="858" y="553" on="0"/>
        <pt x="806" y="634" on="0"/>
        <pt x="735" y="679" on="0"/>
        <pt x="670" y="679" on="1"/>
        <pt x="511" y="679" on="0"/>
        <pt x="466" y="600" on="1"/>
        <pt x="452" y="576" on="0"/>
        <pt x="389" y="287" on="0"/>
        <pt x="389" y="150" on="0"/>
        <pt x="411" y="127" on="1"/>
        <pt x="445" y="92" on="0"/>
        <pt x="767" y="92" on="0"/>
        <pt x="928" y="145" on="0"/>
        <pt x="1027" y="224" on="0"/>
        <pt x="1097" y="292" on="0"/>
        <pt x="1126" y="292" on="0"/>
        <pt x="1126" y="268" on="1"/>
        <pt x="1126" y="144" on="0"/>
        <pt x="1043" y="49" on="1"/>
        <pt x="1003" y="3" on="0"/>
        <pt x="903" y="3" on="1"/>
        <pt x="772" y="3" on="1"/>
        <pt x="727" y="4" on="1"/>
        <pt x="593" y="3" on="1"/>
        <pt x="547" y="4" on="1"/>
        <pt x="107" y="4" on="1"/>
        <pt x="29" y="4" on="0"/>
        <pt x="29" y="43" on="1"/>
        <pt x="29" y="54" on="0"/>
        <pt x="112" y="89" on="1"/>
        <pt x="160" y="109" on="0"/>
        <pt x="200" y="214" on="0"/>
        <pt x="412" y="1214" on="0"/>
        <pt x="412" y="1281" on="0"/>
        <pt x="300" y="1344" on="0"/>
        <pt x="300" y="1406" on="0"/>
        <pt x="637" y="1406" on="1"/>
        <pt x="768" y="1407" on="1"/>
        <pt x="812" y="1408" on="0"/>
        <pt x="857" y="1408" on="1"/>
        <pt x="950" y="1410" on="1"/>
        <pt x="1128" y="1411" on="1"/>
        <pt x="1204" y="1411" on="0"/>
        <pt x="1247" y="1353" on="0"/>
        <pt x="1247" y="1285" on="1"/>
        <pt x="1247" y="1145" on="0"/>
        <pt x="1203" y="1145" on="1"/>
        <pt x="1193" y="1145" on="0"/>
        <pt x="1126" y="1253" on="0"/>
        <pt x="977" y="1320" on="0"/>
        <pt x="778" y="1320" on="1"/>
        <pt x="671" y="1320" on="0"/>
        <pt x="620" y="1241" on="1"/>
        <pt x="598" y="1207" on="0"/>
      </contour>
    </TTGlyph>
    <TTGlyph name="Eth" xMin="62" yMin="-2" xMax="1444" yMax="1410">
      <contour>
        <pt x="391" y="173" on="0"/>
        <pt x="391" y="108" on="0"/>
        <pt x="447" y="83" on="0"/>
        <pt x="543" y="83" on="1"/>
        <pt x="565" y="83" on="1"/>
        <pt x="694" y="83" on="0"/>
        <pt x="944" y="179" on="0"/>
        <pt x="1141" y="382" on="0"/>
        <pt x="1253" y="667" on="0"/>
        <pt x="1253" y="798" on="1"/>
        <pt x="1253" y="841" on="1"/>
        <pt x="1253" y="1067" on="0"/>
        <pt x="1125" y="1199" on="1"/>
        <pt x="1066" y="1260" on="0"/>
        <pt x="890" y="1325" on="0"/>
        <pt x="805" y="1325" on="1"/>
        <pt x="784" y="1325" on="1"/>
        <pt x="652" y="1325" on="0"/>
        <pt x="619" y="1259" on="1"/>
        <pt x="598" y="1218" on="0"/>
        <pt x="523" y="831" on="0"/>
        <pt x="523" y="778" on="0"/>
        <pt x="567" y="762" on="0"/>
        <pt x="663" y="762" on="1"/>
        <pt x="837" y="762" on="0"/>
        <pt x="837" y="716" on="1"/>
        <pt x="837" y="680" on="0"/>
        <pt x="796" y="669" on="1"/>
        <pt x="780" y="665" on="0"/>
        <pt x="506" y="665" on="0"/>
        <pt x="482" y="616" on="1"/>
        <pt x="471" y="593" on="0"/>
      </contour>
      <contour>
        <pt x="62" y="27" on="1"/>
        <pt x="62" y="44" on="1"/>
        <pt x="62" y="67" on="0"/>
        <pt x="197" y="131" on="0"/>
        <pt x="242" y="238" on="0"/>
        <pt x="251" y="355" on="1"/>
        <pt x="261" y="482" on="1"/>
        <pt x="265" y="528" on="0"/>
        <pt x="291" y="631" on="0"/>
        <pt x="291" y="635" on="1"/>
        <pt x="291" y="666" on="0"/>
        <pt x="181" y="683" on="0"/>
        <pt x="181" y="757" on="0"/>
        <pt x="267" y="781" on="1"/>
        <pt x="322" y="797" on="0"/>
        <pt x="350" y="848" on="1"/>
        <pt x="392" y="926" on="0"/>
        <pt x="392" y="1209" on="1"/>
        <pt x="392" y="1266" on="0"/>
        <pt x="363" y="1282" on="1"/>
        <pt x="293" y="1321" on="0"/>
        <pt x="293" y="1333" on="1"/>
        <pt x="293" y="1351" on="0"/>
        <pt x="313" y="1359" on="1"/>
        <pt x="445" y="1410" on="0"/>
        <pt x="768" y="1410" on="1"/>
        <pt x="798" y="1410" on="1"/>
        <pt x="941" y="1410" on="0"/>
        <pt x="1069" y="1368" on="1"/>
        <pt x="1444" y="1243" on="0"/>
        <pt x="1444" y="824" on="1"/>
        <pt x="1444" y="644" on="0"/>
        <pt x="1373" y="486" on="1"/>
        <pt x="1226" y="158" on="0"/>
        <pt x="881" y="48" on="1"/>
        <pt x="725" y="-2" on="0"/>
        <pt x="521" y="-2" on="1"/>
        <pt x="408" y="-2" on="1"/>
        <pt x="129" y="5" on="1"/>
        <pt x="62" y="5" on="0"/>
      </contour>
    </TTGlyph>
    <TTGlyph name="Euro" xMin="107" yMin="-11" xMax="1202" yMax="1314">
      <contour>
        <pt x="634" y="596" on="1"/>
        <pt x="872" y="596" on="0"/>
        <pt x="872" y="558" on="1"/>
        <pt x="872" y="525" on="0"/>
        <pt x="802" y="507" on="1"/>
        <pt x="796" y="505" on="0"/>
        <pt x="562" y="481" on="0"/>
        <pt x="452" y="429" on="0"/>
        <pt x="452" y="375" on="1"/>
        <pt x="452" y="280" on="0"/>
        <pt x="621" y="127" on="0"/>
        <pt x="813" y="127" on="0"/>
        <pt x="910" y="172" on="1"/>
        <pt x="923" y="178" on="0"/>
        <pt x="1043" y="245" on="0"/>
        <pt x="1087" y="245" on="0"/>
        <pt x="1087" y="201" on="0"/>
        <pt x="1061" y="158" on="1"/>
        <pt x="1017" y="85" on="0"/>
        <pt x="951" y="49" on="1"/>
        <pt x="842" y="-11" on="0"/>
        <pt x="665" y="-11" on="1"/>
        <pt x="589" y="-11" on="0"/>
        <pt x="422" y="57" on="0"/>
        <pt x="290" y="187" on="0"/>
        <pt x="214" y="392" on="1"/>
        <pt x="191" y="453" on="0"/>
        <pt x="166" y="481" on="1"/>
        <pt x="107" y="546" on="0"/>
        <pt x="107" y="550" on="1"/>
        <pt x="107" y="575" on="0"/>
        <pt x="135" y="593" on="1"/>
        <pt x="201" y="635" on="0"/>
        <pt x="204" y="647" on="1"/>
        <pt x="207" y="658" on="0"/>
        <pt x="207" y="668" on="1"/>
        <pt x="207" y="702" on="0"/>
        <pt x="173" y="720" on="1"/>
        <pt x="129" y="744" on="0"/>
        <pt x="129" y="787" on="0"/>
        <pt x="169" y="809" on="1"/>
        <pt x="251" y="855" on="0"/>
        <pt x="266" y="873" on="0"/>
        <pt x="323" y="978" on="0"/>
        <pt x="421" y="1121" on="0"/>
        <pt x="588" y="1250" on="0"/>
        <pt x="780" y="1314" on="0"/>
        <pt x="852" y="1314" on="1"/>
        <pt x="893" y="1314" on="1"/>
        <pt x="1071" y="1314" on="0"/>
        <pt x="1162" y="1247" on="1"/>
        <pt x="1202" y="1218" on="0"/>
        <pt x="1202" y="1052" on="0"/>
        <pt x="1151" y="1052" on="1"/>
        <pt x="1112" y="1052" on="0"/>
        <pt x="965" y="1195" on="0"/>
        <pt x="874" y="1195" on="1"/>
        <pt x="717" y="1195" on="0"/>
        <pt x="537" y="1006" on="0"/>
        <pt x="537" y="885" on="1"/>
        <pt x="537" y="842" on="0"/>
        <pt x="619" y="823" on="1"/>
        <pt x="657" y="814" on="0"/>
        <pt x="941" y="814" on="0"/>
        <pt x="941" y="785" on="1"/>
        <pt x="941" y="749" on="0"/>
        <pt x="856" y="720" on="0"/>
        <pt x="733" y="720" on="1"/>
        <pt x="528" y="717" on="1"/>
        <pt x="460" y="717" on="0"/>
        <pt x="433" y="689" on="1"/>
        <pt x="417" y="664" on="1"/>
        <pt x="417" y="611" on="0"/>
        <pt x="471" y="600" on="1"/>
        <pt x="491" y="596" on="0"/>
      </contour>
    </TTGlyph>
    <TTGlyph name="F" xMin="56" yMin="0" xMax="1259" yMax="1394">
      <contour>
        <pt x="403" y="1146" on="0"/>
        <pt x="403" y="1277" on="0"/>
        <pt x="378" y="1297" on="1"/>
        <pt x="356" y="1310" on="1"/>
        <pt x="329" y="1321" on="1"/>
        <pt x="301" y="1336" on="0"/>
        <pt x="301" y="1353" on="1"/>
        <pt x="301" y="1393" on="0"/>
        <pt x="857" y="1393" on="1"/>
        <pt x="1042" y="1394" on="1"/>
        <pt x="1186" y="1394" on="1"/>
        <pt x="1220" y="1394" on="0"/>
        <pt x="1259" y="1361" on="0"/>
        <pt x="1259" y="1301" on="1"/>
        <pt x="1259" y="1237" on="1"/>
        <pt x="1259" y="1112" on="0"/>
        <pt x="1208" y="1112" on="1"/>
        <pt x="1199" y="1112" on="0"/>
        <pt x="1139" y="1247" on="0"/>
        <pt x="991" y="1302" on="0"/>
        <pt x="791" y="1302" on="1"/>
        <pt x="736" y="1302" on="0"/>
        <pt x="646" y="1249" on="0"/>
        <pt x="604" y="1162" on="1"/>
        <pt x="536" y="1021" on="0"/>
        <pt x="536" y="867" on="1"/>
        <pt x="536" y="830" on="0"/>
        <pt x="626" y="763" on="0"/>
        <pt x="769" y="763" on="0"/>
        <pt x="822" y="792" on="1"/>
        <pt x="839" y="801" on="0"/>
        <pt x="913" y="861" on="0"/>
        <pt x="944" y="861" on="1"/>
        <pt x="985" y="861" on="0"/>
        <pt x="985" y="788" on="1"/>
        <pt x="985" y="545" on="0"/>
        <pt x="892" y="545" on="1"/>
        <pt x="870" y="545" on="0"/>
        <pt x="815" y="610" on="1"/>
        <pt x="781" y="650" on="0"/>
        <pt x="619" y="650" on="0"/>
        <pt x="532" y="613" on="1"/>
        <pt x="505" y="601" on="0"/>
        <pt x="473" y="554" on="0"/>
        <pt x="430" y="304" on="0"/>
        <pt x="430" y="145" on="0"/>
        <pt x="456" y="77" on="0"/>
        <pt x="516" y="42" on="0"/>
        <pt x="516" y="29" on="1"/>
        <pt x="516" y="0" on="0"/>
        <pt x="279" y="0" on="1"/>
        <pt x="207" y="0" on="1"/>
        <pt x="56" y="0" on="0"/>
        <pt x="56" y="33" on="1"/>
        <pt x="56" y="45" on="0"/>
        <pt x="141" y="100" on="1"/>
        <pt x="195" y="134" on="0"/>
        <pt x="215" y="200" on="1"/>
        <pt x="226" y="235" on="0"/>
      </contour>
    </TTGlyph>
    <TTGlyph name="G" xMin="124" yMin="-18" xMax="1375" yMax="1404">
      <contour>
        <pt x="941" y="1404" on="1"/>
        <pt x="1003" y="1404" on="0"/>
        <pt x="1212" y="1358" on="0"/>
        <pt x="1327" y="1351" on="0"/>
        <pt x="1342" y="1340" on="1"/>
        <pt x="1375" y="1316" on="0"/>
        <pt x="1375" y="1147" on="0"/>
        <pt x="1317" y="1057" on="0"/>
        <pt x="1293" y="1057" on="1"/>
        <pt x="1249" y="1057" on="0"/>
        <pt x="1216" y="1123" on="1"/>
        <pt x="1170" y="1216" on="0"/>
        <pt x="1106" y="1250" on="1"/>
        <pt x="1017" y="1298" on="0"/>
        <pt x="778" y="1298" on="0"/>
        <pt x="670" y="1236" on="1"/>
        <pt x="467" y="1120" on="0"/>
        <pt x="379" y="860" on="1"/>
        <pt x="332" y="721" on="0"/>
        <pt x="332" y="597" on="1"/>
        <pt x="332" y="350" on="0"/>
        <pt x="556" y="84" on="0"/>
        <pt x="760" y="84" on="1"/>
        <pt x="885" y="84" on="0"/>
        <pt x="962" y="169" on="1"/>
        <pt x="993" y="203" on="0"/>
        <pt x="1045" y="337" on="0"/>
        <pt x="1045" y="483" on="0"/>
        <pt x="1020" y="519" on="1"/>
        <pt x="1002" y="540" on="1"/>
        <pt x="981" y="559" on="1"/>
        <pt x="956" y="585" on="0"/>
        <pt x="956" y="596" on="1"/>
        <pt x="956" y="632" on="0"/>
        <pt x="1349" y="632" on="0"/>
        <pt x="1349" y="591" on="1"/>
        <pt x="1349" y="580" on="0"/>
        <pt x="1277" y="516" on="0"/>
        <pt x="1247" y="420" on="0"/>
        <pt x="1185" y="110" on="0"/>
        <pt x="1137" y="67" on="0"/>
        <pt x="1039" y="43" on="1"/>
        <pt x="784" y="-18" on="0"/>
        <pt x="729" y="-18" on="1"/>
        <pt x="687" y="-18" on="1"/>
        <pt x="439" y="-18" on="0"/>
        <pt x="284" y="132" on="1"/>
        <pt x="214" y="200" on="0"/>
        <pt x="124" y="411" on="0"/>
        <pt x="124" y="531" on="1"/>
        <pt x="124" y="572" on="1"/>
        <pt x="124" y="735" on="0"/>
        <pt x="254" y="1050" on="0"/>
        <pt x="366" y="1164" on="1"/>
        <pt x="602" y="1404" on="0"/>
      </contour>
    </TTGlyph>
    <TTGlyph name="H" xMin="36" yMin="-2" xMax="1643" yMax="1391">
      <contour>
        <pt x="1295" y="1204" on="0"/>
        <pt x="1295" y="1261" on="0"/>
        <pt x="1271" y="1285" on="1"/>
        <pt x="1240" y="1306" on="1"/>
        <pt x="1195" y="1338" on="0"/>
        <pt x="1195" y="1351" on="1"/>
        <pt x="1195" y="1390" on="0"/>
        <pt x="1460" y="1390" on="1"/>
        <pt x="1510" y="1391" on="1"/>
        <pt x="1643" y="1391" on="0"/>
        <pt x="1643" y="1352" on="1"/>
        <pt x="1643" y="1335" on="0"/>
        <pt x="1503" y="1274" on="0"/>
        <pt x="1475" y="1202" on="0"/>
        <pt x="1277" y="193" on="0"/>
        <pt x="1277" y="114" on="0"/>
        <pt x="1301" y="95" on="1"/>
        <pt x="1338" y="77" on="1"/>
        <pt x="1403" y="51" on="0"/>
        <pt x="1403" y="43" on="1"/>
        <pt x="1403" y="1" on="0"/>
        <pt x="1311" y="1" on="1"/>
        <pt x="1212" y="3" on="1"/>
        <pt x="1115" y="2" on="1"/>
        <pt x="942" y="2" on="0"/>
        <pt x="942" y="34" on="1"/>
        <pt x="942" y="50" on="0"/>
        <pt x="1063" y="135" on="0"/>
        <pt x="1090" y="189" on="0"/>
        <pt x="1168" y="570" on="0"/>
        <pt x="1168" y="594" on="1"/>
        <pt x="1168" y="659" on="0"/>
        <pt x="1106" y="669" on="1"/>
        <pt x="1059" y="670" on="1"/>
        <pt x="809" y="669" on="1"/>
        <pt x="524" y="669" on="0"/>
        <pt x="493" y="631" on="1"/>
        <pt x="473" y="607" on="0"/>
        <pt x="392" y="208" on="0"/>
        <pt x="392" y="128" on="0"/>
        <pt x="428" y="101" on="1"/>
        <pt x="493" y="52" on="0"/>
        <pt x="493" y="33" on="1"/>
        <pt x="493" y="0" on="0"/>
        <pt x="269" y="0" on="1"/>
        <pt x="171" y="-1" on="1"/>
        <pt x="121" y="-2" on="1"/>
        <pt x="72" y="-2" on="1"/>
        <pt x="36" y="9" on="1"/>
        <pt x="36" y="51" on="0"/>
        <pt x="181" y="106" on="0"/>
        <pt x="226" y="241" on="0"/>
        <pt x="363" y="956" on="0"/>
        <pt x="406" y="1169" on="0"/>
        <pt x="409" y="1188" on="1"/>
        <pt x="415" y="1233" on="1"/>
        <pt x="415" y="1275" on="0"/>
        <pt x="382" y="1295" on="1"/>
        <pt x="343" y="1311" on="1"/>
        <pt x="282" y="1335" on="0"/>
        <pt x="282" y="1354" on="1"/>
        <pt x="282" y="1391" on="0"/>
        <pt x="335" y="1391" on="1"/>
        <pt x="383" y="1391" on="1"/>
        <pt x="434" y="1389" on="1"/>
        <pt x="534" y="1389" on="1"/>
        <pt x="743" y="1389" on="0"/>
        <pt x="743" y="1354" on="1"/>
        <pt x="743" y="1336" on="0"/>
        <pt x="616" y="1257" on="0"/>
        <pt x="604" y="1228" on="1"/>
        <pt x="592" y="1182" on="1"/>
        <pt x="587" y="1162" on="0"/>
        <pt x="525" y="869" on="0"/>
        <pt x="525" y="842" on="1"/>
        <pt x="525" y="777" on="0"/>
        <pt x="582" y="766" on="1"/>
        <pt x="628" y="763" on="1"/>
        <pt x="877" y="764" on="1"/>
        <pt x="1171" y="764" on="0"/>
        <pt x="1217" y="823" on="0"/>
      </contour>
    </TTGlyph>
    <TTGlyph name="I" xMin="44" yMin="-4" xMax="795" yMax="1391">
      <contour>
        <pt x="426" y="1179" on="0"/>
        <pt x="426" y="1280" on="0"/>
        <pt x="376" y="1300" on="1"/>
        <pt x="292" y="1334" on="0"/>
        <pt x="292" y="1352" on="1"/>
        <pt x="292" y="1387" on="0"/>
        <pt x="532" y="1387" on="1"/>
        <pt x="687" y="1389" on="1"/>
        <pt x="732" y="1391" on="0"/>
        <pt x="733" y="1391" on="1"/>
        <pt x="795" y="1391" on="0"/>
        <pt x="795" y="1357" on="1"/>
        <pt x="795" y="1343" on="0"/>
        <pt x="701" y="1304" on="1"/>
        <pt x="647" y="1281" on="0"/>
        <pt x="612" y="1179" on="0"/>
        <pt x="413" y="206" on="0"/>
        <pt x="413" y="103" on="0"/>
        <pt x="543" y="54" on="0"/>
        <pt x="543" y="22" on="1"/>
        <pt x="543" y="-1" on="0"/>
        <pt x="265" y="-1" on="1"/>
        <pt x="110" y="-4" on="1"/>
        <pt x="87" y="-4" on="1"/>
        <pt x="44" y="-4" on="0"/>
        <pt x="44" y="16" on="1"/>
        <pt x="44" y="45" on="0"/>
        <pt x="141" y="83" on="1"/>
        <pt x="195" y="104" on="0"/>
        <pt x="234" y="241" on="0"/>
      </contour>
    </TTGlyph>
    <TTGlyph name="Iacute" xMin="16" yMin="-1" xMax="872" yMax="1843">
      <contour>
        <pt x="477" y="1539" on="1"/>
        <pt x="477" y="1548" on="1"/>
        <pt x="477" y="1550" on="0"/>
        <pt x="733" y="1843" on="0"/>
        <pt x="780" y="1843" on="1"/>
        <pt x="795" y="1843" on="1"/>
        <pt x="872" y="1843" on="0"/>
        <pt x="872" y="1795" on="1"/>
        <pt x="872" y="1791" on="1"/>
        <pt x="871" y="1786" on="1"/>
        <pt x="871" y="1760" on="0"/>
        <pt x="561" y="1519" on="0"/>
        <pt x="510" y="1519" on="1"/>
        <pt x="500" y="1519" on="1"/>
        <pt x="477" y="1519" on="0"/>
      </contour>
      <contour>
        <pt x="425" y="1245" on="1"/>
        <pt x="425" y="1299" on="0"/>
        <pt x="364" y="1319" on="1"/>
        <pt x="283" y="1345" on="0"/>
        <pt x="283" y="1404" on="0"/>
        <pt x="491" y="1404" on="1"/>
        <pt x="623" y="1406" on="1"/>
        <pt x="645" y="1407" on="1"/>
        <pt x="736" y="1409" on="1"/>
        <pt x="779" y="1409" on="0"/>
        <pt x="779" y="1392" on="1"/>
        <pt x="779" y="1378" on="1"/>
        <pt x="779" y="1356" on="0"/>
        <pt x="682" y="1325" on="1"/>
        <pt x="626" y="1307" on="0"/>
        <pt x="590" y="1208" on="0"/>
        <pt x="532" y="930" on="1"/>
        <pt x="524" y="886" on="1"/>
        <pt x="515" y="842" on="1"/>
        <pt x="505" y="798" on="1"/>
        <pt x="496" y="754" on="1"/>
        <pt x="466" y="609" on="0"/>
        <pt x="373" y="189" on="0"/>
        <pt x="373" y="107" on="0"/>
        <pt x="429" y="87" on="1"/>
        <pt x="511" y="58" on="0"/>
        <pt x="511" y="34" on="1"/>
        <pt x="511" y="3" on="0"/>
        <pt x="287" y="3" on="1"/>
        <pt x="244" y="3" on="1"/>
        <pt x="134" y="0" on="1"/>
        <pt x="111" y="-1" on="1"/>
        <pt x="66" y="-1" on="1"/>
        <pt x="16" y="-1" on="0"/>
        <pt x="16" y="16" on="1"/>
        <pt x="16" y="59" on="0"/>
        <pt x="175" y="97" on="0"/>
        <pt x="195" y="162" on="1"/>
        <pt x="207" y="201" on="0"/>
        <pt x="425" y="1243" on="0"/>
      </contour>
    </TTGlyph>
    <TTGlyph name="Icircumflex" xMin="21" yMin="-3" xMax="837" yMax="1841">
      <contour>
        <pt x="624" y="1841" on="1"/>
        <pt x="638" y="1841" on="1"/>
        <pt x="672" y="1841" on="0"/>
        <pt x="764" y="1681" on="0"/>
        <pt x="837" y="1562" on="0"/>
        <pt x="837" y="1557" on="1"/>
        <pt x="837" y="1525" on="0"/>
        <pt x="805" y="1525" on="1"/>
        <pt x="782" y="1525" on="0"/>
        <pt x="613" y="1694" on="0"/>
        <pt x="591" y="1694" on="0"/>
        <pt x="350" y="1527" on="0"/>
        <pt x="301" y="1527" on="0"/>
        <pt x="301" y="1547" on="1"/>
        <pt x="301" y="1551" on="0"/>
        <pt x="591" y="1841" on="0"/>
      </contour>
      <contour>
        <pt x="71" y="-3" on="1"/>
        <pt x="21" y="-3" on="0"/>
        <pt x="21" y="13" on="1"/>
        <pt x="21" y="30" on="1"/>
        <pt x="21" y="57" on="0"/>
        <pt x="174" y="94" on="0"/>
        <pt x="193" y="141" on="1"/>
        <pt x="218" y="203" on="0"/>
        <pt x="358" y="902" on="0"/>
        <pt x="430" y="1213" on="0"/>
        <pt x="430" y="1243" on="1"/>
        <pt x="430" y="1297" on="0"/>
        <pt x="369" y="1317" on="1"/>
        <pt x="288" y="1343" on="0"/>
        <pt x="288" y="1402" on="0"/>
        <pt x="495" y="1402" on="1"/>
        <pt x="584" y="1403" on="1"/>
        <pt x="695" y="1405" on="1"/>
        <pt x="740" y="1407" on="1"/>
        <pt x="784" y="1407" on="0"/>
        <pt x="784" y="1390" on="1"/>
        <pt x="784" y="1376" on="1"/>
        <pt x="784" y="1354" on="0"/>
        <pt x="687" y="1323" on="1"/>
        <pt x="629" y="1305" on="0"/>
        <pt x="597" y="1207" on="0"/>
        <pt x="377" y="157" on="0"/>
        <pt x="377" y="147" on="1"/>
        <pt x="377" y="105" on="0"/>
        <pt x="433" y="85" on="1"/>
        <pt x="516" y="55" on="0"/>
        <pt x="516" y="32" on="1"/>
        <pt x="516" y="1" on="0"/>
        <pt x="313" y="1" on="1"/>
        <pt x="270" y="1" on="1"/>
        <pt x="116" y="-3" on="1"/>
      </contour>
    </TTGlyph>
    <TTGlyph name="Idieresis" xMin="16" yMin="-4" xMax="865" yMax="1775">
      <contour>
        <pt x="402" y="1774" on="1"/>
        <pt x="424" y="1774" on="1"/>
        <pt x="446" y="1774" on="0"/>
        <pt x="504" y="1728" on="0"/>
        <pt x="504" y="1693" on="1"/>
        <pt x="504" y="1671" on="1"/>
        <pt x="504" y="1643" on="0"/>
        <pt x="448" y="1574" on="0"/>
        <pt x="412" y="1574" on="1"/>
        <pt x="390" y="1574" on="1"/>
        <pt x="360" y="1574" on="0"/>
        <pt x="313" y="1621" on="0"/>
        <pt x="313" y="1640" on="1"/>
        <pt x="310" y="1655" on="1"/>
        <pt x="310" y="1680" on="1"/>
        <pt x="314" y="1698" on="1"/>
        <pt x="314" y="1716" on="0"/>
        <pt x="372" y="1774" on="0"/>
      </contour>
      <contour>
        <pt x="762" y="1775" on="1"/>
        <pt x="784" y="1775" on="1"/>
        <pt x="814" y="1775" on="0"/>
        <pt x="865" y="1724" on="0"/>
        <pt x="865" y="1694" on="1"/>
        <pt x="865" y="1672" on="1"/>
        <pt x="862" y="1660" on="0"/>
        <pt x="862" y="1634" on="0"/>
        <pt x="805" y="1577" on="0"/>
        <pt x="784" y="1577" on="1"/>
        <pt x="766" y="1574" on="1"/>
        <pt x="753" y="1574" on="1"/>
        <pt x="729" y="1574" on="0"/>
        <pt x="669" y="1622" on="0"/>
        <pt x="669" y="1659" on="1"/>
        <pt x="669" y="1675" on="1"/>
        <pt x="673" y="1697" on="1"/>
        <pt x="673" y="1718" on="0"/>
        <pt x="730" y="1775" on="0"/>
      </contour>
      <contour>
        <pt x="425" y="1262" on="1"/>
        <pt x="425" y="1298" on="0"/>
        <pt x="284" y="1342" on="0"/>
        <pt x="284" y="1402" on="0"/>
        <pt x="491" y="1402" on="1"/>
        <pt x="601" y="1403" on="1"/>
        <pt x="623" y="1404" on="1"/>
        <pt x="736" y="1406" on="1"/>
        <pt x="779" y="1406" on="0"/>
        <pt x="779" y="1390" on="1"/>
        <pt x="779" y="1376" on="1"/>
        <pt x="779" y="1356" on="0"/>
        <pt x="682" y="1323" on="1"/>
        <pt x="626" y="1304" on="0"/>
        <pt x="591" y="1210" on="0"/>
        <pt x="532" y="927" on="1"/>
        <pt x="520" y="862" on="1"/>
        <pt x="514" y="831" on="0"/>
        <pt x="496" y="754" on="0"/>
        <pt x="488" y="707" on="0"/>
        <pt x="483" y="685" on="1"/>
        <pt x="473" y="641" on="1"/>
        <pt x="464" y="596" on="1"/>
        <pt x="373" y="186" on="0"/>
        <pt x="373" y="105" on="0"/>
        <pt x="429" y="85" on="1"/>
        <pt x="511" y="56" on="0"/>
        <pt x="511" y="32" on="1"/>
        <pt x="511" y="1" on="0"/>
        <pt x="287" y="1" on="1"/>
        <pt x="244" y="0" on="1"/>
        <pt x="200" y="0" on="1"/>
        <pt x="156" y="-2" on="1"/>
        <pt x="66" y="-4" on="1"/>
        <pt x="16" y="-4" on="0"/>
        <pt x="16" y="13" on="1"/>
        <pt x="16" y="54" on="0"/>
        <pt x="176" y="96" on="0"/>
        <pt x="195" y="159" on="1"/>
        <pt x="250" y="338" on="0"/>
        <pt x="360" y="929" on="1"/>
        <pt x="362" y="942" on="0"/>
        <pt x="383" y="1035" on="0"/>
        <pt x="388" y="1059" on="1"/>
        <pt x="392" y="1080" on="1"/>
        <pt x="397" y="1101" on="1"/>
        <pt x="425" y="1232" on="0"/>
      </contour>
    </TTGlyph>
    <TTGlyph name="Igrave" xMin="16" yMin="-1" xMax="779" yMax="1845">
      <contour>
        <pt x="278" y="1781" on="1"/>
        <pt x="278" y="1790" on="1"/>
        <pt x="278" y="1845" on="0"/>
        <pt x="362" y="1845" on="1"/>
        <pt x="371" y="1845" on="1"/>
        <pt x="416" y="1845" on="0"/>
        <pt x="494" y="1741" on="1"/>
        <pt x="631" y="1558" on="0"/>
        <pt x="631" y="1557" on="1"/>
        <pt x="631" y="1543" on="1"/>
        <pt x="631" y="1520" on="0"/>
        <pt x="609" y="1520" on="1"/>
        <pt x="604" y="1520" on="1"/>
        <pt x="570" y="1520" on="0"/>
        <pt x="386" y="1663" on="1"/>
        <pt x="278" y="1747" on="0"/>
      </contour>
      <contour>
        <pt x="66" y="-1" on="1"/>
        <pt x="16" y="-1" on="0"/>
        <pt x="16" y="16" on="1"/>
        <pt x="16" y="32" on="1"/>
        <pt x="16" y="58" on="0"/>
        <pt x="169" y="98" on="0"/>
        <pt x="210" y="199" on="0"/>
        <pt x="366" y="964" on="0"/>
        <pt x="425" y="1215" on="0"/>
        <pt x="425" y="1245" on="1"/>
        <pt x="425" y="1300" on="0"/>
        <pt x="364" y="1320" on="1"/>
        <pt x="283" y="1346" on="0"/>
        <pt x="283" y="1405" on="0"/>
        <pt x="490" y="1405" on="1"/>
        <pt x="601" y="1406" on="1"/>
        <pt x="623" y="1407" on="1"/>
        <pt x="735" y="1409" on="1"/>
        <pt x="779" y="1409" on="0"/>
        <pt x="779" y="1392" on="1"/>
        <pt x="779" y="1378" on="1"/>
        <pt x="779" y="1357" on="0"/>
        <pt x="682" y="1326" on="1"/>
        <pt x="624" y="1308" on="0"/>
        <pt x="583" y="1185" on="0"/>
        <pt x="373" y="157" on="0"/>
        <pt x="373" y="149" on="1"/>
        <pt x="373" y="105" on="0"/>
        <pt x="428" y="87" on="1"/>
        <pt x="511" y="59" on="0"/>
        <pt x="511" y="34" on="1"/>
        <pt x="511" y="3" on="0"/>
        <pt x="308" y="3" on="1"/>
        <pt x="265" y="3" on="1"/>
        <pt x="200" y="2" on="1"/>
        <pt x="89" y="-1" on="1"/>
      </contour>
    </TTGlyph>
    <TTGlyph name="J" xMin="-25" yMin="-273" xMax="803" yMax="1390">
      <contour>
        <pt x="329" y="1262" on="0"/>
        <pt x="329" y="1321" on="0"/>
        <pt x="513" y="1390" on="0"/>
        <pt x="629" y="1390" on="1"/>
        <pt x="803" y="1390" on="0"/>
        <pt x="803" y="1321" on="1"/>
        <pt x="803" y="1312" on="0"/>
        <pt x="767" y="1236" on="0"/>
        <pt x="767" y="1219" on="1"/>
        <pt x="775" y="1110" on="1"/>
        <pt x="775" y="1070" on="0"/>
        <pt x="726" y="943" on="0"/>
        <pt x="662" y="688" on="0"/>
        <pt x="662" y="633" on="1"/>
        <pt x="670" y="543" on="1"/>
        <pt x="670" y="499" on="0"/>
        <pt x="610" y="400" on="0"/>
        <pt x="582" y="290" on="1"/>
        <pt x="526" y="68" on="0"/>
        <pt x="450" y="-44" on="1"/>
        <pt x="295" y="-273" on="0"/>
        <pt x="98" y="-273" on="1"/>
        <pt x="97" y="-273" on="0"/>
        <pt x="96" y="-273" on="1"/>
        <pt x="73" y="-273" on="1"/>
        <pt x="38" y="-273" on="0"/>
        <pt x="-25" y="-234" on="0"/>
        <pt x="-25" y="-218" on="1"/>
        <pt x="-25" y="-182" on="0"/>
        <pt x="212" y="-101" on="0"/>
        <pt x="240" y="-61" on="1"/>
        <pt x="391" y="154" on="0"/>
        <pt x="391" y="347" on="1"/>
        <pt x="391" y="356" on="0"/>
        <pt x="534" y="794" on="0"/>
        <pt x="534" y="944" on="0"/>
        <pt x="474" y="1178" on="1"/>
        <pt x="452" y="1264" on="0"/>
        <pt x="408" y="1264" on="1"/>
        <pt x="384" y="1262" on="1"/>
      </contour>
    </TTGlyph>
    <TTGlyph name="K" xMin="54" yMin="-23" xMax="1455" yMax="1392">
      <contour>
        <pt x="1318" y="34" on="1"/>
        <pt x="1318" y="-23" on="0"/>
        <pt x="1067" y="-23" on="1"/>
        <pt x="1005" y="-23" on="0"/>
        <pt x="977" y="12" on="1"/>
        <pt x="970" y="23" on="0"/>
        <pt x="946" y="85" on="1"/>
        <pt x="896" y="217" on="0"/>
        <pt x="718" y="499" on="1"/>
        <pt x="632" y="636" on="0"/>
        <pt x="524" y="636" on="0"/>
        <pt x="489" y="552" on="1"/>
        <pt x="414" y="369" on="0"/>
        <pt x="414" y="188" on="1"/>
        <pt x="414" y="158" on="0"/>
        <pt x="434" y="125" on="1"/>
        <pt x="454" y="101" on="1"/>
        <pt x="475" y="72" on="0"/>
        <pt x="475" y="59" on="1"/>
        <pt x="475" y="28" on="0"/>
        <pt x="324" y="0" on="0"/>
        <pt x="143" y="0" on="1"/>
        <pt x="54" y="0" on="0"/>
        <pt x="54" y="34" on="1"/>
        <pt x="54" y="46" on="0"/>
        <pt x="139" y="84" on="1"/>
        <pt x="190" y="107" on="0"/>
        <pt x="222" y="233" on="0"/>
        <pt x="403" y="1149" on="0"/>
        <pt x="403" y="1269" on="0"/>
        <pt x="371" y="1302" on="1"/>
        <pt x="347" y="1319" on="1"/>
        <pt x="314" y="1341" on="0"/>
        <pt x="314" y="1352" on="1"/>
        <pt x="314" y="1392" on="0"/>
        <pt x="483" y="1392" on="1"/>
        <pt x="530" y="1392" on="1"/>
        <pt x="575" y="1390" on="1"/>
        <pt x="605" y="1389" on="0"/>
        <pt x="735" y="1389" on="0"/>
        <pt x="735" y="1364" on="1"/>
        <pt x="735" y="1345" on="0"/>
        <pt x="624" y="1240" on="0"/>
        <pt x="598" y="1166" on="1"/>
        <pt x="534" y="981" on="0"/>
        <pt x="534" y="817" on="1"/>
        <pt x="534" y="785" on="0"/>
        <pt x="557" y="785" on="1"/>
        <pt x="641" y="785" on="0"/>
        <pt x="1136" y="1249" on="0"/>
        <pt x="1136" y="1299" on="1"/>
        <pt x="1132" y="1317" on="1"/>
        <pt x="1121" y="1344" on="1"/>
        <pt x="1121" y="1384" on="0"/>
        <pt x="1455" y="1384" on="0"/>
        <pt x="1455" y="1343" on="1"/>
        <pt x="1455" y="1341" on="0"/>
        <pt x="1235" y="1203" on="0"/>
        <pt x="1172" y="1145" on="1"/>
        <pt x="865" y="866" on="0"/>
        <pt x="797" y="789" on="0"/>
        <pt x="797" y="752" on="1"/>
        <pt x="797" y="639" on="0"/>
        <pt x="1094" y="227" on="1"/>
        <pt x="1152" y="146" on="0"/>
        <pt x="1206" y="110" on="1"/>
        <pt x="1318" y="35" on="0"/>
      </contour>
    </TTGlyph>
    <TTGlyph name="L" xMin="46" yMin="-2" xMax="1157" yMax="1393">
      <contour>
        <pt x="516" y="92" on="0"/>
        <pt x="839" y="92" on="0"/>
        <pt x="989" y="178" on="0"/>
        <pt x="1115" y="335" on="0"/>
        <pt x="1147" y="335" on="1"/>
        <pt x="1157" y="335" on="0"/>
        <pt x="1157" y="302" on="1"/>
        <pt x="1157" y="185" on="0"/>
        <pt x="1080" y="57" on="1"/>
        <pt x="1045" y="-2" on="0"/>
        <pt x="946" y="-2" on="1"/>
        <pt x="766" y="-2" on="1"/>
        <pt x="736" y="-1" on="1"/>
        <pt x="644" y="-1" on="1"/>
        <pt x="581" y="0" on="1"/>
        <pt x="519" y="0" on="1"/>
        <pt x="46" y="0" on="0"/>
        <pt x="46" y="21" on="1"/>
        <pt x="46" y="51" on="0"/>
        <pt x="160" y="107" on="0"/>
        <pt x="200" y="162" on="0"/>
        <pt x="221" y="240" on="0"/>
        <pt x="414" y="1187" on="0"/>
        <pt x="414" y="1285" on="0"/>
        <pt x="370" y="1307" on="1"/>
        <pt x="287" y="1349" on="0"/>
        <pt x="287" y="1366" on="1"/>
        <pt x="287" y="1393" on="0"/>
        <pt x="351" y="1393" on="1"/>
        <pt x="381" y="1392" on="1"/>
        <pt x="653" y="1392" on="1"/>
        <pt x="683" y="1393" on="1"/>
        <pt x="786" y="1393" on="0"/>
        <pt x="786" y="1369" on="1"/>
        <pt x="786" y="1337" on="0"/>
        <pt x="632" y="1274" on="0"/>
        <pt x="590" y="1139" on="0"/>
        <pt x="404" y="209" on="0"/>
        <pt x="404" y="183" on="1"/>
        <pt x="404" y="127" on="0"/>
        <pt x="468" y="107" on="1"/>
      </contour>
    </TTGlyph>
    <TTGlyph name="Lslash" xMin="42" yMin="-4" xMax="1152" yMax="1395">
      <contour>
        <pt x="42" y="28" on="1"/>
        <pt x="42" y="29" on="0"/>
        <pt x="166" y="129" on="0"/>
        <pt x="190" y="185" on="1"/>
        <pt x="255" y="338" on="0"/>
        <pt x="255" y="458" on="1"/>
        <pt x="255" y="501" on="0"/>
        <pt x="213" y="508" on="1"/>
        <pt x="155" y="518" on="0"/>
        <pt x="155" y="573" on="0"/>
        <pt x="279" y="685" on="0"/>
        <pt x="303" y="731" on="0"/>
        <pt x="418" y="1185" on="0"/>
        <pt x="418" y="1213" on="1"/>
        <pt x="418" y="1268" on="0"/>
        <pt x="313" y="1336" on="0"/>
        <pt x="313" y="1359" on="1"/>
        <pt x="313" y="1395" on="0"/>
        <pt x="480" y="1395" on="1"/>
        <pt x="516" y="1394" on="1"/>
        <pt x="588" y="1395" on="1"/>
        <pt x="623" y="1395" on="1"/>
        <pt x="756" y="1395" on="0"/>
        <pt x="756" y="1355" on="1"/>
        <pt x="756" y="1323" on="0"/>
        <pt x="645" y="1235" on="0"/>
        <pt x="620" y="1179" on="1"/>
        <pt x="551" y="1024" on="0"/>
        <pt x="551" y="852" on="1"/>
        <pt x="551" y="806" on="0"/>
        <pt x="593" y="806" on="1"/>
        <pt x="620" y="806" on="0"/>
        <pt x="821" y="883" on="0"/>
        <pt x="864" y="883" on="0"/>
        <pt x="864" y="858" on="1"/>
        <pt x="864" y="816" on="0"/>
        <pt x="541" y="654" on="0"/>
        <pt x="491" y="570" on="1"/>
        <pt x="471" y="537" on="0"/>
        <pt x="394" y="244" on="0"/>
        <pt x="394" y="124" on="0"/>
        <pt x="472" y="98" on="1"/>
        <pt x="510" y="85" on="0"/>
        <pt x="815" y="85" on="0"/>
        <pt x="961" y="156" on="0"/>
        <pt x="1108" y="326" on="0"/>
        <pt x="1133" y="326" on="1"/>
        <pt x="1152" y="326" on="0"/>
        <pt x="1152" y="259" on="0"/>
        <pt x="1090" y="63" on="0"/>
        <pt x="1071" y="39" on="1"/>
        <pt x="1036" y="-4" on="0"/>
        <pt x="957" y="-4" on="1"/>
        <pt x="778" y="-4" on="1"/>
        <pt x="742" y="-3" on="1"/>
        <pt x="341" y="2" on="1"/>
        <pt x="234" y="1" on="1"/>
        <pt x="90" y="-2" on="1"/>
        <pt x="42" y="-2" on="0"/>
      </contour>
    </TTGlyph>
    <TTGlyph name="M" xMin="67" yMin="0" xMax="1876" yMax="1388">
      <contour>
        <pt x="1392" y="0" on="1"/>
        <pt x="1270" y="0" on="0"/>
        <pt x="1270" y="46" on="1"/>
        <pt x="1336" y="137" on="1"/>
        <pt x="1370" y="194" on="0"/>
        <pt x="1391" y="288" on="1"/>
        <pt x="1529" y="901" on="0"/>
        <pt x="1529" y="1061" on="1"/>
        <pt x="1529" y="1087" on="0"/>
        <pt x="1494" y="1087" on="0"/>
        <pt x="954" y="219" on="0"/>
        <pt x="924" y="181" on="1"/>
        <pt x="868" y="109" on="0"/>
        <pt x="809" y="109" on="1"/>
        <pt x="776" y="109" on="0"/>
        <pt x="552" y="1065" on="0"/>
        <pt x="530" y="1065" on="1"/>
        <pt x="498" y="1065" on="0"/>
        <pt x="414" y="598" on="0"/>
        <pt x="336" y="288" on="0"/>
        <pt x="336" y="132" on="1"/>
        <pt x="343" y="99" on="1"/>
        <pt x="361" y="45" on="1"/>
        <pt x="361" y="4" on="0"/>
        <pt x="277" y="4" on="1"/>
        <pt x="145" y="4" on="0"/>
        <pt x="95" y="23" on="1"/>
        <pt x="67" y="42" on="1"/>
        <pt x="67" y="77" on="0"/>
        <pt x="188" y="181" on="0"/>
        <pt x="228" y="329" on="1"/>
        <pt x="391" y="932" on="0"/>
        <pt x="391" y="1215" on="1"/>
        <pt x="391" y="1246" on="0"/>
        <pt x="352" y="1327" on="0"/>
        <pt x="352" y="1352" on="1"/>
        <pt x="352" y="1385" on="0"/>
        <pt x="492" y="1385" on="1"/>
        <pt x="556" y="1385" on="0"/>
        <pt x="647" y="1338" on="0"/>
        <pt x="727" y="1147" on="0"/>
        <pt x="838" y="678" on="0"/>
        <pt x="876" y="510" on="0"/>
        <pt x="886" y="469" on="1"/>
        <pt x="901" y="413" on="1"/>
        <pt x="920" y="382" on="1"/>
        <pt x="942" y="382" on="0"/>
        <pt x="1490" y="1261" on="0"/>
        <pt x="1625" y="1388" on="0"/>
        <pt x="1876" y="1388" on="0"/>
        <pt x="1876" y="1354" on="1"/>
        <pt x="1853" y="1332" on="1"/>
        <pt x="1814" y="1306" on="1"/>
        <pt x="1758" y="1261" on="0"/>
        <pt x="1714" y="1109" on="0"/>
        <pt x="1618" y="541" on="1"/>
        <pt x="1566" y="241" on="1"/>
        <pt x="1561" y="186" on="1"/>
        <pt x="1561" y="144" on="0"/>
        <pt x="1604" y="105" on="1"/>
        <pt x="1667" y="47" on="1"/>
        <pt x="1667" y="0" on="0"/>
      </contour>
    </TTGlyph>
    <TTGlyph name="N" xMin="53" yMin="-4" xMax="1654" yMax="1389">
      <contour>
        <pt x="296" y="1364" on="1"/>
        <pt x="296" y="1387" on="0"/>
        <pt x="441" y="1387" on="0"/>
        <pt x="607" y="1333" on="0"/>
        <pt x="689" y="1248" on="0"/>
        <pt x="1161" y="335" on="0"/>
        <pt x="1199" y="335" on="1"/>
        <pt x="1214" y="362" on="1"/>
        <pt x="1222" y="383" on="0"/>
        <pt x="1255" y="541" on="1"/>
        <pt x="1275" y="639" on="1"/>
        <pt x="1285" y="695" on="0"/>
        <pt x="1355" y="1015" on="0"/>
        <pt x="1355" y="1191" on="0"/>
        <pt x="1335" y="1261" on="0"/>
        <pt x="1299" y="1335" on="0"/>
        <pt x="1299" y="1345" on="1"/>
        <pt x="1299" y="1389" on="0"/>
        <pt x="1383" y="1389" on="1"/>
        <pt x="1428" y="1389" on="1"/>
        <pt x="1654" y="1389" on="0"/>
        <pt x="1654" y="1361" on="1"/>
        <pt x="1654" y="1342" on="0"/>
        <pt x="1519" y="1270" on="0"/>
        <pt x="1485" y="1169" on="1"/>
        <pt x="1412" y="952" on="0"/>
        <pt x="1280" y="65" on="1"/>
        <pt x="1272" y="8" on="0"/>
        <pt x="1231" y="8" on="1"/>
        <pt x="1201" y="8" on="0"/>
        <pt x="1114" y="83" on="0"/>
        <pt x="1024" y="216" on="1"/>
        <pt x="1011" y="235" on="0"/>
        <pt x="549" y="1109" on="0"/>
        <pt x="521" y="1109" on="1"/>
        <pt x="506" y="1081" on="1"/>
        <pt x="496" y="1054" on="0"/>
        <pt x="440" y="746" on="0"/>
        <pt x="348" y="300" on="0"/>
        <pt x="348" y="143" on="0"/>
        <pt x="380" y="109" on="1"/>
        <pt x="408" y="89" on="1"/>
        <pt x="447" y="57" on="0"/>
        <pt x="447" y="43" on="1"/>
        <pt x="447" y="-4" on="0"/>
        <pt x="387" y="-4" on="1"/>
        <pt x="296" y="-4" on="1"/>
        <pt x="53" y="-4" on="0"/>
        <pt x="53" y="52" on="0"/>
        <pt x="79" y="70" on="1"/>
        <pt x="165" y="129" on="0"/>
        <pt x="174" y="140" on="1"/>
        <pt x="202" y="175" on="0"/>
        <pt x="238" y="303" on="0"/>
        <pt x="321" y="696" on="1"/>
        <pt x="361" y="892" on="1"/>
        <pt x="408" y="1107" on="0"/>
        <pt x="408" y="1217" on="1"/>
        <pt x="408" y="1249" on="0"/>
        <pt x="296" y="1332" on="0"/>
      </contour>
    </TTGlyph>
    <TTGlyph name="Nacute" xMin="51" yMin="-3" xMax="1651" yMax="1834">
      <contour>
        <pt x="918" y="1531" on="1"/>
        <pt x="918" y="1541" on="1"/>
        <pt x="918" y="1569" on="0"/>
        <pt x="1221" y="1834" on="0"/>
        <pt x="1237" y="1834" on="1"/>
        <pt x="1253" y="1834" on="1"/>
        <pt x="1335" y="1834" on="0"/>
        <pt x="1335" y="1776" on="1"/>
        <pt x="1335" y="1771" on="1"/>
        <pt x="1335" y="1740" on="0"/>
        <pt x="1227" y="1664" on="1"/>
        <pt x="998" y="1504" on="0"/>
        <pt x="947" y="1504" on="1"/>
        <pt x="918" y="1504" on="0"/>
      </contour>
      <contour>
        <pt x="331" y="-3" on="1"/>
        <pt x="101" y="-3" on="0"/>
        <pt x="61" y="32" on="1"/>
        <pt x="51" y="49" on="1"/>
        <pt x="51" y="68" on="0"/>
        <pt x="132" y="145" on="1"/>
        <pt x="181" y="191" on="0"/>
        <pt x="214" y="300" on="1"/>
        <pt x="225" y="335" on="0"/>
        <pt x="367" y="923" on="1"/>
        <pt x="407" y="1088" on="0"/>
        <pt x="407" y="1195" on="1"/>
        <pt x="407" y="1250" on="0"/>
        <pt x="299" y="1349" on="0"/>
        <pt x="299" y="1355" on="1"/>
        <pt x="299" y="1391" on="0"/>
        <pt x="493" y="1391" on="0"/>
        <pt x="636" y="1329" on="0"/>
        <pt x="694" y="1258" on="0"/>
        <pt x="1136" y="354" on="0"/>
        <pt x="1171" y="354" on="1"/>
        <pt x="1187" y="354" on="0"/>
        <pt x="1202" y="411" on="1"/>
        <pt x="1358" y="1014" on="0"/>
        <pt x="1358" y="1149" on="1"/>
        <pt x="1358" y="1208" on="0"/>
        <pt x="1292" y="1340" on="0"/>
        <pt x="1292" y="1371" on="1"/>
        <pt x="1292" y="1396" on="0"/>
        <pt x="1378" y="1396" on="1"/>
        <pt x="1651" y="1396" on="0"/>
        <pt x="1651" y="1347" on="0"/>
        <pt x="1507" y="1278" on="0"/>
        <pt x="1476" y="1190" on="1"/>
        <pt x="1466" y="1163" on="0"/>
        <pt x="1392" y="853" on="1"/>
        <pt x="1358" y="704" on="1"/>
        <pt x="1341" y="630" on="0"/>
        <pt x="1245" y="239" on="0"/>
        <pt x="1245" y="175" on="1"/>
        <pt x="1246" y="131" on="1"/>
        <pt x="1247" y="92" on="1"/>
        <pt x="1247" y="12" on="0"/>
        <pt x="1205" y="12" on="1"/>
        <pt x="1189" y="12" on="0"/>
        <pt x="1141" y="57" on="1"/>
        <pt x="1020" y="170" on="0"/>
        <pt x="968" y="261" on="1"/>
        <pt x="946" y="304" on="1"/>
        <pt x="902" y="391" on="0"/>
        <pt x="858" y="479" on="1"/>
        <pt x="814" y="569" on="1"/>
        <pt x="763" y="674" on="0"/>
        <pt x="748" y="703" on="1"/>
        <pt x="547" y="1100" on="0"/>
        <pt x="513" y="1100" on="0"/>
        <pt x="474" y="958" on="0"/>
        <pt x="321" y="253" on="0"/>
        <pt x="321" y="225" on="1"/>
        <pt x="321" y="140" on="0"/>
        <pt x="350" y="111" on="1"/>
        <pt x="384" y="90" on="1"/>
        <pt x="429" y="62" on="0"/>
        <pt x="436" y="50" on="1"/>
        <pt x="441" y="28" on="1"/>
        <pt x="441" y="-3" on="0"/>
        <pt x="379" y="-3" on="1"/>
      </contour>
    </TTGlyph>
    <TTGlyph name="Ntilde" xMin="34" yMin="-6" xMax="1647" yMax="1771">
      <contour>
        <pt x="899" y="1771" on="1"/>
        <pt x="921" y="1771" on="1"/>
        <pt x="962" y="1771" on="0"/>
        <pt x="1117" y="1684" on="0"/>
        <pt x="1205" y="1684" on="0"/>
        <pt x="1306" y="1768" on="0"/>
        <pt x="1309" y="1768" on="1"/>
        <pt x="1332" y="1768" on="0"/>
        <pt x="1332" y="1743" on="1"/>
        <pt x="1332" y="1735" on="1"/>
        <pt x="1332" y="1690" on="0"/>
        <pt x="1197" y="1566" on="0"/>
        <pt x="1135" y="1566" on="1"/>
        <pt x="1106" y="1566" on="1"/>
        <pt x="1057" y="1566" on="0"/>
        <pt x="911" y="1654" on="0"/>
        <pt x="814" y="1654" on="0"/>
        <pt x="716" y="1572" on="0"/>
        <pt x="715" y="1572" on="1"/>
        <pt x="691" y="1572" on="0"/>
        <pt x="691" y="1639" on="0"/>
        <pt x="823" y="1771" on="0"/>
      </contour>
      <contour>
        <pt x="290" y="1353" on="1"/>
        <pt x="290" y="1398" on="0"/>
        <pt x="476" y="1398" on="0"/>
        <pt x="621" y="1327" on="0"/>
        <pt x="664" y="1267" on="1"/>
        <pt x="680" y="1245" on="0"/>
        <pt x="1152" y="322" on="0"/>
        <pt x="1184" y="322" on="1"/>
        <pt x="1198" y="351" on="1"/>
        <pt x="1206" y="372" on="0"/>
        <pt x="1351" y="1057" on="0"/>
        <pt x="1351" y="1173" on="1"/>
        <pt x="1351" y="1198" on="0"/>
        <pt x="1296" y="1353" on="0"/>
        <pt x="1296" y="1373" on="1"/>
        <pt x="1296" y="1403" on="0"/>
        <pt x="1412" y="1403" on="1"/>
        <pt x="1647" y="1403" on="0"/>
        <pt x="1647" y="1352" on="0"/>
        <pt x="1615" y="1336" on="1"/>
        <pt x="1516" y="1285" on="0"/>
        <pt x="1490" y="1249" on="0"/>
        <pt x="1459" y="1140" on="0"/>
        <pt x="1354" y="641" on="0"/>
        <pt x="1280" y="315" on="0"/>
        <pt x="1235" y="4" on="0"/>
        <pt x="1219" y="4" on="1"/>
        <pt x="1148" y="4" on="0"/>
        <pt x="1011" y="210" on="1"/>
        <pt x="996" y="232" on="0"/>
        <pt x="535" y="1124" on="0"/>
        <pt x="510" y="1124" on="1"/>
        <pt x="495" y="1124" on="0"/>
        <pt x="480" y="1060" on="1"/>
        <pt x="320" y="369" on="0"/>
        <pt x="320" y="230" on="1"/>
        <pt x="320" y="162" on="0"/>
        <pt x="351" y="119" on="1"/>
        <pt x="376" y="92" on="1"/>
        <pt x="403" y="67" on="1"/>
        <pt x="422" y="45" on="0"/>
        <pt x="422" y="26" on="1"/>
        <pt x="422" y="-6" on="0"/>
        <pt x="327" y="-6" on="1"/>
        <pt x="116" y="-6" on="0"/>
        <pt x="63" y="9" on="1"/>
        <pt x="34" y="17" on="0"/>
        <pt x="34" y="51" on="1"/>
        <pt x="57" y="69" on="1"/>
        <pt x="125" y="108" on="1"/>
        <pt x="166" y="138" on="0"/>
        <pt x="222" y="302" on="0"/>
        <pt x="401" y="1148" on="0"/>
        <pt x="401" y="1225" on="1"/>
        <pt x="401" y="1255" on="0"/>
        <pt x="366" y="1287" on="1"/>
        <pt x="334" y="1309" on="1"/>
        <pt x="290" y="1345" on="0"/>
      </contour>
    </TTGlyph>
    <TTGlyph name="O" xMin="127" yMin="-24" xMax="1455" yMax="1406">
      <contour>
        <pt x="1260" y="822" on="1"/>
        <pt x="1260" y="857" on="1"/>
        <pt x="1260" y="952" on="0"/>
        <pt x="1232" y="1042" on="1"/>
        <pt x="1150" y="1311" on="0"/>
        <pt x="899" y="1312" on="1"/>
        <pt x="676" y="1312" on="0"/>
        <pt x="503" y="1099" on="1"/>
        <pt x="422" y="1000" on="0"/>
        <pt x="321" y="705" on="0"/>
        <pt x="321" y="580" on="1"/>
        <pt x="321" y="528" on="1"/>
        <pt x="321" y="334" on="0"/>
        <pt x="418" y="203" on="1"/>
        <pt x="466" y="138" on="0"/>
        <pt x="598" y="72" on="0"/>
        <pt x="666" y="72" on="1"/>
        <pt x="701" y="72" on="1"/>
        <pt x="917" y="72" on="0"/>
        <pt x="1086" y="296" on="1"/>
        <pt x="1166" y="402" on="0"/>
        <pt x="1260" y="686" on="0"/>
      </contour>
      <contour>
        <pt x="908" y="1406" on="1"/>
        <pt x="930" y="1406" on="1"/>
        <pt x="1040" y="1406" on="0"/>
        <pt x="1143" y="1361" on="1"/>
        <pt x="1351" y="1270" on="0"/>
        <pt x="1427" y="1031" on="1"/>
        <pt x="1455" y="943" on="0"/>
        <pt x="1455" y="835" on="1"/>
        <pt x="1455" y="791" on="1"/>
        <pt x="1455" y="644" on="0"/>
        <pt x="1390" y="491" on="1"/>
        <pt x="1259" y="182" on="0"/>
        <pt x="991" y="51" on="1"/>
        <pt x="837" y="-24" on="0"/>
        <pt x="697" y="-24" on="1"/>
        <pt x="652" y="-24" on="1"/>
        <pt x="425" y="-24" on="0"/>
        <pt x="267" y="146" on="1"/>
        <pt x="201" y="216" on="0"/>
        <pt x="127" y="434" on="0"/>
        <pt x="127" y="547" on="1"/>
        <pt x="127" y="569" on="1"/>
        <pt x="127" y="724" on="0"/>
        <pt x="248" y="1034" on="0"/>
        <pt x="457" y="1265" on="0"/>
        <pt x="746" y="1406" on="0"/>
      </contour>
    </TTGlyph>
    <TTGlyph name="OE" xMin="141" yMin="-18" xMax="1913" yMax="1382">
      <contour>
        <pt x="1080" y="1192" on="1"/>
        <pt x="1080" y="1296" on="0"/>
        <pt x="880" y="1296" on="1"/>
        <pt x="776" y="1296" on="0"/>
        <pt x="676" y="1249" on="1"/>
        <pt x="466" y="1151" on="0"/>
        <pt x="365" y="858" on="1"/>
        <pt x="318" y="721" on="0"/>
        <pt x="318" y="572" on="1"/>
        <pt x="318" y="537" on="1"/>
        <pt x="318" y="330" on="0"/>
        <pt x="531" y="75" on="0"/>
        <pt x="686" y="75" on="1"/>
        <pt x="702" y="76" on="1"/>
        <pt x="717" y="76" on="1"/>
        <pt x="856" y="76" on="0"/>
        <pt x="894" y="184" on="1"/>
        <pt x="914" y="240" on="0"/>
        <pt x="1080" y="1184" on="0"/>
      </contour>
      <contour>
        <pt x="730" y="-18" on="0"/>
        <pt x="536" y="-18" on="0"/>
        <pt x="443" y="23" on="1"/>
        <pt x="250" y="108" on="0"/>
        <pt x="179" y="305" on="1"/>
        <pt x="141" y="410" on="0"/>
        <pt x="141" y="528" on="1"/>
        <pt x="141" y="575" on="1"/>
        <pt x="141" y="721" on="0"/>
        <pt x="264" y="1034" on="0"/>
        <pt x="374" y="1148" on="1"/>
        <pt x="597" y="1382" on="0"/>
        <pt x="910" y="1382" on="1"/>
        <pt x="1267" y="1359" on="1"/>
        <pt x="1312" y="1361" on="1"/>
        <pt x="1402" y="1366" on="1"/>
        <pt x="1425" y="1367" on="0"/>
        <pt x="1815" y="1367" on="0"/>
        <pt x="1842" y="1357" on="1"/>
        <pt x="1913" y="1330" on="0"/>
        <pt x="1913" y="1183" on="1"/>
        <pt x="1913" y="1138" on="0"/>
        <pt x="1867" y="1138" on="1"/>
        <pt x="1853" y="1149" on="1"/>
        <pt x="1824" y="1181" on="0"/>
        <pt x="1821" y="1183" on="1"/>
        <pt x="1697" y="1267" on="0"/>
        <pt x="1456" y="1267" on="1"/>
        <pt x="1411" y="1267" on="0"/>
        <pt x="1358" y="1227" on="0"/>
        <pt x="1325" y="1156" on="1"/>
        <pt x="1251" y="997" on="0"/>
        <pt x="1251" y="872" on="1"/>
        <pt x="1251" y="830" on="0"/>
        <pt x="1268" y="812" on="1"/>
        <pt x="1312" y="765" on="0"/>
        <pt x="1470" y="765" on="0"/>
        <pt x="1508" y="784" on="1"/>
        <pt x="1569" y="824" on="1"/>
        <pt x="1615" y="853" on="0"/>
        <pt x="1631" y="853" on="1"/>
        <pt x="1675" y="853" on="0"/>
        <pt x="1675" y="795" on="1"/>
        <pt x="1675" y="668" on="0"/>
        <pt x="1633" y="590" on="1"/>
        <pt x="1610" y="547" on="0"/>
        <pt x="1588" y="547" on="1"/>
        <pt x="1574" y="547" on="0"/>
        <pt x="1473" y="652" on="0"/>
        <pt x="1270" y="652" on="0"/>
        <pt x="1165" y="527" on="0"/>
        <pt x="1165" y="229" on="1"/>
        <pt x="1165" y="161" on="0"/>
        <pt x="1213" y="109" on="0"/>
        <pt x="1291" y="109" on="1"/>
        <pt x="1539" y="109" on="0"/>
        <pt x="1634" y="148" on="1"/>
        <pt x="1669" y="162" on="0"/>
        <pt x="1777" y="262" on="0"/>
        <pt x="1787" y="262" on="1"/>
        <pt x="1804" y="262" on="0"/>
        <pt x="1804" y="199" on="0"/>
        <pt x="1722" y="53" on="0"/>
        <pt x="1651" y="1" on="0"/>
        <pt x="1352" y="1" on="1"/>
        <pt x="1092" y="12" on="1"/>
        <pt x="1004" y="12" on="0"/>
      </contour>
    </TTGlyph>
    <TTGlyph name="Oacute" xMin="126" yMin="-16" xMax="1451" yMax="1842">
      <contour>
        <pt x="1266" y="840" on="1"/>
        <pt x="1266" y="894" on="1"/>
        <pt x="1266" y="1081" on="0"/>
        <pt x="1068" y="1335" on="0"/>
        <pt x="915" y="1335" on="1"/>
        <pt x="897" y="1335" on="1"/>
        <pt x="806" y="1335" on="0"/>
        <pt x="603" y="1246" on="0"/>
        <pt x="428" y="1040" on="0"/>
        <pt x="309" y="739" on="0"/>
        <pt x="309" y="591" on="1"/>
        <pt x="309" y="537" on="1"/>
        <pt x="309" y="340" on="0"/>
        <pt x="408" y="208" on="1"/>
        <pt x="506" y="77" on="0"/>
        <pt x="660" y="77" on="1"/>
        <pt x="661" y="77" on="0"/>
        <pt x="662" y="77" on="1"/>
        <pt x="697" y="77" on="1"/>
        <pt x="814" y="77" on="0"/>
        <pt x="1020" y="212" on="0"/>
        <pt x="1173" y="423" on="0"/>
        <pt x="1266" y="703" on="0"/>
      </contour>
      <contour>
        <pt x="866" y="1538" on="1"/>
        <pt x="866" y="1547" on="1"/>
        <pt x="866" y="1549" on="0"/>
        <pt x="1123" y="1842" on="0"/>
        <pt x="1169" y="1842" on="1"/>
        <pt x="1184" y="1842" on="1"/>
        <pt x="1194" y="1840" on="0"/>
        <pt x="1200" y="1840" on="1"/>
        <pt x="1261" y="1840" on="0"/>
        <pt x="1261" y="1794" on="1"/>
        <pt x="1261" y="1790" on="1"/>
        <pt x="1260" y="1785" on="1"/>
        <pt x="1260" y="1747" on="0"/>
        <pt x="1154" y="1676" on="1"/>
        <pt x="917" y="1518" on="0"/>
        <pt x="899" y="1518" on="1"/>
        <pt x="894" y="1518" on="1"/>
        <pt x="866" y="1518" on="0"/>
      </contour>
      <contour>
        <pt x="126" y="573" on="1"/>
        <pt x="126" y="725" on="0"/>
        <pt x="244" y="1046" on="0"/>
        <pt x="469" y="1295" on="0"/>
        <pt x="755" y="1427" on="0"/>
        <pt x="895" y="1427" on="1"/>
        <pt x="1148" y="1427" on="0"/>
        <pt x="1300" y="1271" on="1"/>
        <pt x="1451" y="1115" on="0"/>
        <pt x="1451" y="838" on="1"/>
        <pt x="1451" y="687" on="0"/>
        <pt x="1333" y="365" on="0"/>
        <pt x="1112" y="121" on="0"/>
        <pt x="830" y="-16" on="0"/>
        <pt x="703" y="-16" on="1"/>
        <pt x="635" y="-16" on="1"/>
        <pt x="536" y="-16" on="0"/>
        <pt x="436" y="30" on="1"/>
        <pt x="234" y="123" on="0"/>
        <pt x="162" y="334" on="1"/>
        <pt x="126" y="439" on="0"/>
        <pt x="126" y="551" on="1"/>
      </contour>
    </TTGlyph>
    <TTGlyph name="Ocircumflex" xMin="135" yMin="-21" xMax="1459" yMax="1838">
      <contour>
        <pt x="924" y="1330" on="1"/>
        <pt x="887" y="1330" on="1"/>
        <pt x="778" y="1330" on="0"/>
        <pt x="564" y="1197" on="0"/>
        <pt x="503" y="1113" on="1"/>
        <pt x="317" y="855" on="0"/>
        <pt x="317" y="568" on="1"/>
        <pt x="317" y="550" on="1"/>
        <pt x="318" y="533" on="1"/>
        <pt x="318" y="425" on="0"/>
        <pt x="349" y="335" on="1"/>
        <pt x="408" y="165" on="0"/>
        <pt x="535" y="103" on="1"/>
        <pt x="599" y="72" on="0"/>
        <pt x="670" y="72" on="1"/>
        <pt x="688" y="72" on="1"/>
        <pt x="931" y="72" on="0"/>
        <pt x="1099" y="305" on="1"/>
        <pt x="1181" y="418" on="0"/>
        <pt x="1275" y="700" on="0"/>
        <pt x="1275" y="835" on="1"/>
        <pt x="1275" y="871" on="1"/>
        <pt x="1275" y="1076" on="0"/>
        <pt x="1077" y="1330" on="0"/>
      </contour>
      <contour>
        <pt x="1003" y="1838" on="1"/>
        <pt x="1024" y="1838" on="1"/>
        <pt x="1051" y="1838" on="0"/>
        <pt x="1143" y="1677" on="0"/>
        <pt x="1217" y="1557" on="0"/>
        <pt x="1217" y="1554" on="1"/>
        <pt x="1217" y="1522" on="0"/>
        <pt x="1184" y="1522" on="1"/>
        <pt x="1161" y="1522" on="0"/>
        <pt x="992" y="1691" on="0"/>
        <pt x="974" y="1691" on="1"/>
        <pt x="969" y="1691" on="0"/>
        <pt x="728" y="1524" on="0"/>
        <pt x="679" y="1524" on="0"/>
        <pt x="679" y="1544" on="1"/>
        <pt x="679" y="1548" on="0"/>
        <pt x="969" y="1838" on="0"/>
      </contour>
      <contour>
        <pt x="905" y="1422" on="1"/>
        <pt x="928" y="1422" on="1"/>
        <pt x="1047" y="1422" on="0"/>
        <pt x="1148" y="1378" on="1"/>
        <pt x="1339" y="1295" on="0"/>
        <pt x="1415" y="1092" on="1"/>
        <pt x="1459" y="975" on="0"/>
        <pt x="1459" y="855" on="1"/>
        <pt x="1459" y="811" on="1"/>
        <pt x="1459" y="665" on="0"/>
        <pt x="1333" y="350" on="0"/>
        <pt x="1117" y="112" on="0"/>
        <pt x="829" y="-21" on="0"/>
        <pt x="689" y="-21" on="1"/>
        <pt x="644" y="-21" on="1"/>
        <pt x="550" y="-20" on="0"/>
        <pt x="452" y="22" on="1"/>
        <pt x="252" y="109" on="0"/>
        <pt x="178" y="309" on="1"/>
        <pt x="135" y="427" on="0"/>
        <pt x="135" y="524" on="1"/>
        <pt x="135" y="591" on="1"/>
        <pt x="135" y="743" on="0"/>
        <pt x="264" y="1054" on="0"/>
        <pt x="475" y="1287" on="0"/>
        <pt x="759" y="1422" on="0"/>
      </contour>
    </TTGlyph>
    <TTGlyph name="Odieresis" xMin="132" yMin="-18" xMax="1457" yMax="1771">
      <contour>
        <pt x="315" y="589" on="1"/>
        <pt x="315" y="536" on="1"/>
        <pt x="315" y="446" on="0"/>
        <pt x="343" y="354" on="1"/>
        <pt x="398" y="174" on="0"/>
        <pt x="533" y="107" on="1"/>
        <pt x="599" y="75" on="0"/>
        <pt x="810" y="75" on="0"/>
        <pt x="1012" y="196" on="0"/>
        <pt x="1178" y="415" on="0"/>
        <pt x="1273" y="709" on="0"/>
        <pt x="1273" y="857" on="1"/>
        <pt x="1272" y="875" on="1"/>
        <pt x="1272" y="893" on="1"/>
        <pt x="1272" y="982" on="0"/>
        <pt x="1242" y="1072" on="1"/>
        <pt x="1154" y="1333" on="0"/>
        <pt x="903" y="1334" on="1"/>
        <pt x="685" y="1334" on="0"/>
        <pt x="512" y="1130" on="1"/>
        <pt x="434" y="1038" on="0"/>
        <pt x="315" y="737" on="0"/>
      </contour>
      <contour>
        <pt x="780" y="1770" on="1"/>
        <pt x="793" y="1770" on="1"/>
        <pt x="802" y="1767" on="0"/>
        <pt x="833" y="1767" on="0"/>
        <pt x="877" y="1712" on="0"/>
        <pt x="877" y="1679" on="1"/>
        <pt x="877" y="1673" on="1"/>
        <pt x="873" y="1648" on="1"/>
        <pt x="873" y="1628" on="0"/>
        <pt x="816" y="1571" on="0"/>
        <pt x="790" y="1571" on="1"/>
        <pt x="771" y="1569" on="1"/>
        <pt x="768" y="1569" on="1"/>
        <pt x="744" y="1573" on="1"/>
        <pt x="724" y="1573" on="0"/>
        <pt x="681" y="1627" on="0"/>
        <pt x="681" y="1659" on="1"/>
        <pt x="681" y="1663" on="1"/>
        <pt x="686" y="1694" on="1"/>
        <pt x="686" y="1704" on="0"/>
        <pt x="739" y="1770" on="0"/>
      </contour>
      <contour>
        <pt x="1149" y="1570" on="1"/>
        <pt x="1127" y="1570" on="1"/>
        <pt x="1104" y="1570" on="0"/>
        <pt x="1049" y="1614" on="0"/>
        <pt x="1049" y="1636" on="1"/>
        <pt x="1047" y="1642" on="0"/>
        <pt x="1047" y="1645" on="1"/>
        <pt x="1045" y="1661" on="1"/>
        <pt x="1045" y="1667" on="1"/>
        <pt x="1049" y="1692" on="1"/>
        <pt x="1049" y="1712" on="0"/>
        <pt x="1104" y="1767" on="0"/>
        <pt x="1129" y="1769" on="0"/>
        <pt x="1132" y="1769" on="1"/>
        <pt x="1144" y="1771" on="1"/>
        <pt x="1157" y="1771" on="1"/>
        <pt x="1195" y="1771" on="0"/>
        <pt x="1242" y="1712" on="0"/>
        <pt x="1242" y="1684" on="1"/>
        <pt x="1242" y="1674" on="1"/>
        <pt x="1241" y="1671" on="1"/>
        <pt x="1241" y="1668" on="1"/>
        <pt x="1238" y="1649" on="1"/>
        <pt x="1238" y="1629" on="0"/>
        <pt x="1179" y="1570" on="0"/>
      </contour>
      <contour>
        <pt x="903" y="1425" on="1"/>
        <pt x="948" y="1425" on="1"/>
        <pt x="1050" y="1424" on="0"/>
        <pt x="1150" y="1378" on="1"/>
        <pt x="1353" y="1284" on="0"/>
        <pt x="1427" y="1055" on="1"/>
        <pt x="1457" y="960" on="0"/>
        <pt x="1457" y="686" on="0"/>
        <pt x="1400" y="530" on="1"/>
        <pt x="1278" y="198" on="0"/>
        <pt x="982" y="54" on="1"/>
        <pt x="834" y="-18" on="0"/>
        <pt x="686" y="-18" on="1"/>
        <pt x="664" y="-18" on="1"/>
        <pt x="431" y="-18" on="0"/>
        <pt x="275" y="148" on="1"/>
        <pt x="207" y="220" on="0"/>
        <pt x="132" y="436" on="0"/>
        <pt x="132" y="549" on="1"/>
        <pt x="132" y="572" on="1"/>
        <pt x="132" y="724" on="0"/>
        <pt x="249" y="1044" on="0"/>
        <pt x="470" y="1287" on="0"/>
        <pt x="753" y="1425" on="0"/>
      </contour>
    </TTGlyph>
    <TTGlyph name="Ograve" xMin="135" yMin="-17" xMax="1459" yMax="1844">
      <contour>
        <pt x="1275" y="840" on="1"/>
        <pt x="1275" y="876" on="1"/>
        <pt x="1275" y="1081" on="0"/>
        <pt x="1079" y="1335" on="0"/>
        <pt x="924" y="1335" on="1"/>
        <pt x="906" y="1335" on="1"/>
        <pt x="794" y="1335" on="0"/>
        <pt x="686" y="1276" on="1"/>
        <pt x="463" y="1153" on="0"/>
        <pt x="359" y="836" on="1"/>
        <pt x="317" y="706" on="0"/>
        <pt x="317" y="573" on="1"/>
        <pt x="317" y="555" on="1"/>
        <pt x="318" y="537" on="1"/>
        <pt x="318" y="341" on="0"/>
        <pt x="514" y="77" on="0"/>
        <pt x="670" y="77" on="1"/>
        <pt x="706" y="77" on="1"/>
        <pt x="804" y="77" on="0"/>
        <pt x="1008" y="189" on="0"/>
        <pt x="1179" y="417" on="0"/>
        <pt x="1275" y="704" on="0"/>
      </contour>
      <contour>
        <pt x="1009" y="1520" on="1"/>
        <pt x="1000" y="1520" on="1"/>
        <pt x="977" y="1520" on="0"/>
        <pt x="786" y="1663" on="1"/>
        <pt x="678" y="1744" on="0"/>
        <pt x="678" y="1785" on="1"/>
        <pt x="679" y="1789" on="1"/>
        <pt x="679" y="1844" on="0"/>
        <pt x="757" y="1844" on="1"/>
        <pt x="777" y="1844" on="1"/>
        <pt x="817" y="1844" on="0"/>
        <pt x="894" y="1741" on="1"/>
        <pt x="1032" y="1557" on="0"/>
        <pt x="1032" y="1547" on="1"/>
        <pt x="1032" y="1520" on="0"/>
      </contour>
      <contour>
        <pt x="135" y="595" on="1"/>
        <pt x="135" y="751" on="0"/>
        <pt x="270" y="1070" on="0"/>
        <pt x="497" y="1312" on="0"/>
        <pt x="784" y="1427" on="0"/>
        <pt x="918" y="1427" on="1"/>
        <pt x="1052" y="1426" on="0"/>
        <pt x="1152" y="1380" on="1"/>
        <pt x="1341" y="1292" on="0"/>
        <pt x="1415" y="1097" on="1"/>
        <pt x="1459" y="980" on="0"/>
        <pt x="1459" y="860" on="1"/>
        <pt x="1459" y="816" on="1"/>
        <pt x="1459" y="673" on="0"/>
        <pt x="1335" y="357" on="0"/>
        <pt x="1123" y="122" on="0"/>
        <pt x="837" y="-17" on="0"/>
        <pt x="689" y="-17" on="1"/>
        <pt x="666" y="-17" on="1"/>
        <pt x="558" y="-17" on="0"/>
        <pt x="458" y="24" on="1"/>
        <pt x="254" y="108" on="0"/>
        <pt x="178" y="314" on="1"/>
        <pt x="135" y="429" on="0"/>
        <pt x="135" y="528" on="1"/>
      </contour>
    </TTGlyph>
    <TTGlyph name="Oslash" xMin="152" yMin="-40" xMax="1443" yMax="1431">
      <contour>
        <pt x="316" y="573" on="1"/>
        <pt x="316" y="543" on="1"/>
        <pt x="316" y="434" on="0"/>
        <pt x="380" y="241" on="0"/>
        <pt x="409" y="241" on="1"/>
        <pt x="419" y="241" on="1"/>
        <pt x="466" y="241" on="0"/>
        <pt x="1103" y="1140" on="0"/>
        <pt x="1103" y="1190" on="1"/>
        <pt x="1103" y="1202" on="1"/>
        <pt x="1103" y="1257" on="0"/>
        <pt x="1035" y="1300" on="1"/>
        <pt x="993" y="1327" on="0"/>
        <pt x="927" y="1327" on="1"/>
        <pt x="882" y="1327" on="1"/>
        <pt x="787" y="1327" on="0"/>
        <pt x="579" y="1211" on="0"/>
        <pt x="410" y="995" on="0"/>
        <pt x="316" y="702" on="0"/>
      </contour>
      <contour>
        <pt x="1258" y="931" on="1"/>
        <pt x="1258" y="973" on="1"/>
        <pt x="1258" y="1087" on="0"/>
        <pt x="1225" y="1139" on="1"/>
        <pt x="1212" y="1160" on="0"/>
        <pt x="1179" y="1160" on="0"/>
        <pt x="803" y="607" on="0"/>
        <pt x="721" y="502" on="1"/>
        <pt x="492" y="209" on="0"/>
        <pt x="492" y="178" on="1"/>
        <pt x="492" y="167" on="1"/>
        <pt x="492" y="126" on="0"/>
        <pt x="566" y="78" on="0"/>
        <pt x="616" y="78" on="1"/>
        <pt x="629" y="78" on="1"/>
        <pt x="747" y="78" on="0"/>
        <pt x="971" y="218" on="0"/>
        <pt x="1153" y="474" on="0"/>
        <pt x="1258" y="802" on="0"/>
      </contour>
      <contour>
        <pt x="504" y="-8" on="1"/>
        <pt x="469" y="-4" on="0"/>
        <pt x="423" y="-4" on="0"/>
        <pt x="369" y="-19" on="1"/>
        <pt x="301" y="-40" on="1"/>
        <pt x="287" y="-39" on="1"/>
        <pt x="275" y="-39" on="1"/>
        <pt x="228" y="-39" on="0"/>
        <pt x="228" y="11" on="1"/>
        <pt x="228" y="16" on="0"/>
        <pt x="247" y="109" on="0"/>
        <pt x="247" y="160" on="0"/>
        <pt x="152" y="423" on="0"/>
        <pt x="152" y="513" on="1"/>
        <pt x="152" y="591" on="1"/>
        <pt x="152" y="750" on="0"/>
        <pt x="305" y="1093" on="0"/>
        <pt x="552" y="1327" on="0"/>
        <pt x="819" y="1423" on="0"/>
        <pt x="987" y="1423" on="1"/>
        <pt x="1143" y="1410" on="1"/>
        <pt x="1199" y="1410" on="0"/>
        <pt x="1288" y="1431" on="1"/>
        <pt x="1334" y="1431" on="0"/>
        <pt x="1348" y="1409" on="1"/>
        <pt x="1360" y="1389" on="0"/>
        <pt x="1360" y="1350" on="1"/>
        <pt x="1360" y="1346" on="0"/>
        <pt x="1360" y="1342" on="1"/>
        <pt x="1358" y="1296" on="0"/>
        <pt x="1358" y="1294" on="1"/>
        <pt x="1358" y="1230" on="0"/>
        <pt x="1400" y="1108" on="1"/>
        <pt x="1442" y="987" on="0"/>
        <pt x="1443" y="828" on="1"/>
        <pt x="1443" y="677" on="0"/>
        <pt x="1378" y="514" on="1"/>
        <pt x="1312" y="350" on="0"/>
        <pt x="1194" y="224" on="1"/>
        <pt x="968" y="-15" on="0"/>
        <pt x="621" y="-16" on="1"/>
      </contour>
    </TTGlyph>
    <TTGlyph name="Otilde" xMin="134" yMin="-20" xMax="1459" yMax="1774">
      <contour>
        <pt x="923" y="1331" on="1"/>
        <pt x="887" y="1331" on="1"/>
        <pt x="789" y="1331" on="0"/>
        <pt x="685" y="1272" on="1"/>
        <pt x="474" y="1152" on="0"/>
        <pt x="376" y="883" on="1"/>
        <pt x="317" y="721" on="0"/>
        <pt x="317" y="587" on="1"/>
        <pt x="317" y="533" on="1"/>
        <pt x="317" y="336" on="0"/>
        <pt x="513" y="74" on="0"/>
        <pt x="670" y="73" on="1"/>
        <pt x="705" y="73" on="1"/>
        <pt x="916" y="73" on="0"/>
        <pt x="1088" y="292" on="1"/>
        <pt x="1175" y="403" on="0"/>
        <pt x="1274" y="699" on="0"/>
        <pt x="1274" y="836" on="1"/>
        <pt x="1274" y="890" on="1"/>
        <pt x="1274" y="980" on="0"/>
        <pt x="1244" y="1070" on="1"/>
        <pt x="1188" y="1237" on="0"/>
        <pt x="1059" y="1300" on="1"/>
        <pt x="995" y="1331" on="0"/>
      </contour>
      <contour>
        <pt x="851" y="1774" on="1"/>
        <pt x="873" y="1774" on="1"/>
        <pt x="914" y="1774" on="0"/>
        <pt x="1069" y="1687" on="0"/>
        <pt x="1159" y="1687" on="0"/>
        <pt x="1259" y="1771" on="0"/>
        <pt x="1260" y="1771" on="1"/>
        <pt x="1284" y="1771" on="0"/>
        <pt x="1284" y="1746" on="1"/>
        <pt x="1284" y="1738" on="1"/>
        <pt x="1284" y="1693" on="0"/>
        <pt x="1149" y="1569" on="0"/>
        <pt x="1087" y="1569" on="1"/>
        <pt x="1057" y="1569" on="1"/>
        <pt x="1009" y="1569" on="0"/>
        <pt x="863" y="1657" on="0"/>
        <pt x="766" y="1657" on="0"/>
        <pt x="668" y="1575" on="0"/>
        <pt x="667" y="1575" on="1"/>
        <pt x="643" y="1575" on="0"/>
        <pt x="643" y="1642" on="0"/>
        <pt x="775" y="1774" on="0"/>
      </contour>
      <contour>
        <pt x="905" y="1423" on="1"/>
        <pt x="928" y="1423" on="1"/>
        <pt x="1044" y="1423" on="0"/>
        <pt x="1140" y="1382" on="1"/>
        <pt x="1340" y="1297" on="0"/>
        <pt x="1422" y="1073" on="1"/>
        <pt x="1459" y="972" on="0"/>
        <pt x="1459" y="828" on="1"/>
        <pt x="1458" y="684" on="0"/>
        <pt x="1402" y="528" on="1"/>
        <pt x="1288" y="214" on="0"/>
        <pt x="1004" y="61" on="1"/>
        <pt x="854" y="-20" on="0"/>
        <pt x="711" y="-20" on="1"/>
        <pt x="643" y="-20" on="1"/>
        <pt x="544" y="-20" on="0"/>
        <pt x="444" y="26" on="1"/>
        <pt x="242" y="119" on="0"/>
        <pt x="170" y="330" on="1"/>
        <pt x="134" y="435" on="0"/>
        <pt x="134" y="547" on="1"/>
        <pt x="134" y="569" on="1"/>
        <pt x="134" y="721" on="0"/>
        <pt x="252" y="1042" on="0"/>
        <pt x="472" y="1285" on="0"/>
        <pt x="755" y="1423" on="0"/>
      </contour>
    </TTGlyph>
    <TTGlyph name="P" xMin="57" yMin="-11" xMax="1276" yMax="1401">
      <contour>
        <pt x="514" y="717" on="1"/>
        <pt x="514" y="699" on="1"/>
        <pt x="514" y="675" on="0"/>
        <pt x="593" y="675" on="1"/>
        <pt x="656" y="675" on="1"/>
        <pt x="844" y="675" on="0"/>
        <pt x="969" y="775" on="1"/>
        <pt x="1016" y="812" on="0"/>
        <pt x="1089" y="951" on="0"/>
        <pt x="1089" y="1033" on="1"/>
        <pt x="1089" y="1065" on="1"/>
        <pt x="1089" y="1187" on="0"/>
        <pt x="920" y="1311" on="0"/>
        <pt x="793" y="1311" on="1"/>
        <pt x="751" y="1311" on="1"/>
        <pt x="648" y="1311" on="0"/>
        <pt x="628" y="1262" on="1"/>
        <pt x="617" y="1235" on="0"/>
        <pt x="514" y="721" on="0"/>
      </contour>
      <contour>
        <pt x="57" y="39" on="1"/>
        <pt x="57" y="64" on="0"/>
        <pt x="160" y="115" on="0"/>
        <pt x="186" y="147" on="1"/>
        <pt x="245" y="220" on="0"/>
        <pt x="328" y="704" on="1"/>
        <pt x="356" y="869" on="0"/>
        <pt x="356" y="1135" on="0"/>
        <pt x="386" y="1229" on="0"/>
        <pt x="386" y="1231" on="1"/>
        <pt x="386" y="1263" on="0"/>
        <pt x="269" y="1293" on="0"/>
        <pt x="269" y="1358" on="0"/>
        <pt x="348" y="1371" on="1"/>
        <pt x="532" y="1401" on="0"/>
        <pt x="720" y="1401" on="1"/>
        <pt x="775" y="1401" on="1"/>
        <pt x="1137" y="1401" on="0"/>
        <pt x="1241" y="1200" on="1"/>
        <pt x="1276" y="1133" on="0"/>
        <pt x="1276" y="1038" on="1"/>
        <pt x="1276" y="831" on="0"/>
        <pt x="1102" y="700" on="1"/>
        <pt x="1025" y="642" on="0"/>
        <pt x="822" y="588" on="0"/>
        <pt x="661" y="588" on="1"/>
        <pt x="578" y="591" on="1"/>
        <pt x="511" y="591" on="0"/>
        <pt x="481" y="540" on="1"/>
        <pt x="469" y="519" on="0"/>
        <pt x="420" y="262" on="0"/>
        <pt x="420" y="142" on="0"/>
        <pt x="466" y="77" on="0"/>
        <pt x="532" y="52" on="0"/>
        <pt x="532" y="36" on="1"/>
        <pt x="532" y="-11" on="0"/>
        <pt x="419" y="-11" on="1"/>
        <pt x="392" y="-11" on="1"/>
        <pt x="369" y="-11" on="0"/>
        <pt x="261" y="-5" on="1"/>
        <pt x="149" y="0" on="1"/>
        <pt x="57" y="0" on="0"/>
      </contour>
    </TTGlyph>
    <TTGlyph name="Q" xMin="132" yMin="-289" xMax="1462" yMax="1391">
      <contour>
        <pt x="1298" y="766" on="1"/>
        <pt x="1298" y="802" on="1"/>
        <pt x="1298" y="900" on="0"/>
        <pt x="1267" y="993" on="1"/>
        <pt x="1203" y="1185" on="0"/>
        <pt x="1053" y="1258" on="1"/>
        <pt x="972" y="1297" on="0"/>
        <pt x="881" y="1297" on="1"/>
        <pt x="863" y="1297" on="1"/>
        <pt x="863" y="1297" on="0"/>
        <pt x="859" y="1297" on="1"/>
        <pt x="754" y="1297" on="0"/>
        <pt x="654" y="1242" on="1"/>
        <pt x="445" y="1128" on="0"/>
        <pt x="353" y="872" on="1"/>
        <pt x="299" y="723" on="0"/>
        <pt x="299" y="592" on="1"/>
        <pt x="299" y="556" on="1"/>
        <pt x="300" y="464" on="0"/>
        <pt x="330" y="370" on="1"/>
        <pt x="393" y="177" on="0"/>
        <pt x="544" y="99" on="1"/>
        <pt x="620" y="60" on="0"/>
        <pt x="698" y="60" on="1"/>
        <pt x="734" y="60" on="1"/>
        <pt x="840" y="60" on="0"/>
        <pt x="943" y="116" on="1"/>
        <pt x="1162" y="236" on="0"/>
        <pt x="1256" y="520" on="1"/>
        <pt x="1298" y="646" on="0"/>
      </contour>
      <contour>
        <pt x="1410" y="-156" on="0"/>
        <pt x="1410" y="-203" on="0"/>
        <pt x="1372" y="-227" on="1"/>
        <pt x="1276" y="-289" on="0"/>
        <pt x="1087" y="-289" on="0"/>
        <pt x="1011" y="-255" on="1"/>
        <pt x="438" y="2" on="0"/>
        <pt x="230" y="181" on="0"/>
        <pt x="132" y="423" on="0"/>
        <pt x="132" y="708" on="0"/>
        <pt x="233" y="1007" on="0"/>
        <pt x="448" y="1250" on="0"/>
        <pt x="735" y="1391" on="0"/>
        <pt x="886" y="1391" on="1"/>
        <pt x="915" y="1391" on="1"/>
        <pt x="1147" y="1391" on="0"/>
        <pt x="1298" y="1236" on="1"/>
        <pt x="1375" y="1157" on="0"/>
        <pt x="1462" y="930" on="0"/>
        <pt x="1462" y="800" on="1"/>
        <pt x="1462" y="771" on="1"/>
        <pt x="1462" y="660" on="0"/>
        <pt x="1424" y="538" on="1"/>
        <pt x="1340" y="268" on="0"/>
        <pt x="1123" y="114" on="1"/>
        <pt x="966" y="2" on="0"/>
        <pt x="966" y="-26" on="0"/>
        <pt x="1022" y="-60" on="1"/>
        <pt x="1190" y="-163" on="0"/>
        <pt x="1268" y="-163" on="1"/>
        <pt x="1366" y="-156" on="1"/>
      </contour>
    </TTGlyph>
    <TTGlyph name="R" xMin="21" yMin="-11" xMax="1249" yMax="1395">
      <contour>
        <pt x="757" y="1310" on="1"/>
        <pt x="717" y="1310" on="1"/>
        <pt x="613" y="1310" on="0"/>
        <pt x="570" y="1218" on="0"/>
        <pt x="533" y="987" on="0"/>
        <pt x="489" y="777" on="0"/>
        <pt x="489" y="754" on="1"/>
        <pt x="489" y="724" on="0"/>
        <pt x="558" y="724" on="1"/>
        <pt x="597" y="724" on="1"/>
        <pt x="606" y="725" on="1"/>
        <pt x="798" y="725" on="0"/>
        <pt x="1025" y="903" on="0"/>
        <pt x="1025" y="1066" on="1"/>
        <pt x="1024" y="1076" on="1"/>
        <pt x="1024" y="1177" on="0"/>
        <pt x="880" y="1310" on="0"/>
      </contour>
      <contour>
        <pt x="21" y="38" on="1"/>
        <pt x="21" y="45" on="0"/>
        <pt x="57" y="65" on="1"/>
        <pt x="83" y="78" on="1"/>
        <pt x="129" y="99" on="0"/>
        <pt x="136" y="105" on="1"/>
        <pt x="176" y="137" on="0"/>
        <pt x="194" y="209" on="1"/>
        <pt x="242" y="395" on="0"/>
        <pt x="381" y="1183" on="0"/>
        <pt x="381" y="1247" on="1"/>
        <pt x="381" y="1278" on="0"/>
        <pt x="281" y="1333" on="0"/>
        <pt x="281" y="1354" on="1"/>
        <pt x="281" y="1394" on="0"/>
        <pt x="638" y="1394" on="1"/>
        <pt x="707" y="1395" on="1"/>
        <pt x="965" y="1395" on="0"/>
        <pt x="1200" y="1234" on="0"/>
        <pt x="1200" y="1088" on="1"/>
        <pt x="1200" y="845" on="0"/>
        <pt x="977" y="701" on="1"/>
        <pt x="879" y="638" on="0"/>
        <pt x="879" y="599" on="1"/>
        <pt x="879" y="590" on="0"/>
        <pt x="1037" y="210" on="0"/>
        <pt x="1109" y="106" on="0"/>
        <pt x="1249" y="66" on="0"/>
        <pt x="1249" y="26" on="0"/>
        <pt x="1171" y="-11" on="0"/>
        <pt x="960" y="-11" on="0"/>
        <pt x="847" y="132" on="0"/>
        <pt x="750" y="483" on="0"/>
        <pt x="657" y="620" on="0"/>
        <pt x="547" y="620" on="1"/>
        <pt x="489" y="620" on="0"/>
        <pt x="464" y="563" on="1"/>
        <pt x="388" y="391" on="0"/>
        <pt x="388" y="194" on="1"/>
        <pt x="388" y="143" on="0"/>
        <pt x="472" y="66" on="0"/>
        <pt x="472" y="38" on="1"/>
        <pt x="472" y="1" on="0"/>
        <pt x="244" y="1" on="1"/>
        <pt x="105" y="-1" on="1"/>
        <pt x="21" y="-1" on="0"/>
      </contour>
    </TTGlyph>
    <TTGlyph name="S" xMin="70" yMin="-14" xMax="1068" yMax="1407">
      <contour>
        <pt x="1068" y="1301" on="1"/>
        <pt x="1068" y="1271" on="1"/>
        <pt x="1068" y="1159" on="0"/>
        <pt x="1030" y="1085" on="1"/>
        <pt x="1016" y="1057" on="0"/>
        <pt x="996" y="1057" on="1"/>
        <pt x="966" y="1057" on="0"/>
        <pt x="905" y="1206" on="0"/>
        <pt x="850" y="1258" on="1"/>
        <pt x="796" y="1310" on="0"/>
        <pt x="694" y="1310" on="1"/>
        <pt x="692" y="1310" on="1"/>
        <pt x="589" y="1310" on="0"/>
        <pt x="527" y="1266" on="1"/>
        <pt x="433" y="1200" on="0"/>
        <pt x="433" y="990" on="0"/>
        <pt x="526" y="903" on="1"/>
        <pt x="550" y="880" on="0"/>
        <pt x="852" y="688" on="0"/>
        <pt x="982" y="528" on="0"/>
        <pt x="982" y="420" on="1"/>
        <pt x="982" y="219" on="0"/>
        <pt x="843" y="102" on="1"/>
        <pt x="704" y="-14" on="0"/>
        <pt x="500" y="-14" on="1"/>
        <pt x="465" y="-14" on="1"/>
        <pt x="331" y="-14" on="0"/>
        <pt x="120" y="51" on="1"/>
        <pt x="70" y="66" on="0"/>
        <pt x="70" y="131" on="1"/>
        <pt x="70" y="162" on="1"/>
        <pt x="70" y="276" on="0"/>
        <pt x="110" y="349" on="1"/>
        <pt x="124" y="375" on="0"/>
        <pt x="139" y="375" on="1"/>
        <pt x="176" y="375" on="0"/>
        <pt x="242" y="187" on="0"/>
        <pt x="391" y="82" on="0"/>
        <pt x="631" y="82" on="0"/>
        <pt x="802" y="214" on="0"/>
        <pt x="802" y="422" on="0"/>
        <pt x="693" y="548" on="0"/>
        <pt x="398" y="736" on="0"/>
        <pt x="263" y="900" on="0"/>
        <pt x="263" y="1004" on="1"/>
        <pt x="263" y="1187" on="0"/>
        <pt x="513" y="1407" on="0"/>
        <pt x="693" y="1407" on="1"/>
        <pt x="727" y="1407" on="1"/>
        <pt x="767" y="1407" on="0"/>
        <pt x="953" y="1359" on="0"/>
        <pt x="954" y="1359" on="1"/>
        <pt x="982" y="1363" on="1"/>
        <pt x="1009" y="1368" on="1"/>
        <pt x="1068" y="1368" on="0"/>
      </contour>
    </TTGlyph>
    <TTGlyph name="Scaron" xMin="57" yMin="-10" xMax="1057" yMax="1834">
      <contour>
        <pt x="1057" y="1821" on="1"/>
        <pt x="1057" y="1809" on="1"/>
        <pt x="1057" y="1805" on="0"/>
        <pt x="770" y="1518" on="0"/>
        <pt x="718" y="1518" on="1"/>
        <pt x="711" y="1518" on="1"/>
        <pt x="687" y="1518" on="0"/>
        <pt x="625" y="1633" on="0"/>
        <pt x="621" y="1641" on="0"/>
        <pt x="594" y="1686" on="0"/>
        <pt x="584" y="1704" on="0"/>
        <pt x="535" y="1789" on="0"/>
        <pt x="535" y="1795" on="1"/>
        <pt x="535" y="1802" on="1"/>
        <pt x="535" y="1834" on="0"/>
        <pt x="568" y="1834" on="1"/>
        <pt x="580" y="1834" on="0"/>
        <pt x="756" y="1673" on="0"/>
        <pt x="763" y="1673" on="1"/>
        <pt x="784" y="1673" on="0"/>
        <pt x="1013" y="1832" on="0"/>
        <pt x="1057" y="1832" on="0"/>
      </contour>
      <contour>
        <pt x="1034" y="1336" on="1"/>
        <pt x="1034" y="1307" on="1"/>
        <pt x="1034" y="1168" on="0"/>
        <pt x="997" y="1088" on="1"/>
        <pt x="981" y="1053" on="0"/>
        <pt x="960" y="1053" on="1"/>
        <pt x="926" y="1053" on="0"/>
        <pt x="871" y="1219" on="0"/>
        <pt x="833" y="1256" on="1"/>
        <pt x="764" y="1323" on="0"/>
        <pt x="571" y="1323" on="0"/>
        <pt x="514" y="1281" on="1"/>
        <pt x="432" y="1220" on="0"/>
        <pt x="432" y="1023" on="0"/>
        <pt x="499" y="941" on="1"/>
        <pt x="534" y="899" on="0"/>
        <pt x="813" y="687" on="0"/>
        <pt x="930" y="516" on="0"/>
        <pt x="930" y="414" on="1"/>
        <pt x="930" y="222" on="0"/>
        <pt x="798" y="108" on="1"/>
        <pt x="726" y="44" on="0"/>
        <pt x="545" y="-10" on="0"/>
        <pt x="465" y="-10" on="1"/>
        <pt x="259" y="-10" on="0"/>
        <pt x="96" y="50" on="1"/>
        <pt x="57" y="64" on="0"/>
        <pt x="57" y="108" on="1"/>
        <pt x="57" y="139" on="1"/>
        <pt x="57" y="294" on="0"/>
        <pt x="94" y="361" on="1"/>
        <pt x="109" y="388" on="0"/>
        <pt x="130" y="388" on="1"/>
        <pt x="168" y="388" on="0"/>
        <pt x="217" y="204" on="0"/>
        <pt x="262" y="161" on="1"/>
        <pt x="347" y="80" on="0"/>
        <pt x="498" y="80" on="1"/>
        <pt x="598" y="80" on="0"/>
        <pt x="756" y="224" on="0"/>
        <pt x="756" y="415" on="0"/>
        <pt x="692" y="497" on="1"/>
        <pt x="664" y="533" on="0"/>
        <pt x="376" y="760" on="0"/>
        <pt x="263" y="924" on="0"/>
        <pt x="263" y="1051" on="1"/>
        <pt x="263" y="1116" on="0"/>
        <pt x="292" y="1184" on="1"/>
        <pt x="350" y="1323" on="0"/>
        <pt x="522" y="1388" on="1"/>
        <pt x="596" y="1416" on="0"/>
        <pt x="744" y="1416" on="0"/>
        <pt x="907" y="1371" on="0"/>
        <pt x="935" y="1371" on="1"/>
        <pt x="959" y="1377" on="1"/>
        <pt x="988" y="1382" on="1"/>
        <pt x="1034" y="1382" on="0"/>
      </contour>
    </TTGlyph>
    <TTGlyph name="T" xMin="181" yMin="-2" xMax="1419" yMax="1394">
      <contour>
        <pt x="1419" y="1356" on="1"/>
        <pt x="1419" y="1331" on="1"/>
        <pt x="1419" y="1191" on="0"/>
        <pt x="1378" y="1101" on="0"/>
        <pt x="1363" y="1101" on="1"/>
        <pt x="1338" y="1101" on="0"/>
        <pt x="1290" y="1227" on="0"/>
        <pt x="1179" y="1285" on="0"/>
        <pt x="1025" y="1285" on="1"/>
        <pt x="970" y="1285" on="0"/>
        <pt x="916" y="1244" on="0"/>
        <pt x="883" y="1146" on="0"/>
        <pt x="712" y="237" on="0"/>
        <pt x="712" y="138" on="0"/>
        <pt x="750" y="97" on="0"/>
        <pt x="844" y="60" on="0"/>
        <pt x="844" y="35" on="1"/>
        <pt x="844" y="1" on="0"/>
        <pt x="560" y="1" on="1"/>
        <pt x="423" y="-1" on="1"/>
        <pt x="388" y="-2" on="1"/>
        <pt x="325" y="-2" on="0"/>
        <pt x="325" y="52" on="0"/>
        <pt x="370" y="72" on="1"/>
        <pt x="461" y="113" on="0"/>
        <pt x="494" y="146" on="0"/>
        <pt x="529" y="262" on="0"/>
        <pt x="709" y="1176" on="0"/>
        <pt x="709" y="1290" on="0"/>
        <pt x="447" y="1290" on="0"/>
        <pt x="326" y="1226" on="0"/>
        <pt x="242" y="1073" on="0"/>
        <pt x="205" y="1073" on="1"/>
        <pt x="181" y="1073" on="0"/>
        <pt x="181" y="1204" on="0"/>
        <pt x="226" y="1321" on="1"/>
        <pt x="246" y="1374" on="0"/>
        <pt x="277" y="1386" on="1"/>
        <pt x="287" y="1390" on="0"/>
        <pt x="845" y="1390" on="1"/>
        <pt x="1256" y="1389" on="1"/>
        <pt x="1382" y="1394" on="1"/>
        <pt x="1419" y="1394" on="0"/>
      </contour>
    </TTGlyph>
    <TTGlyph name="Thorn" xMin="39" yMin="10" xMax="1174" yMax="1413">
      <contour>
        <pt x="564" y="388" on="1"/>
        <pt x="657" y="388" on="0"/>
        <pt x="810" y="465" on="0"/>
        <pt x="854" y="515" on="1"/>
        <pt x="969" y="648" on="0"/>
        <pt x="969" y="813" on="1"/>
        <pt x="969" y="835" on="1"/>
        <pt x="969" y="930" on="0"/>
        <pt x="886" y="1013" on="1"/>
        <pt x="826" y="1073" on="0"/>
        <pt x="727" y="1073" on="1"/>
        <pt x="708" y="1073" on="1"/>
        <pt x="580" y="1073" on="0"/>
        <pt x="556" y="1000" on="1"/>
        <pt x="547" y="974" on="0"/>
        <pt x="511" y="781" on="0"/>
        <pt x="444" y="502" on="0"/>
        <pt x="444" y="463" on="1"/>
        <pt x="444" y="426" on="1"/>
        <pt x="444" y="390" on="0"/>
        <pt x="494" y="390" on="1"/>
        <pt x="511" y="388" on="1"/>
      </contour>
      <contour>
        <pt x="93" y="10" on="1"/>
        <pt x="39" y="10" on="0"/>
        <pt x="39" y="33" on="1"/>
        <pt x="39" y="65" on="0"/>
        <pt x="197" y="111" on="0"/>
        <pt x="244" y="238" on="0"/>
        <pt x="464" y="1227" on="0"/>
        <pt x="464" y="1307" on="0"/>
        <pt x="412" y="1324" on="1"/>
        <pt x="324" y="1353" on="0"/>
        <pt x="324" y="1373" on="1"/>
        <pt x="324" y="1408" on="0"/>
        <pt x="485" y="1408" on="1"/>
        <pt x="590" y="1408" on="1"/>
        <pt x="643" y="1411" on="1"/>
        <pt x="678" y="1413" on="0"/>
        <pt x="694" y="1413" on="1"/>
        <pt x="775" y="1413" on="0"/>
        <pt x="775" y="1378" on="1"/>
        <pt x="775" y="1360" on="0"/>
        <pt x="646" y="1278" on="0"/>
        <pt x="646" y="1204" on="1"/>
        <pt x="646" y="1165" on="0"/>
        <pt x="819" y="1134" on="1"/>
        <pt x="992" y="1104" on="0"/>
        <pt x="1050" y="1062" on="1"/>
        <pt x="1174" y="973" on="0"/>
        <pt x="1174" y="799" on="1"/>
        <pt x="1174" y="698" on="0"/>
        <pt x="1080" y="511" on="0"/>
        <pt x="909" y="383" on="0"/>
        <pt x="721" y="329" on="0"/>
        <pt x="556" y="329" on="1"/>
        <pt x="527" y="331" on="1"/>
        <pt x="501" y="332" on="1"/>
        <pt x="445" y="332" on="0"/>
        <pt x="422" y="291" on="1"/>
        <pt x="388" y="231" on="0"/>
        <pt x="388" y="166" on="1"/>
        <pt x="388" y="122" on="0"/>
        <pt x="509" y="76" on="0"/>
        <pt x="509" y="47" on="1"/>
        <pt x="509" y="13" on="0"/>
        <pt x="352" y="13" on="1"/>
        <pt x="300" y="15" on="1"/>
        <pt x="248" y="15" on="1"/>
        <pt x="119" y="10" on="1"/>
      </contour>
    </TTGlyph>
    <TTGlyph name="U" xMin="254" yMin="-8" xMax="1596" yMax="1390">
      <contour>
        <pt x="374" y="1210" on="1"/>
        <pt x="374" y="1257" on="0"/>
        <pt x="333" y="1280" on="1"/>
        <pt x="255" y="1324" on="0"/>
        <pt x="255" y="1348" on="1"/>
        <pt x="255" y="1384" on="0"/>
        <pt x="608" y="1384" on="1"/>
        <pt x="703" y="1384" on="0"/>
        <pt x="703" y="1354" on="1"/>
        <pt x="703" y="1343" on="0"/>
        <pt x="589" y="1269" on="0"/>
        <pt x="572" y="1212" on="1"/>
        <pt x="567" y="1195" on="0"/>
        <pt x="498" y="797" on="0"/>
        <pt x="431" y="492" on="0"/>
        <pt x="431" y="262" on="0"/>
        <pt x="598" y="101" on="0"/>
        <pt x="731" y="101" on="1"/>
        <pt x="992" y="101" on="0"/>
        <pt x="1113" y="330" on="1"/>
        <pt x="1163" y="425" on="0"/>
        <pt x="1299" y="1064" on="0"/>
        <pt x="1299" y="1206" on="0"/>
        <pt x="1272" y="1248" on="1"/>
        <pt x="1204" y="1354" on="0"/>
        <pt x="1204" y="1355" on="1"/>
        <pt x="1204" y="1390" on="0"/>
        <pt x="1596" y="1390" on="0"/>
        <pt x="1596" y="1351" on="1"/>
        <pt x="1596" y="1320" on="0"/>
        <pt x="1470" y="1250" on="0"/>
        <pt x="1446" y="1189" on="1"/>
        <pt x="1439" y="1171" on="0"/>
        <pt x="1314" y="581" on="0"/>
        <pt x="1237" y="294" on="0"/>
        <pt x="1182" y="218" on="1"/>
        <pt x="1018" y="-8" on="0"/>
        <pt x="680" y="-8" on="1"/>
        <pt x="498" y="-8" on="0"/>
        <pt x="254" y="189" on="0"/>
        <pt x="254" y="352" on="1"/>
        <pt x="254" y="393" on="1"/>
        <pt x="254" y="472" on="0"/>
        <pt x="311" y="824" on="0"/>
        <pt x="349" y="1073" on="0"/>
        <pt x="374" y="1192" on="0"/>
      </contour>
    </TTGlyph>
    <TTGlyph name="Uacute" xMin="240" yMin="-1" xMax="1583" yMax="1842">
      <contour>
        <pt x="939" y="1518" on="1"/>
        <pt x="924" y="1518" on="1"/>
        <pt x="901" y="1518" on="0"/>
        <pt x="901" y="1537" on="1"/>
        <pt x="901" y="1542" on="1"/>
        <pt x="901" y="1549" on="0"/>
        <pt x="1158" y="1842" on="0"/>
        <pt x="1209" y="1842" on="1"/>
        <pt x="1214" y="1842" on="1"/>
        <pt x="1219" y="1841" on="1"/>
        <pt x="1296" y="1841" on="0"/>
        <pt x="1296" y="1794" on="1"/>
        <pt x="1296" y="1790" on="1"/>
        <pt x="1295" y="1785" on="1"/>
        <pt x="1295" y="1746" on="0"/>
        <pt x="1180" y="1669" on="1"/>
        <pt x="953" y="1518" on="0"/>
      </contour>
      <contour>
        <pt x="371" y="1221" on="1"/>
        <pt x="371" y="1271" on="0"/>
        <pt x="330" y="1292" on="1"/>
        <pt x="247" y="1335" on="0"/>
        <pt x="247" y="1361" on="1"/>
        <pt x="247" y="1402" on="0"/>
        <pt x="603" y="1402" on="1"/>
        <pt x="697" y="1402" on="0"/>
        <pt x="697" y="1370" on="1"/>
        <pt x="697" y="1358" on="0"/>
        <pt x="572" y="1279" on="0"/>
        <pt x="554" y="1218" on="1"/>
        <pt x="546" y="1190" on="0"/>
        <pt x="499" y="903" on="0"/>
        <pt x="409" y="484" on="0"/>
        <pt x="409" y="257" on="0"/>
        <pt x="494" y="178" on="1"/>
        <pt x="580" y="99" on="0"/>
        <pt x="714" y="99" on="1"/>
        <pt x="975" y="99" on="0"/>
        <pt x="1101" y="336" on="1"/>
        <pt x="1149" y="426" on="0"/>
        <pt x="1293" y="1065" on="0"/>
        <pt x="1293" y="1171" on="1"/>
        <pt x="1293" y="1232" on="0"/>
        <pt x="1198" y="1353" on="0"/>
        <pt x="1198" y="1371" on="1"/>
        <pt x="1198" y="1406" on="0"/>
        <pt x="1289" y="1406" on="1"/>
        <pt x="1327" y="1406" on="1"/>
        <pt x="1583" y="1406" on="0"/>
        <pt x="1583" y="1360" on="1"/>
        <pt x="1583" y="1329" on="0"/>
        <pt x="1465" y="1265" on="0"/>
        <pt x="1430" y="1193" on="0"/>
        <pt x="1246" y="363" on="0"/>
        <pt x="1116" y="145" on="0"/>
        <pt x="864" y="-1" on="0"/>
        <pt x="703" y="-1" on="1"/>
        <pt x="661" y="-1" on="1"/>
        <pt x="576" y="-1" on="0"/>
        <pt x="497" y="24" on="1"/>
        <pt x="333" y="76" on="0"/>
        <pt x="272" y="212" on="1"/>
        <pt x="240" y="283" on="0"/>
        <pt x="240" y="363" on="1"/>
        <pt x="240" y="405" on="1"/>
        <pt x="240" y="485" on="0"/>
        <pt x="289" y="790" on="1"/>
        <pt x="302" y="871" on="1"/>
        <pt x="321" y="1006" on="0"/>
        <pt x="371" y="1206" on="0"/>
      </contour>
    </TTGlyph>
    <TTGlyph name="Ucircumflex" xMin="240" yMin="-3" xMax="1583" yMax="1840">
      <contour>
        <pt x="1041" y="1840" on="1"/>
        <pt x="1055" y="1840" on="1"/>
        <pt x="1089" y="1840" on="0"/>
        <pt x="1131" y="1767" on="1"/>
        <pt x="1147" y="1739" on="0"/>
        <pt x="1168" y="1700" on="0"/>
        <pt x="1180" y="1682" on="0"/>
        <pt x="1189" y="1667" on="1"/>
        <pt x="1226" y="1607" on="1"/>
        <pt x="1254" y="1561" on="0"/>
        <pt x="1254" y="1556" on="1"/>
        <pt x="1254" y="1549" on="1"/>
        <pt x="1254" y="1524" on="0"/>
        <pt x="1199" y="1524" on="0"/>
        <pt x="1030" y="1693" on="0"/>
        <pt x="1018" y="1693" on="1"/>
        <pt x="1017" y="1693" on="0"/>
        <pt x="757" y="1526" on="0"/>
        <pt x="717" y="1526" on="0"/>
        <pt x="717" y="1563" on="0"/>
        <pt x="1022" y="1840" on="0"/>
      </contour>
      <contour>
        <pt x="371" y="1219" on="1"/>
        <pt x="371" y="1269" on="0"/>
        <pt x="330" y="1290" on="1"/>
        <pt x="247" y="1333" on="0"/>
        <pt x="247" y="1359" on="1"/>
        <pt x="247" y="1400" on="0"/>
        <pt x="603" y="1400" on="1"/>
        <pt x="697" y="1400" on="0"/>
        <pt x="697" y="1367" on="1"/>
        <pt x="697" y="1357" on="0"/>
        <pt x="572" y="1275" on="0"/>
        <pt x="554" y="1216" on="1"/>
        <pt x="546" y="1188" on="0"/>
        <pt x="499" y="901" on="0"/>
        <pt x="409" y="482" on="0"/>
        <pt x="409" y="255" on="0"/>
        <pt x="494" y="176" on="1"/>
        <pt x="580" y="97" on="0"/>
        <pt x="714" y="97" on="1"/>
        <pt x="975" y="97" on="0"/>
        <pt x="1101" y="334" on="1"/>
        <pt x="1149" y="424" on="0"/>
        <pt x="1293" y="1063" on="0"/>
        <pt x="1293" y="1169" on="1"/>
        <pt x="1293" y="1230" on="0"/>
        <pt x="1198" y="1351" on="0"/>
        <pt x="1198" y="1369" on="1"/>
        <pt x="1198" y="1404" on="0"/>
        <pt x="1289" y="1404" on="1"/>
        <pt x="1327" y="1404" on="1"/>
        <pt x="1583" y="1404" on="0"/>
        <pt x="1583" y="1358" on="1"/>
        <pt x="1583" y="1327" on="0"/>
        <pt x="1465" y="1263" on="0"/>
        <pt x="1430" y="1191" on="0"/>
        <pt x="1246" y="361" on="0"/>
        <pt x="1116" y="143" on="0"/>
        <pt x="864" y="-3" on="0"/>
        <pt x="703" y="-3" on="1"/>
        <pt x="661" y="-3" on="1"/>
        <pt x="576" y="-3" on="0"/>
        <pt x="497" y="22" on="1"/>
        <pt x="333" y="74" on="0"/>
        <pt x="272" y="210" on="1"/>
        <pt x="240" y="281" on="0"/>
        <pt x="240" y="361" on="1"/>
        <pt x="240" y="403" on="1"/>
        <pt x="240" y="483" on="0"/>
        <pt x="289" y="788" on="1"/>
        <pt x="302" y="869" on="1"/>
        <pt x="324" y="1017" on="0"/>
        <pt x="371" y="1204" on="0"/>
      </contour>
    </TTGlyph>
    <TTGlyph name="Udieresis" xMin="232" yMin="-4" xMax="1576" yMax="1774">
      <contour>
        <pt x="717" y="1656" on="1"/>
        <pt x="717" y="1672" on="1"/>
        <pt x="717" y="1716" on="0"/>
        <pt x="788" y="1773" on="0"/>
        <pt x="816" y="1773" on="1"/>
        <pt x="829" y="1773" on="1"/>
        <pt x="838" y="1770" on="0"/>
        <pt x="863" y="1770" on="0"/>
        <pt x="912" y="1721" on="0"/>
        <pt x="912" y="1695" on="1"/>
        <pt x="912" y="1666" on="1"/>
        <pt x="908" y="1648" on="1"/>
        <pt x="908" y="1631" on="0"/>
        <pt x="853" y="1576" on="0"/>
        <pt x="828" y="1574" on="0"/>
        <pt x="825" y="1574" on="1"/>
        <pt x="810" y="1572" on="1"/>
        <pt x="804" y="1572" on="1"/>
        <pt x="779" y="1576" on="1"/>
        <pt x="760" y="1576" on="0"/>
        <pt x="717" y="1630" on="0"/>
      </contour>
      <contour>
        <pt x="1280" y="1671" on="1"/>
        <pt x="1277" y="1652" on="1"/>
        <pt x="1277" y="1632" on="0"/>
        <pt x="1218" y="1573" on="0"/>
        <pt x="1187" y="1573" on="1"/>
        <pt x="1166" y="1573" on="1"/>
        <pt x="1137" y="1573" on="0"/>
        <pt x="1084" y="1626" on="0"/>
        <pt x="1084" y="1657" on="1"/>
        <pt x="1084" y="1673" on="1"/>
        <pt x="1084" y="1712" on="0"/>
        <pt x="1142" y="1770" on="0"/>
        <pt x="1162" y="1770" on="1"/>
        <pt x="1168" y="1772" on="0"/>
        <pt x="1171" y="1772" on="1"/>
        <pt x="1186" y="1774" on="1"/>
        <pt x="1196" y="1774" on="1"/>
        <pt x="1229" y="1774" on="0"/>
        <pt x="1281" y="1722" on="0"/>
        <pt x="1281" y="1686" on="1"/>
        <pt x="1281" y="1677" on="1"/>
        <pt x="1280" y="1674" on="1"/>
      </contour>
      <contour>
        <pt x="363" y="1218" on="1"/>
        <pt x="363" y="1268" on="0"/>
        <pt x="323" y="1289" on="1"/>
        <pt x="239" y="1333" on="0"/>
        <pt x="239" y="1358" on="1"/>
        <pt x="239" y="1399" on="0"/>
        <pt x="596" y="1399" on="1"/>
        <pt x="689" y="1399" on="0"/>
        <pt x="689" y="1367" on="1"/>
        <pt x="689" y="1354" on="0"/>
        <pt x="564" y="1277" on="0"/>
        <pt x="536" y="1176" on="0"/>
        <pt x="488" y="881" on="0"/>
        <pt x="401" y="477" on="0"/>
        <pt x="401" y="255" on="0"/>
        <pt x="572" y="96" on="0"/>
        <pt x="706" y="96" on="1"/>
        <pt x="970" y="96" on="0"/>
        <pt x="1093" y="333" on="1"/>
        <pt x="1149" y="440" on="0"/>
        <pt x="1286" y="1086" on="0"/>
        <pt x="1286" y="1229" on="0"/>
        <pt x="1190" y="1351" on="0"/>
        <pt x="1190" y="1368" on="1"/>
        <pt x="1190" y="1403" on="0"/>
        <pt x="1281" y="1403" on="1"/>
        <pt x="1320" y="1403" on="1"/>
        <pt x="1576" y="1403" on="0"/>
        <pt x="1576" y="1357" on="1"/>
        <pt x="1576" y="1327" on="0"/>
        <pt x="1459" y="1263" on="0"/>
        <pt x="1424" y="1192" on="0"/>
        <pt x="1240" y="362" on="0"/>
        <pt x="1108" y="142" on="0"/>
        <pt x="856" y="-4" on="0"/>
        <pt x="696" y="-4" on="1"/>
        <pt x="654" y="-4" on="1"/>
        <pt x="451" y="-4" on="0"/>
        <pt x="330" y="115" on="1"/>
        <pt x="232" y="211" on="0"/>
        <pt x="232" y="390" on="1"/>
        <pt x="232" y="475" on="0"/>
        <pt x="282" y="787" on="1"/>
        <pt x="301" y="909" on="1"/>
        <pt x="316" y="1004" on="0"/>
        <pt x="363" y="1204" on="0"/>
      </contour>
    </TTGlyph>
    <TTGlyph name="Ugrave" xMin="240" yMin="-1" xMax="1583" yMax="1844">
      <contour>
        <pt x="1027" y="1556" on="1"/>
        <pt x="1027" y="1542" on="1"/>
        <pt x="1027" y="1519" on="0"/>
        <pt x="966" y="1519" on="0"/>
        <pt x="786" y="1659" on="1"/>
        <pt x="674" y="1746" on="0"/>
        <pt x="674" y="1780" on="1"/>
        <pt x="674" y="1784" on="1"/>
        <pt x="675" y="1789" on="1"/>
        <pt x="675" y="1844" on="0"/>
        <pt x="758" y="1844" on="1"/>
        <pt x="768" y="1844" on="1"/>
        <pt x="799" y="1844" on="0"/>
        <pt x="1027" y="1583" on="0"/>
      </contour>
      <contour>
        <pt x="371" y="1221" on="1"/>
        <pt x="371" y="1272" on="0"/>
        <pt x="330" y="1293" on="1"/>
        <pt x="247" y="1336" on="0"/>
        <pt x="247" y="1361" on="1"/>
        <pt x="247" y="1402" on="0"/>
        <pt x="641" y="1402" on="1"/>
        <pt x="697" y="1402" on="0"/>
        <pt x="697" y="1370" on="1"/>
        <pt x="697" y="1358" on="0"/>
        <pt x="572" y="1279" on="0"/>
        <pt x="554" y="1218" on="1"/>
        <pt x="546" y="1190" on="0"/>
        <pt x="498" y="897" on="0"/>
        <pt x="409" y="488" on="0"/>
        <pt x="409" y="255" on="0"/>
        <pt x="580" y="99" on="0"/>
        <pt x="713" y="99" on="1"/>
        <pt x="971" y="99" on="0"/>
        <pt x="1101" y="336" on="1"/>
        <pt x="1150" y="427" on="0"/>
        <pt x="1293" y="1069" on="0"/>
        <pt x="1293" y="1172" on="1"/>
        <pt x="1293" y="1231" on="0"/>
        <pt x="1198" y="1354" on="0"/>
        <pt x="1198" y="1372" on="1"/>
        <pt x="1198" y="1406" on="0"/>
        <pt x="1289" y="1406" on="1"/>
        <pt x="1327" y="1406" on="1"/>
        <pt x="1583" y="1406" on="0"/>
        <pt x="1583" y="1360" on="1"/>
        <pt x="1583" y="1330" on="0"/>
        <pt x="1466" y="1266" on="0"/>
        <pt x="1428" y="1187" on="0"/>
        <pt x="1247" y="365" on="0"/>
        <pt x="1116" y="145" on="0"/>
        <pt x="864" y="-1" on="0"/>
        <pt x="703" y="-1" on="1"/>
        <pt x="661" y="-1" on="1"/>
        <pt x="478" y="0" on="0"/>
        <pt x="240" y="196" on="0"/>
        <pt x="240" y="364" on="1"/>
        <pt x="240" y="405" on="1"/>
        <pt x="240" y="485" on="0"/>
        <pt x="289" y="790" on="1"/>
        <pt x="302" y="871" on="1"/>
        <pt x="323" y="1012" on="0"/>
        <pt x="371" y="1207" on="0"/>
      </contour>
    </TTGlyph>
    <TTGlyph name="V" xMin="223" yMin="8" xMax="1580" yMax="1389">
      <contour>
        <pt x="1419" y="1389" on="1"/>
        <pt x="1580" y="1389" on="0"/>
        <pt x="1580" y="1350" on="1"/>
        <pt x="1580" y="1326" on="0"/>
        <pt x="1436" y="1246" on="0"/>
        <pt x="1390" y="1188" on="0"/>
        <pt x="822" y="291" on="0"/>
        <pt x="768" y="214" on="1"/>
        <pt x="623" y="8" on="0"/>
        <pt x="561" y="8" on="1"/>
        <pt x="491" y="8" on="0"/>
        <pt x="458" y="156" on="1"/>
        <pt x="450" y="190" on="0"/>
        <pt x="371" y="1128" on="0"/>
        <pt x="339" y="1266" on="0"/>
        <pt x="297" y="1293" on="1"/>
        <pt x="223" y="1341" on="0"/>
        <pt x="223" y="1385" on="0"/>
        <pt x="670" y="1385" on="0"/>
        <pt x="670" y="1342" on="1"/>
        <pt x="670" y="1331" on="0"/>
        <pt x="643" y="1308" on="1"/>
        <pt x="606" y="1277" on="1"/>
        <pt x="576" y="1242" on="0"/>
        <pt x="576" y="1107" on="0"/>
        <pt x="644" y="329" on="0"/>
        <pt x="662" y="270" on="0"/>
        <pt x="673" y="270" on="1"/>
        <pt x="726" y="270" on="0"/>
        <pt x="1143" y="997" on="1"/>
        <pt x="1242" y="1170" on="0"/>
        <pt x="1242" y="1255" on="1"/>
        <pt x="1242" y="1264" on="0"/>
        <pt x="1193" y="1326" on="0"/>
        <pt x="1193" y="1333" on="1"/>
        <pt x="1193" y="1389" on="0"/>
      </contour>
    </TTGlyph>
    <TTGlyph name="W" xMin="296" yMin="52" xMax="2098" yMax="1375">
      <contour>
        <pt x="1781" y="1201" on="1"/>
        <pt x="1781" y="1279" on="0"/>
        <pt x="1892" y="1372" on="0"/>
        <pt x="2038" y="1372" on="0"/>
        <pt x="2061" y="1364" on="1"/>
        <pt x="2098" y="1351" on="0"/>
        <pt x="2098" y="1308" on="1"/>
        <pt x="2098" y="1301" on="0"/>
        <pt x="2060" y="1251" on="1"/>
        <pt x="1918" y="1063" on="0"/>
        <pt x="1486" y="302" on="0"/>
        <pt x="1427" y="214" on="1"/>
        <pt x="1332" y="74" on="0"/>
        <pt x="1246" y="74" on="1"/>
        <pt x="1159" y="74" on="0"/>
        <pt x="1132" y="232" on="1"/>
        <pt x="1120" y="302" on="0"/>
        <pt x="1095" y="805" on="0"/>
        <pt x="1091" y="835" on="1"/>
        <pt x="1083" y="875" on="1"/>
        <pt x="1068" y="875" on="0"/>
        <pt x="709" y="281" on="0"/>
        <pt x="545" y="52" on="0"/>
        <pt x="420" y="52" on="0"/>
        <pt x="401" y="132" on="1"/>
        <pt x="395" y="186" on="1"/>
        <pt x="393" y="214" on="0"/>
        <pt x="368" y="939" on="0"/>
        <pt x="349" y="1112" on="0"/>
        <pt x="296" y="1267" on="0"/>
        <pt x="296" y="1279" on="1"/>
        <pt x="296" y="1308" on="1"/>
        <pt x="296" y="1330" on="0"/>
        <pt x="354" y="1375" on="0"/>
        <pt x="512" y="1375" on="0"/>
        <pt x="626" y="1315" on="0"/>
        <pt x="626" y="1220" on="0"/>
        <pt x="557" y="1050" on="0"/>
        <pt x="557" y="934" on="1"/>
        <pt x="557" y="708" on="0"/>
        <pt x="571" y="526" on="1"/>
        <pt x="580" y="404" on="0"/>
        <pt x="622" y="404" on="1"/>
        <pt x="673" y="404" on="0"/>
        <pt x="754" y="493" on="0"/>
        <pt x="896" y="738" on="1"/>
        <pt x="955" y="841" on="0"/>
        <pt x="1021" y="1059" on="0"/>
        <pt x="1021" y="1112" on="1"/>
        <pt x="1020" y="1159" on="1"/>
        <pt x="999" y="1240" on="1"/>
        <pt x="999" y="1294" on="0"/>
        <pt x="1144" y="1367" on="0"/>
        <pt x="1212" y="1367" on="1"/>
        <pt x="1336" y="1367" on="0"/>
        <pt x="1336" y="1272" on="1"/>
        <pt x="1325" y="1239" on="1"/>
        <pt x="1308" y="1185" on="0"/>
        <pt x="1290" y="1093" on="0"/>
        <pt x="1290" y="997" on="1"/>
        <pt x="1290" y="573" on="0"/>
        <pt x="1323" y="431" on="1"/>
        <pt x="1333" y="387" on="0"/>
        <pt x="1366" y="387" on="1"/>
        <pt x="1418" y="387" on="0"/>
        <pt x="1728" y="973" on="1"/>
        <pt x="1781" y="1073" on="0"/>
      </contour>
    </TTGlyph>
    <TTGlyph name="X" xMin="23" yMin="0" xMax="1478" yMax="1389">
      <contour>
        <pt x="299" y="2" on="1"/>
        <pt x="23" y="2" on="0"/>
        <pt x="23" y="33" on="1"/>
        <pt x="23" y="57" on="0"/>
        <pt x="193" y="137" on="0"/>
        <pt x="289" y="243" on="1"/>
        <pt x="486" y="458" on="0"/>
        <pt x="643" y="669" on="0"/>
        <pt x="643" y="774" on="0"/>
        <pt x="594" y="881" on="1"/>
        <pt x="484" y="1121" on="0"/>
        <pt x="397" y="1249" on="0"/>
        <pt x="360" y="1270" on="1"/>
        <pt x="328" y="1282" on="1"/>
        <pt x="296" y="1289" on="1"/>
        <pt x="265" y="1299" on="0"/>
        <pt x="265" y="1312" on="1"/>
        <pt x="275" y="1326" on="1"/>
        <pt x="282" y="1331" on="0"/>
        <pt x="401" y="1344" on="0"/>
        <pt x="586" y="1373" on="0"/>
        <pt x="670" y="1373" on="0"/>
        <pt x="670" y="1359" on="1"/>
        <pt x="670" y="1339" on="0"/>
        <pt x="621" y="1287" on="0"/>
        <pt x="621" y="1263" on="1"/>
        <pt x="621" y="1192" on="0"/>
        <pt x="761" y="950" on="1"/>
        <pt x="799" y="884" on="0"/>
        <pt x="825" y="884" on="1"/>
        <pt x="871" y="884" on="0"/>
        <pt x="1020" y="1070" on="1"/>
        <pt x="1117" y="1191" on="0"/>
        <pt x="1117" y="1268" on="1"/>
        <pt x="1112" y="1291" on="1"/>
        <pt x="1105" y="1318" on="0"/>
        <pt x="1105" y="1330" on="1"/>
        <pt x="1105" y="1389" on="0"/>
        <pt x="1266" y="1389" on="1"/>
        <pt x="1478" y="1389" on="0"/>
        <pt x="1478" y="1360" on="1"/>
        <pt x="1478" y="1344" on="1"/>
        <pt x="1478" y="1329" on="0"/>
        <pt x="1331" y="1271" on="0"/>
        <pt x="1289" y="1230" on="1"/>
        <pt x="1020" y="966" on="0"/>
        <pt x="908" y="789" on="1"/>
        <pt x="881" y="747" on="0"/>
        <pt x="881" y="688" on="0"/>
        <pt x="919" y="601" on="1"/>
        <pt x="1073" y="247" on="0"/>
        <pt x="1137" y="134" on="0"/>
        <pt x="1185" y="107" on="1"/>
        <pt x="1292" y="48" on="0"/>
        <pt x="1292" y="45" on="1"/>
        <pt x="1282" y="31" on="1"/>
        <pt x="1233" y="0" on="0"/>
        <pt x="967" y="0" on="1"/>
        <pt x="851" y="0" on="0"/>
        <pt x="851" y="30" on="1"/>
        <pt x="851" y="47" on="0"/>
        <pt x="899" y="106" on="0"/>
        <pt x="899" y="144" on="1"/>
        <pt x="899" y="223" on="0"/>
        <pt x="760" y="509" on="1"/>
        <pt x="734" y="563" on="0"/>
        <pt x="720" y="563" on="1"/>
        <pt x="667" y="563" on="0"/>
        <pt x="462" y="286" on="1"/>
        <pt x="379" y="174" on="0"/>
        <pt x="379" y="119" on="1"/>
        <pt x="392" y="39" on="1"/>
        <pt x="392" y="2" on="0"/>
      </contour>
    </TTGlyph>
    <TTGlyph name="Y" xMin="234" yMin="-3" xMax="1414" yMax="1346">
      <contour>
        <pt x="526" y="1337" on="1"/>
        <pt x="554" y="1337" on="0"/>
        <pt x="554" y="1313" on="1"/>
        <pt x="554" y="1305" on="0"/>
        <pt x="525" y="1269" on="0"/>
        <pt x="525" y="1236" on="0"/>
        <pt x="708" y="883" on="1"/>
        <pt x="752" y="799" on="0"/>
        <pt x="765" y="799" on="1"/>
        <pt x="788" y="799" on="0"/>
        <pt x="1146" y="1244" on="0"/>
        <pt x="1146" y="1271" on="1"/>
        <pt x="1146" y="1286" on="0"/>
        <pt x="1141" y="1296" on="1"/>
        <pt x="1130" y="1317" on="1"/>
        <pt x="1130" y="1346" on="0"/>
        <pt x="1165" y="1346" on="1"/>
        <pt x="1186" y="1346" on="1"/>
        <pt x="1231" y="1343" on="1"/>
        <pt x="1261" y="1341" on="0"/>
        <pt x="1276" y="1341" on="1"/>
        <pt x="1414" y="1341" on="0"/>
        <pt x="1414" y="1319" on="1"/>
        <pt x="1414" y="1307" on="0"/>
        <pt x="1317" y="1274" on="1"/>
        <pt x="1262" y="1255" on="0"/>
        <pt x="1200" y="1182" on="1"/>
        <pt x="1024" y="973" on="0"/>
        <pt x="830" y="648" on="1"/>
        <pt x="798" y="595" on="0"/>
        <pt x="723" y="275" on="0"/>
        <pt x="723" y="167" on="1"/>
        <pt x="723" y="122" on="0"/>
        <pt x="846" y="47" on="0"/>
        <pt x="846" y="30" on="1"/>
        <pt x="846" y="0" on="0"/>
        <pt x="596" y="0" on="1"/>
        <pt x="462" y="-1" on="1"/>
        <pt x="428" y="-3" on="1"/>
        <pt x="349" y="-3" on="0"/>
        <pt x="349" y="30" on="1"/>
        <pt x="349" y="44" on="0"/>
        <pt x="489" y="127" on="0"/>
        <pt x="509" y="169" on="1"/>
        <pt x="580" y="316" on="0"/>
        <pt x="580" y="559" on="1"/>
        <pt x="580" y="626" on="0"/>
        <pt x="475" y="1017" on="0"/>
        <pt x="366" y="1235" on="0"/>
        <pt x="329" y="1256" on="1"/>
        <pt x="304" y="1268" on="1"/>
        <pt x="279" y="1278" on="1"/>
        <pt x="234" y="1298" on="0"/>
        <pt x="234" y="1320" on="0"/>
        <pt x="257" y="1320" on="1"/>
        <pt x="421" y="1327" on="1"/>
        <pt x="443" y="1327" on="0"/>
        <pt x="464" y="1329" on="1"/>
        <pt x="485" y="1331" on="1"/>
        <pt x="521" y="1337" on="0"/>
      </contour>
    </TTGlyph>
    <TTGlyph name="Yacute" xMin="229" yMin="1" xMax="1387" yMax="1841">
      <contour>
        <pt x="801" y="1537" on="1"/>
        <pt x="801" y="1546" on="1"/>
        <pt x="801" y="1548" on="0"/>
        <pt x="1058" y="1841" on="0"/>
        <pt x="1109" y="1841" on="1"/>
        <pt x="1114" y="1841" on="1"/>
        <pt x="1119" y="1840" on="1"/>
        <pt x="1196" y="1840" on="0"/>
        <pt x="1196" y="1793" on="1"/>
        <pt x="1196" y="1789" on="1"/>
        <pt x="1195" y="1784" on="1"/>
        <pt x="1195" y="1757" on="0"/>
        <pt x="1084" y="1671" on="1"/>
        <pt x="886" y="1517" on="0"/>
        <pt x="839" y="1517" on="1"/>
        <pt x="824" y="1517" on="1"/>
        <pt x="801" y="1517" on="0"/>
      </contour>
      <contour>
        <pt x="574" y="606" on="1"/>
        <pt x="574" y="662" on="0"/>
        <pt x="519" y="858" on="1"/>
        <pt x="418" y="1220" on="0"/>
        <pt x="326" y="1270" on="1"/>
        <pt x="278" y="1291" on="1"/>
        <pt x="229" y="1313" on="0"/>
        <pt x="229" y="1317" on="1"/>
        <pt x="229" y="1324" on="1"/>
        <pt x="229" y="1329" on="0"/>
        <pt x="267" y="1329" on="1"/>
        <pt x="287" y="1330" on="1"/>
        <pt x="309" y="1332" on="1"/>
        <pt x="356" y="1335" on="0"/>
        <pt x="418" y="1335" on="0"/>
        <pt x="502" y="1355" on="0"/>
        <pt x="503" y="1355" on="1"/>
        <pt x="537" y="1355" on="0"/>
        <pt x="537" y="1332" on="1"/>
        <pt x="537" y="1320" on="0"/>
        <pt x="507" y="1287" on="0"/>
        <pt x="507" y="1271" on="1"/>
        <pt x="507" y="1269" on="0"/>
        <pt x="643" y="1014" on="0"/>
        <pt x="738" y="814" on="0"/>
        <pt x="753" y="814" on="1"/>
        <pt x="774" y="814" on="0"/>
        <pt x="1149" y="1281" on="0"/>
        <pt x="1149" y="1285" on="1"/>
        <pt x="1149" y="1300" on="0"/>
        <pt x="1126" y="1329" on="0"/>
        <pt x="1126" y="1339" on="1"/>
        <pt x="1126" y="1356" on="0"/>
        <pt x="1157" y="1356" on="1"/>
        <pt x="1176" y="1356" on="1"/>
        <pt x="1197" y="1353" on="1"/>
        <pt x="1218" y="1352" on="1"/>
        <pt x="1281" y="1352" on="1"/>
        <pt x="1387" y="1352" on="0"/>
        <pt x="1387" y="1316" on="0"/>
        <pt x="1247" y="1276" on="0"/>
        <pt x="1197" y="1219" on="1"/>
        <pt x="1064" y="1068" on="0"/>
        <pt x="825" y="685" on="1"/>
        <pt x="779" y="612" on="0"/>
        <pt x="694" y="271" on="0"/>
        <pt x="694" y="152" on="0"/>
        <pt x="724" y="110" on="0"/>
        <pt x="820" y="54" on="0"/>
        <pt x="820" y="36" on="1"/>
        <pt x="820" y="4" on="0"/>
        <pt x="607" y="4" on="1"/>
        <pt x="474" y="3" on="1"/>
        <pt x="439" y="1" on="1"/>
        <pt x="406" y="1" on="1"/>
        <pt x="333" y="1" on="0"/>
        <pt x="333" y="39" on="1"/>
        <pt x="333" y="50" on="0"/>
        <pt x="482" y="129" on="0"/>
        <pt x="502" y="178" on="1"/>
        <pt x="574" y="355" on="0"/>
      </contour>
    </TTGlyph>
    <TTGlyph name="Ydieresis" xMin="221" yMin="-11" xMax="1352" yMax="1748">
      <contour>
        <pt x="789" y="1640" on="1"/>
        <pt x="787" y="1614" on="1"/>
        <pt x="787" y="1600" on="0"/>
        <pt x="725" y="1538" on="0"/>
        <pt x="685" y="1538" on="1"/>
        <pt x="682" y="1538" on="1"/>
        <pt x="678" y="1539" on="1"/>
        <pt x="669" y="1539" on="1"/>
        <pt x="654" y="1542" on="0"/>
        <pt x="636" y="1542" on="0"/>
        <pt x="590" y="1588" on="0"/>
        <pt x="590" y="1622" on="1"/>
        <pt x="590" y="1641" on="1"/>
        <pt x="594" y="1663" on="1"/>
        <pt x="594" y="1686" on="0"/>
        <pt x="655" y="1747" on="0"/>
        <pt x="692" y="1747" on="1"/>
        <pt x="705" y="1747" on="1"/>
        <pt x="740" y="1747" on="0"/>
        <pt x="790" y="1697" on="0"/>
        <pt x="790" y="1663" on="1"/>
        <pt x="790" y="1643" on="1"/>
      </contour>
      <contour>
        <pt x="1152" y="1642" on="1"/>
        <pt x="1150" y="1626" on="1"/>
        <pt x="1150" y="1602" on="0"/>
        <pt x="1090" y="1542" on="0"/>
        <pt x="1070" y="1542" on="1"/>
        <pt x="1054" y="1539" on="1"/>
        <pt x="1035" y="1539" on="1"/>
        <pt x="1003" y="1539" on="0"/>
        <pt x="952" y="1590" on="0"/>
        <pt x="952" y="1619" on="1"/>
        <pt x="952" y="1645" on="1"/>
        <pt x="952" y="1676" on="0"/>
        <pt x="1007" y="1745" on="0"/>
        <pt x="1034" y="1745" on="1"/>
        <pt x="1053" y="1748" on="1"/>
        <pt x="1069" y="1748" on="1"/>
        <pt x="1081" y="1745" on="0"/>
        <pt x="1088" y="1745" on="1"/>
        <pt x="1150" y="1745" on="0"/>
        <pt x="1150" y="1677" on="1"/>
        <pt x="1153" y="1658" on="1"/>
        <pt x="1153" y="1645" on="1"/>
      </contour>
      <contour>
        <pt x="474" y="1316" on="0"/>
        <pt x="516" y="1316" on="0"/>
        <pt x="516" y="1301" on="1"/>
        <pt x="516" y="1296" on="0"/>
        <pt x="490" y="1268" on="0"/>
        <pt x="490" y="1245" on="0"/>
        <pt x="581" y="1098" on="0"/>
        <pt x="731" y="819" on="0"/>
        <pt x="759" y="819" on="1"/>
        <pt x="769" y="819" on="0"/>
        <pt x="973" y="1068" on="0"/>
        <pt x="1137" y="1240" on="0"/>
        <pt x="1137" y="1269" on="0"/>
        <pt x="1130" y="1277" on="1"/>
        <pt x="1110" y="1290" on="0"/>
        <pt x="1110" y="1297" on="1"/>
        <pt x="1110" y="1315" on="0"/>
        <pt x="1141" y="1315" on="1"/>
        <pt x="1163" y="1313" on="1"/>
        <pt x="1186" y="1309" on="1"/>
        <pt x="1208" y="1306" on="1"/>
        <pt x="1218" y="1305" on="0"/>
        <pt x="1352" y="1305" on="0"/>
        <pt x="1352" y="1297" on="1"/>
        <pt x="1352" y="1288" on="1"/>
        <pt x="1352" y="1280" on="0"/>
        <pt x="1210" y="1233" on="0"/>
        <pt x="1163" y="1180" on="1"/>
        <pt x="1017" y="1013" on="0"/>
        <pt x="802" y="655" on="1"/>
        <pt x="758" y="581" on="0"/>
        <pt x="685" y="223" on="0"/>
        <pt x="685" y="123" on="0"/>
        <pt x="723" y="94" on="1"/>
        <pt x="813" y="24" on="0"/>
        <pt x="813" y="23" on="1"/>
        <pt x="813" y="-9" on="0"/>
        <pt x="659" y="-9" on="1"/>
        <pt x="593" y="-7" on="1"/>
        <pt x="496" y="-8" on="1"/>
        <pt x="397" y="-11" on="1"/>
        <pt x="362" y="-11" on="1"/>
        <pt x="309" y="-11" on="0"/>
        <pt x="309" y="24" on="1"/>
        <pt x="309" y="47" on="0"/>
        <pt x="457" y="111" on="0"/>
        <pt x="503" y="212" on="0"/>
        <pt x="561" y="528" on="0"/>
        <pt x="561" y="584" on="1"/>
        <pt x="560" y="640" on="0"/>
        <pt x="514" y="821" on="1"/>
        <pt x="420" y="1186" on="0"/>
        <pt x="305" y="1235" on="1"/>
        <pt x="221" y="1271" on="0"/>
        <pt x="221" y="1273" on="1"/>
        <pt x="223" y="1276" on="1"/>
        <pt x="228" y="1277" on="0"/>
        <pt x="378" y="1288" on="0"/>
      </contour>
    </TTGlyph>
    <TTGlyph name="Z" xMin="64" yMin="-23" xMax="1294" yMax="1384">
      <contour>
        <pt x="1204" y="1384" on="1"/>
        <pt x="1294" y="1384" on="0"/>
        <pt x="1294" y="1332" on="1"/>
        <pt x="1294" y="1298" on="0"/>
        <pt x="839" y="760" on="0"/>
        <pt x="765" y="660" on="0"/>
        <pt x="603" y="492" on="0"/>
        <pt x="557" y="435" on="1"/>
        <pt x="345" y="168" on="0"/>
        <pt x="345" y="105" on="0"/>
        <pt x="389" y="99" on="1"/>
        <pt x="409" y="96" on="0"/>
        <pt x="902" y="96" on="0"/>
        <pt x="1032" y="142" on="0"/>
        <pt x="1071" y="200" on="1"/>
        <pt x="1158" y="330" on="0"/>
        <pt x="1163" y="330" on="1"/>
        <pt x="1196" y="330" on="0"/>
        <pt x="1196" y="305" on="1"/>
        <pt x="1196" y="160" on="0"/>
        <pt x="1131" y="51" on="1"/>
        <pt x="1087" y="-23" on="0"/>
        <pt x="971" y="-23" on="1"/>
        <pt x="929" y="-23" on="1"/>
        <pt x="916" y="-23" on="0"/>
        <pt x="804" y="-19" on="1"/>
        <pt x="762" y="-17" on="1"/>
        <pt x="678" y="-12" on="1"/>
        <pt x="538" y="-7" on="0"/>
        <pt x="384" y="-7" on="0"/>
        <pt x="343" y="-8" on="1"/>
        <pt x="261" y="-10" on="1"/>
        <pt x="151" y="-10" on="0"/>
        <pt x="64" y="13" on="0"/>
        <pt x="64" y="88" on="0"/>
        <pt x="113" y="154" on="1"/>
        <pt x="398" y="537" on="0"/>
        <pt x="509" y="653" on="1"/>
        <pt x="1005" y="1175" on="0"/>
        <pt x="1005" y="1238" on="1"/>
        <pt x="1005" y="1273" on="0"/>
        <pt x="570" y="1273" on="0"/>
        <pt x="448" y="1223" on="0"/>
        <pt x="406" y="1160" on="1"/>
        <pt x="339" y="1059" on="0"/>
        <pt x="274" y="1059" on="0"/>
        <pt x="274" y="1218" on="0"/>
        <pt x="328" y="1336" on="0"/>
        <pt x="352" y="1353" on="1"/>
        <pt x="391" y="1381" on="0"/>
        <pt x="616" y="1381" on="1"/>
        <pt x="910" y="1376" on="1"/>
        <pt x="953" y="1376" on="0"/>
        <pt x="1039" y="1378" on="1"/>
        <pt x="1123" y="1381" on="1"/>
        <pt x="1164" y="1384" on="1"/>
      </contour>
    </TTGlyph>
    <TTGlyph name="Zcaron" xMin="51" yMin="-31" xMax="1283" yMax="1804">
      <contour>
        <pt x="819" y="1492" on="1"/>
        <pt x="794" y="1492" on="0"/>
        <pt x="752" y="1561" on="1"/>
        <pt x="641" y="1741" on="0"/>
        <pt x="641" y="1768" on="1"/>
        <pt x="641" y="1775" on="1"/>
        <pt x="641" y="1804" on="0"/>
        <pt x="670" y="1804" on="1"/>
        <pt x="676" y="1804" on="1"/>
        <pt x="695" y="1804" on="0"/>
        <pt x="855" y="1644" on="0"/>
        <pt x="893" y="1644" on="0"/>
        <pt x="1104" y="1802" on="0"/>
        <pt x="1159" y="1802" on="0"/>
        <pt x="1159" y="1788" on="1"/>
        <pt x="1159" y="1782" on="1"/>
        <pt x="1159" y="1732" on="0"/>
        <pt x="914" y="1532" on="1"/>
        <pt x="865" y="1492" on="0"/>
      </contour>
      <contour>
        <pt x="51" y="41" on="1"/>
        <pt x="51" y="82" on="0"/>
        <pt x="88" y="134" on="1"/>
        <pt x="352" y="503" on="0"/>
        <pt x="492" y="656" on="1"/>
        <pt x="985" y="1193" on="0"/>
        <pt x="985" y="1220" on="1"/>
        <pt x="985" y="1263" on="0"/>
        <pt x="598" y="1263" on="1"/>
        <pt x="496" y="1263" on="0"/>
        <pt x="406" y="1195" on="0"/>
        <pt x="330" y="1022" on="0"/>
        <pt x="270" y="1022" on="0"/>
        <pt x="270" y="1086" on="1"/>
        <pt x="270" y="1268" on="0"/>
        <pt x="336" y="1329" on="1"/>
        <pt x="371" y="1361" on="0"/>
        <pt x="632" y="1361" on="1"/>
        <pt x="672" y="1359" on="1"/>
        <pt x="726" y="1357" on="0"/>
        <pt x="755" y="1357" on="1"/>
        <pt x="882" y="1357" on="1"/>
        <pt x="948" y="1357" on="0"/>
        <pt x="1051" y="1362" on="0"/>
        <pt x="1094" y="1364" on="1"/>
        <pt x="1136" y="1366" on="1"/>
        <pt x="1283" y="1366" on="0"/>
        <pt x="1283" y="1325" on="1"/>
        <pt x="1283" y="1300" on="0"/>
        <pt x="827" y="770" on="0"/>
        <pt x="740" y="646" on="0"/>
        <pt x="612" y="523" on="0"/>
        <pt x="321" y="153" on="0"/>
        <pt x="321" y="127" on="1"/>
        <pt x="321" y="90" on="0"/>
        <pt x="512" y="90" on="1"/>
        <pt x="850" y="78" on="1"/>
        <pt x="993" y="78" on="0"/>
        <pt x="1055" y="212" on="1"/>
        <pt x="1106" y="320" on="0"/>
        <pt x="1133" y="320" on="1"/>
        <pt x="1172" y="320" on="0"/>
        <pt x="1172" y="199" on="0"/>
        <pt x="1112" y="32" on="0"/>
        <pt x="1040" y="-31" on="0"/>
        <pt x="930" y="-31" on="1"/>
        <pt x="889" y="-31" on="1"/>
        <pt x="862" y="-31" on="0"/>
        <pt x="766" y="-24" on="1"/>
        <pt x="642" y="-15" on="1"/>
        <pt x="474" y="-7" on="0"/>
        <pt x="349" y="-7" on="1"/>
        <pt x="188" y="-11" on="1"/>
        <pt x="51" y="-11" on="0"/>
      </contour>
    </TTGlyph>
    <TTGlyph name="a" xMin="69" yMin="14" xMax="932" yMax="914">
      <contour>
        <pt x="730" y="721" on="1"/>
        <pt x="730" y="748" on="1"/>
        <pt x="730" y="784" on="0"/>
        <pt x="671" y="835" on="0"/>
        <pt x="620" y="835" on="1"/>
        <pt x="590" y="835" on="1"/>
        <pt x="539" y="835" on="0"/>
        <pt x="399" y="753" on="0"/>
        <pt x="349" y="675" on="1"/>
        <pt x="229" y="490" on="0"/>
        <pt x="229" y="304" on="1"/>
        <pt x="229" y="294" on="1"/>
        <pt x="229" y="214" on="0"/>
        <pt x="284" y="111" on="0"/>
        <pt x="337" y="111" on="1"/>
        <pt x="355" y="111" on="1"/>
        <pt x="407" y="111" on="0"/>
        <pt x="559" y="233" on="0"/>
        <pt x="654" y="394" on="0"/>
        <pt x="730" y="648" on="0"/>
      </contour>
      <contour>
        <pt x="760" y="888" on="1"/>
        <pt x="888" y="904" on="1"/>
        <pt x="918" y="904" on="0"/>
        <pt x="918" y="823" on="0"/>
        <pt x="790" y="311" on="0"/>
        <pt x="790" y="171" on="0"/>
        <pt x="855" y="171" on="1"/>
        <pt x="892" y="175" on="1"/>
        <pt x="932" y="175" on="0"/>
        <pt x="932" y="156" on="1"/>
        <pt x="932" y="146" on="1"/>
        <pt x="932" y="109" on="0"/>
        <pt x="791" y="28" on="0"/>
        <pt x="689" y="28" on="0"/>
        <pt x="651" y="77" on="0"/>
        <pt x="634" y="141" on="1"/>
        <pt x="626" y="181" on="1"/>
        <pt x="621" y="206" on="0"/>
        <pt x="617" y="206" on="1"/>
        <pt x="608" y="206" on="0"/>
        <pt x="365" y="14" on="0"/>
        <pt x="270" y="14" on="1"/>
        <pt x="252" y="14" on="1"/>
        <pt x="168" y="14" on="0"/>
        <pt x="69" y="145" on="0"/>
        <pt x="69" y="250" on="1"/>
        <pt x="69" y="271" on="1"/>
        <pt x="69" y="366" on="0"/>
        <pt x="111" y="486" on="1"/>
        <pt x="193" y="719" on="0"/>
        <pt x="397" y="849" on="1"/>
        <pt x="499" y="914" on="0"/>
        <pt x="594" y="914" on="1"/>
        <pt x="613" y="914" on="1"/>
        <pt x="641" y="914" on="0"/>
        <pt x="728" y="888" on="0"/>
      </contour>
    </TTGlyph>
    <TTGlyph name="aacute" xMin="62" yMin="24" xMax="964" yMax="1436">
      <contour>
        <pt x="723" y="731" on="1"/>
        <pt x="723" y="758" on="1"/>
        <pt x="723" y="796" on="0"/>
        <pt x="660" y="845" on="0"/>
        <pt x="603" y="845" on="1"/>
        <pt x="584" y="845" on="1"/>
        <pt x="583" y="845" on="0"/>
        <pt x="581" y="845" on="1"/>
        <pt x="520" y="845" on="0"/>
        <pt x="456" y="800" on="1"/>
        <pt x="320" y="707" on="0"/>
        <pt x="253" y="497" on="1"/>
        <pt x="223" y="402" on="0"/>
        <pt x="223" y="333" on="1"/>
        <pt x="223" y="284" on="1"/>
        <pt x="223" y="212" on="0"/>
        <pt x="284" y="121" on="0"/>
        <pt x="330" y="121" on="1"/>
        <pt x="348" y="121" on="1"/>
        <pt x="384" y="121" on="0"/>
        <pt x="456" y="166" on="1"/>
        <pt x="604" y="258" on="0"/>
        <pt x="684" y="528" on="1"/>
        <pt x="723" y="658" on="0"/>
      </contour>
      <contour>
        <pt x="964" y="1400" on="1"/>
        <pt x="964" y="1385" on="1"/>
        <pt x="964" y="1367" on="0"/>
        <pt x="670" y="1073" on="0"/>
        <pt x="597" y="1073" on="0"/>
        <pt x="597" y="1124" on="0"/>
        <pt x="748" y="1318" on="1"/>
        <pt x="840" y="1436" on="0"/>
        <pt x="873" y="1436" on="1"/>
        <pt x="894" y="1436" on="1"/>
        <pt x="964" y="1436" on="0"/>
      </contour>
      <contour>
        <pt x="754" y="897" on="1"/>
        <pt x="881" y="913" on="1"/>
        <pt x="911" y="913" on="0"/>
        <pt x="911" y="840" on="0"/>
        <pt x="784" y="319" on="0"/>
        <pt x="784" y="233" on="1"/>
        <pt x="784" y="180" on="0"/>
        <pt x="848" y="180" on="1"/>
        <pt x="873" y="185" on="1"/>
        <pt x="925" y="185" on="0"/>
        <pt x="925" y="165" on="1"/>
        <pt x="925" y="156" on="1"/>
        <pt x="925" y="119" on="0"/>
        <pt x="786" y="37" on="0"/>
        <pt x="683" y="37" on="0"/>
        <pt x="639" y="92" on="0"/>
        <pt x="614" y="216" on="0"/>
        <pt x="610" y="216" on="1"/>
        <pt x="601" y="216" on="0"/>
        <pt x="358" y="24" on="0"/>
        <pt x="263" y="24" on="1"/>
        <pt x="245" y="24" on="1"/>
        <pt x="158" y="24" on="0"/>
        <pt x="62" y="157" on="0"/>
        <pt x="62" y="260" on="1"/>
        <pt x="62" y="281" on="1"/>
        <pt x="62" y="385" on="0"/>
        <pt x="154" y="627" on="0"/>
        <pt x="310" y="814" on="0"/>
        <pt x="507" y="924" on="0"/>
        <pt x="637" y="924" on="0"/>
        <pt x="723" y="897" on="0"/>
      </contour>
    </TTGlyph>
    <TTGlyph name="acircumflex" xMin="75" yMin="20" xMax="939" yMax="1450">
      <contour>
        <pt x="737" y="755" on="1"/>
        <pt x="737" y="792" on="0"/>
        <pt x="675" y="842" on="0"/>
        <pt x="617" y="842" on="1"/>
        <pt x="607" y="842" on="1"/>
        <pt x="554" y="842" on="0"/>
        <pt x="416" y="769" on="0"/>
        <pt x="301" y="602" on="0"/>
        <pt x="236" y="396" on="0"/>
        <pt x="236" y="320" on="1"/>
        <pt x="236" y="290" on="1"/>
        <pt x="236" y="214" on="0"/>
        <pt x="294" y="117" on="0"/>
        <pt x="344" y="117" on="1"/>
        <pt x="361" y="117" on="1"/>
        <pt x="362" y="117" on="0"/>
        <pt x="363" y="117" on="1"/>
        <pt x="409" y="117" on="0"/>
        <pt x="483" y="172" on="1"/>
        <pt x="636" y="284" on="0"/>
        <pt x="701" y="534" on="1"/>
        <pt x="735" y="663" on="0"/>
        <pt x="735" y="718" on="1"/>
        <pt x="737" y="737" on="1"/>
      </contour>
      <contour>
        <pt x="691" y="1450" on="0"/>
        <pt x="778" y="1450" on="0"/>
        <pt x="801" y="1403" on="1"/>
        <pt x="922" y="1161" on="0"/>
        <pt x="922" y="1082" on="0"/>
        <pt x="892" y="1082" on="1"/>
        <pt x="885" y="1082" on="1"/>
        <pt x="862" y="1082" on="0"/>
        <pt x="713" y="1290" on="0"/>
        <pt x="706" y="1290" on="0"/>
        <pt x="465" y="1086" on="0"/>
        <pt x="421" y="1086" on="0"/>
        <pt x="421" y="1105" on="1"/>
        <pt x="421" y="1110" on="1"/>
        <pt x="421" y="1123" on="0"/>
        <pt x="535" y="1248" on="0"/>
        <pt x="585" y="1312" on="1"/>
      </contour>
      <contour>
        <pt x="768" y="894" on="1"/>
        <pt x="894" y="910" on="1"/>
        <pt x="924" y="910" on="0"/>
        <pt x="924" y="825" on="0"/>
        <pt x="797" y="317" on="0"/>
        <pt x="797" y="177" on="0"/>
        <pt x="861" y="177" on="1"/>
        <pt x="887" y="181" on="0"/>
        <pt x="898" y="181" on="1"/>
        <pt x="939" y="181" on="0"/>
        <pt x="939" y="152" on="1"/>
        <pt x="939" y="117" on="0"/>
        <pt x="799" y="34" on="0"/>
        <pt x="695" y="34" on="0"/>
        <pt x="660" y="81" on="0"/>
        <pt x="620" y="212" on="0"/>
        <pt x="611" y="212" on="0"/>
        <pt x="548" y="165" on="0"/>
        <pt x="501" y="121" on="0"/>
        <pt x="475" y="103" on="1"/>
        <pt x="356" y="20" on="0"/>
        <pt x="276" y="20" on="1"/>
        <pt x="259" y="20" on="1"/>
        <pt x="174" y="20" on="0"/>
        <pt x="75" y="151" on="0"/>
        <pt x="75" y="257" on="1"/>
        <pt x="75" y="277" on="1"/>
        <pt x="75" y="373" on="0"/>
        <pt x="160" y="614" on="0"/>
        <pt x="320" y="807" on="0"/>
        <pt x="517" y="920" on="0"/>
        <pt x="601" y="920" on="1"/>
        <pt x="619" y="920" on="1"/>
        <pt x="647" y="920" on="0"/>
        <pt x="738" y="894" on="0"/>
      </contour>
    </TTGlyph>
    <TTGlyph name="acute" xMin="310" yMin="1069" xMax="677" yMax="1432">
      <contour>
        <pt x="352" y="1069" on="1"/>
        <pt x="342" y="1069" on="1"/>
        <pt x="310" y="1069" on="0"/>
        <pt x="310" y="1092" on="1"/>
        <pt x="310" y="1097" on="1"/>
        <pt x="310" y="1123" on="0"/>
        <pt x="468" y="1326" on="1"/>
        <pt x="550" y="1432" on="0"/>
        <pt x="588" y="1432" on="1"/>
        <pt x="603" y="1432" on="1"/>
        <pt x="677" y="1432" on="0"/>
        <pt x="677" y="1389" on="1"/>
        <pt x="677" y="1384" on="1"/>
        <pt x="677" y="1347" on="0"/>
        <pt x="364" y="1069" on="0"/>
      </contour>
    </TTGlyph>
    <TTGlyph name="adieresis" xMin="71" yMin="31" xMax="966" yMax="1355">
      <contour>
        <pt x="732" y="765" on="1"/>
        <pt x="732" y="802" on="0"/>
        <pt x="670" y="852" on="0"/>
        <pt x="621" y="852" on="1"/>
        <pt x="592" y="852" on="1"/>
        <pt x="542" y="852" on="0"/>
        <pt x="412" y="775" on="0"/>
        <pt x="302" y="625" on="0"/>
        <pt x="234" y="421" on="0"/>
        <pt x="234" y="370" on="1"/>
        <pt x="232" y="350" on="1"/>
        <pt x="231" y="320" on="1"/>
        <pt x="231" y="301" on="1"/>
        <pt x="231" y="228" on="0"/>
        <pt x="287" y="128" on="0"/>
        <pt x="339" y="128" on="1"/>
        <pt x="357" y="128" on="1"/>
        <pt x="409" y="128" on="0"/>
        <pt x="555" y="245" on="0"/>
        <pt x="649" y="395" on="0"/>
        <pt x="730" y="652" on="0"/>
        <pt x="730" y="728" on="1"/>
        <pt x="732" y="747" on="1"/>
      </contour>
      <contour>
        <pt x="607" y="1250" on="1"/>
        <pt x="605" y="1225" on="1"/>
        <pt x="605" y="1212" on="0"/>
        <pt x="546" y="1153" on="0"/>
        <pt x="516" y="1153" on="1"/>
        <pt x="494" y="1153" on="1"/>
        <pt x="466" y="1153" on="0"/>
        <pt x="415" y="1204" on="0"/>
        <pt x="415" y="1241" on="1"/>
        <pt x="415" y="1250" on="1"/>
        <pt x="419" y="1275" on="1"/>
        <pt x="419" y="1289" on="0"/>
        <pt x="468" y="1350" on="0"/>
        <pt x="491" y="1350" on="1"/>
        <pt x="497" y="1352" on="0"/>
        <pt x="500" y="1352" on="1"/>
        <pt x="513" y="1354" on="1"/>
        <pt x="526" y="1354" on="1"/>
        <pt x="535" y="1351" on="0"/>
        <pt x="560" y="1351" on="0"/>
        <pt x="608" y="1303" on="0"/>
        <pt x="608" y="1269" on="1"/>
        <pt x="608" y="1253" on="1"/>
      </contour>
      <contour>
        <pt x="966" y="1276" on="1"/>
        <pt x="966" y="1251" on="1"/>
        <pt x="966" y="1216" on="0"/>
        <pt x="903" y="1153" on="0"/>
        <pt x="871" y="1153" on="1"/>
        <pt x="858" y="1153" on="1"/>
        <pt x="825" y="1153" on="0"/>
        <pt x="776" y="1202" on="0"/>
        <pt x="776" y="1221" on="1"/>
        <pt x="773" y="1236" on="1"/>
        <pt x="773" y="1258" on="1"/>
        <pt x="778" y="1273" on="0"/>
        <pt x="778" y="1293" on="0"/>
        <pt x="826" y="1352" on="0"/>
        <pt x="852" y="1352" on="1"/>
        <pt x="871" y="1355" on="1"/>
        <pt x="883" y="1355" on="1"/>
        <pt x="895" y="1352" on="0"/>
        <pt x="902" y="1352" on="1"/>
        <pt x="962" y="1352" on="0"/>
        <pt x="962" y="1291" on="1"/>
        <pt x="966" y="1279" on="0"/>
      </contour>
      <contour>
        <pt x="764" y="905" on="1"/>
        <pt x="890" y="921" on="1"/>
        <pt x="920" y="921" on="0"/>
        <pt x="919" y="836" on="0"/>
        <pt x="792" y="328" on="0"/>
        <pt x="792" y="188" on="0"/>
        <pt x="856" y="188" on="1"/>
        <pt x="893" y="192" on="1"/>
        <pt x="934" y="192" on="0"/>
        <pt x="934" y="163" on="1"/>
        <pt x="934" y="129" on="0"/>
        <pt x="799" y="45" on="0"/>
        <pt x="689" y="45" on="0"/>
        <pt x="672" y="68" on="1"/>
        <pt x="642" y="108" on="0"/>
        <pt x="624" y="223" on="0"/>
        <pt x="619" y="223" on="1"/>
        <pt x="485" y="125" on="1"/>
        <pt x="357" y="31" on="0"/>
        <pt x="271" y="31" on="1"/>
        <pt x="254" y="31" on="1"/>
        <pt x="169" y="31" on="0"/>
        <pt x="71" y="160" on="0"/>
        <pt x="71" y="247" on="1"/>
        <pt x="71" y="308" on="1"/>
        <pt x="71" y="390" on="0"/>
        <pt x="115" y="510" on="1"/>
        <pt x="205" y="754" on="0"/>
        <pt x="416" y="876" on="1"/>
        <pt x="512" y="931" on="0"/>
        <pt x="596" y="931" on="1"/>
        <pt x="614" y="931" on="1"/>
        <pt x="642" y="931" on="0"/>
        <pt x="734" y="905" on="0"/>
      </contour>
    </TTGlyph>
    <TTGlyph name="ae" xMin="74" yMin="11" xMax="1272" yMax="911">
      <contour>
        <pt x="334" y="147" on="1"/>
        <pt x="359" y="147" on="1"/>
        <pt x="386" y="147" on="0"/>
        <pt x="502" y="222" on="0"/>
        <pt x="562" y="321" on="0"/>
        <pt x="694" y="696" on="0"/>
        <pt x="694" y="744" on="1"/>
        <pt x="694" y="804" on="0"/>
        <pt x="599" y="804" on="1"/>
        <pt x="591" y="803" on="1"/>
        <pt x="582" y="803" on="1"/>
        <pt x="542" y="803" on="0"/>
        <pt x="416" y="722" on="0"/>
        <pt x="305" y="556" on="0"/>
        <pt x="246" y="356" on="0"/>
        <pt x="246" y="306" on="1"/>
        <pt x="246" y="261" on="1"/>
        <pt x="246" y="210" on="0"/>
        <pt x="304" y="147" on="0"/>
      </contour>
      <contour>
        <pt x="835" y="499" on="1"/>
        <pt x="880" y="508" on="0"/>
        <pt x="888" y="508" on="1"/>
        <pt x="954" y="508" on="0"/>
        <pt x="1102" y="719" on="0"/>
        <pt x="1102" y="783" on="1"/>
        <pt x="1102" y="800" on="1"/>
        <pt x="1102" y="846" on="0"/>
        <pt x="1055" y="846" on="1"/>
        <pt x="1036" y="848" on="1"/>
        <pt x="1012" y="848" on="1"/>
        <pt x="932" y="848" on="0"/>
        <pt x="779" y="629" on="0"/>
        <pt x="779" y="551" on="1"/>
        <pt x="779" y="544" on="1"/>
        <pt x="779" y="499" on="0"/>
        <pt x="813" y="499" on="1"/>
      </contour>
      <contour>
        <pt x="591" y="212" on="1"/>
        <pt x="567" y="212" on="0"/>
        <pt x="429" y="78" on="0"/>
        <pt x="312" y="11" on="0"/>
        <pt x="162" y="11" on="0"/>
        <pt x="74" y="139" on="0"/>
        <pt x="74" y="345" on="0"/>
        <pt x="179" y="600" on="0"/>
        <pt x="358" y="784" on="0"/>
        <pt x="540" y="879" on="0"/>
        <pt x="655" y="879" on="1"/>
        <pt x="710" y="879" on="0"/>
        <pt x="737" y="885" on="1"/>
        <pt x="776" y="899" on="1"/>
        <pt x="798" y="906" on="0"/>
        <pt x="827" y="906" on="0"/>
        <pt x="881" y="878" on="0"/>
        <pt x="910" y="878" on="0"/>
        <pt x="1036" y="911" on="0"/>
        <pt x="1091" y="911" on="1"/>
        <pt x="1114" y="911" on="1"/>
        <pt x="1188" y="911" on="0"/>
        <pt x="1272" y="827" on="0"/>
        <pt x="1272" y="772" on="1"/>
        <pt x="1272" y="749" on="1"/>
        <pt x="1272" y="644" on="0"/>
        <pt x="1174" y="572" on="1"/>
        <pt x="1104" y="520" on="0"/>
        <pt x="969" y="482" on="0"/>
        <pt x="821" y="451" on="0"/>
        <pt x="794" y="436" on="1"/>
        <pt x="746" y="410" on="0"/>
        <pt x="746" y="324" on="1"/>
        <pt x="746" y="128" on="0"/>
        <pt x="926" y="128" on="1"/>
        <pt x="969" y="128" on="0"/>
        <pt x="1126" y="210" on="0"/>
        <pt x="1162" y="210" on="0"/>
        <pt x="1162" y="199" on="1"/>
        <pt x="1162" y="146" on="0"/>
        <pt x="933" y="11" on="0"/>
        <pt x="846" y="11" on="1"/>
        <pt x="704" y="11" on="0"/>
        <pt x="639" y="133" on="1"/>
        <pt x="598" y="212" on="0"/>
      </contour>
    </TTGlyph>
    <TTGlyph name="agrave" xMin="73" yMin="19" xMax="937" yMax="1451">
      <contour>
        <pt x="342" y="116" on="1"/>
        <pt x="359" y="116" on="1"/>
        <pt x="412" y="116" on="0"/>
        <pt x="563" y="237" on="0"/>
        <pt x="657" y="398" on="0"/>
        <pt x="735" y="656" on="0"/>
        <pt x="735" y="744" on="1"/>
        <pt x="734" y="753" on="1"/>
        <pt x="734" y="790" on="0"/>
        <pt x="676" y="840" on="0"/>
        <pt x="624" y="840" on="1"/>
        <pt x="595" y="840" on="1"/>
        <pt x="534" y="840" on="0"/>
        <pt x="402" y="749" on="0"/>
        <pt x="359" y="687" on="1"/>
        <pt x="236" y="508" on="0"/>
        <pt x="236" y="348" on="1"/>
        <pt x="234" y="328" on="1"/>
        <pt x="234" y="279" on="1"/>
        <pt x="234" y="203" on="0"/>
        <pt x="298" y="116" on="0"/>
      </contour>
      <contour>
        <pt x="704" y="1072" on="1"/>
        <pt x="695" y="1072" on="1"/>
        <pt x="671" y="1072" on="0"/>
        <pt x="435" y="1375" on="0"/>
        <pt x="435" y="1399" on="1"/>
        <pt x="436" y="1403" on="1"/>
        <pt x="436" y="1451" on="0"/>
        <pt x="519" y="1451" on="1"/>
        <pt x="524" y="1450" on="1"/>
        <pt x="572" y="1450" on="0"/>
        <pt x="598" y="1403" on="1"/>
        <pt x="732" y="1162" on="0"/>
        <pt x="732" y="1109" on="1"/>
        <pt x="732" y="1096" on="1"/>
        <pt x="732" y="1072" on="0"/>
      </contour>
      <contour>
        <pt x="764" y="892" on="1"/>
        <pt x="892" y="909" on="1"/>
        <pt x="922" y="909" on="0"/>
        <pt x="922" y="835" on="0"/>
        <pt x="795" y="314" on="0"/>
        <pt x="795" y="228" on="1"/>
        <pt x="795" y="175" on="0"/>
        <pt x="859" y="175" on="1"/>
        <pt x="884" y="180" on="1"/>
        <pt x="907" y="179" on="1"/>
        <pt x="937" y="179" on="0"/>
        <pt x="937" y="118" on="0"/>
        <pt x="803" y="32" on="0"/>
        <pt x="685" y="32" on="0"/>
        <pt x="647" y="104" on="0"/>
        <pt x="625" y="211" on="0"/>
        <pt x="614" y="211" on="0"/>
        <pt x="544" y="163" on="0"/>
        <pt x="507" y="127" on="0"/>
        <pt x="488" y="113" on="1"/>
        <pt x="360" y="19" on="0"/>
        <pt x="274" y="19" on="1"/>
        <pt x="256" y="19" on="1"/>
        <pt x="169" y="19" on="0"/>
        <pt x="73" y="152" on="0"/>
        <pt x="73" y="255" on="1"/>
        <pt x="73" y="276" on="1"/>
        <pt x="73" y="278" on="0"/>
        <pt x="73" y="282" on="0"/>
        <pt x="73" y="286" on="0"/>
        <pt x="73" y="288" on="1"/>
        <pt x="73" y="382" on="0"/>
        <pt x="118" y="500" on="1"/>
        <pt x="212" y="745" on="0"/>
        <pt x="418" y="864" on="1"/>
        <pt x="514" y="919" on="0"/>
        <pt x="649" y="919" on="0"/>
        <pt x="736" y="892" on="0"/>
      </contour>
    </TTGlyph>
    <TTGlyph name="ampersand" xMin="126" yMin="2" xMax="1454" yMax="1408">
      <contour>
        <pt x="850" y="1310" on="1"/>
        <pt x="824" y="1310" on="1"/>
        <pt x="755" y="1310" on="0"/>
        <pt x="638" y="1179" on="0"/>
        <pt x="638" y="1093" on="1"/>
        <pt x="638" y="1056" on="1"/>
        <pt x="638" y="970" on="0"/>
        <pt x="711" y="866" on="0"/>
        <pt x="719" y="866" on="1"/>
        <pt x="725" y="866" on="1"/>
        <pt x="796" y="866" on="0"/>
        <pt x="904" y="988" on="1"/>
        <pt x="971" y="1063" on="0"/>
        <pt x="971" y="1158" on="1"/>
        <pt x="971" y="1171" on="1"/>
        <pt x="971" y="1234" on="0"/>
        <pt x="903" y="1310" on="0"/>
      </contour>
      <contour>
        <pt x="555" y="95" on="1"/>
        <pt x="601" y="95" on="1"/>
        <pt x="685" y="95" on="0"/>
        <pt x="876" y="197" on="0"/>
        <pt x="876" y="237" on="1"/>
        <pt x="876" y="243" on="1"/>
        <pt x="876" y="257" on="0"/>
        <pt x="737" y="451" on="0"/>
        <pt x="600" y="680" on="0"/>
        <pt x="567" y="680" on="1"/>
        <pt x="506" y="680" on="0"/>
        <pt x="397" y="541" on="1"/>
        <pt x="335" y="462" on="0"/>
        <pt x="335" y="359" on="1"/>
        <pt x="335" y="331" on="1"/>
        <pt x="335" y="235" on="0"/>
        <pt x="463" y="95" on="0"/>
      </contour>
      <contour>
        <pt x="1166" y="260" on="1"/>
        <pt x="1166" y="94" on="0"/>
        <pt x="1313" y="94" on="1"/>
        <pt x="1323" y="94" on="0"/>
        <pt x="1323" y="83" on="1"/>
        <pt x="1235" y="34" on="0"/>
        <pt x="1101" y="34" on="1"/>
        <pt x="1071" y="34" on="0"/>
        <pt x="933" y="90" on="0"/>
        <pt x="904" y="90" on="0"/>
        <pt x="853" y="70" on="1"/>
        <pt x="823" y="58" on="1"/>
        <pt x="767" y="34" on="0"/>
        <pt x="762" y="32" on="1"/>
        <pt x="676" y="2" on="0"/>
        <pt x="603" y="2" on="1"/>
        <pt x="571" y="2" on="1"/>
        <pt x="539" y="4" on="1"/>
        <pt x="506" y="4" on="1"/>
        <pt x="320" y="4" on="0"/>
        <pt x="223" y="82" on="1"/>
        <pt x="126" y="162" on="0"/>
        <pt x="126" y="290" on="1"/>
        <pt x="126" y="507" on="0"/>
        <pt x="338" y="664" on="1"/>
        <pt x="471" y="763" on="0"/>
        <pt x="471" y="814" on="1"/>
        <pt x="471" y="828" on="0"/>
        <pt x="451" y="937" on="0"/>
        <pt x="451" y="1011" on="1"/>
        <pt x="451" y="1181" on="0"/>
        <pt x="567" y="1294" on="1"/>
        <pt x="683" y="1408" on="0"/>
        <pt x="851" y="1408" on="1"/>
        <pt x="960" y="1408" on="0"/>
        <pt x="1084" y="1281" on="0"/>
        <pt x="1084" y="1077" on="0"/>
        <pt x="875" y="842" on="0"/>
        <pt x="875" y="780" on="1"/>
        <pt x="875" y="670" on="0"/>
        <pt x="931" y="560" on="1"/>
        <pt x="965" y="493" on="0"/>
        <pt x="1025" y="493" on="1"/>
        <pt x="1052" y="493" on="0"/>
        <pt x="1177" y="639" on="0"/>
        <pt x="1177" y="691" on="1"/>
        <pt x="1165" y="769" on="1"/>
        <pt x="1165" y="804" on="0"/>
        <pt x="1248" y="804" on="1"/>
        <pt x="1253" y="804" on="0"/>
        <pt x="1393" y="824" on="0"/>
        <pt x="1439" y="824" on="1"/>
        <pt x="1454" y="824" on="0"/>
        <pt x="1454" y="798" on="1"/>
        <pt x="1454" y="793" on="0"/>
        <pt x="1389" y="708" on="1"/>
        <pt x="1347" y="638" on="1"/>
        <pt x="1166" y="366" on="0"/>
      </contour>
    </TTGlyph>
</ttFont>
